<svg width="201" height="201" viewBox="0 0 201 201" fill="none" xmlns="http://www.w3.org/2000/svg">
<path d="M28.27 152.775L30.1681 153.128L30.5948 155.129L31.0166 153.128L32.9148 152.775L31.0265 152.314L30.5948 150.426L30.1583 152.314L28.27 152.775Z" fill="#DBDBDB"/>
<path d="M116.998 2.3494L118.896 2.70255L119.323 4.70371L119.745 2.70255L121.643 2.3494L119.754 1.88835L119.323 0L118.886 1.88835L116.998 2.3494Z" fill="#DBDBDB"/>
<path d="M124.723 197.943L126.621 198.291L127.048 200.293L127.47 198.291L129.368 197.943L127.479 197.477L127.048 195.589L126.616 197.477L124.723 197.943Z" fill="#DBDBDB"/>
<path d="M189.03 156.444L190.089 156.64L190.33 157.758L190.565 156.64L191.624 156.444L190.57 156.184L190.33 155.129L190.089 156.184L189.03 156.444Z" fill="#DBDBDB"/>
<path d="M174.512 26.6284L175.571 26.8295L175.806 27.9429L176.042 26.8295L177.106 26.6284L176.047 26.3734L175.806 25.3188L175.566 26.3734L174.512 26.6284Z" fill="#DBDBDB"/>
<path d="M194.616 63.3111L195.676 63.5073L195.911 64.6256L196.152 63.5073L197.211 63.3111L196.152 63.0511L195.911 61.9966L195.671 63.0511L194.616 63.3111Z" fill="#DBDBDB"/>
<path d="M6.40436 161.976L7.4638 162.173L7.69923 163.291L7.93956 162.173L8.999 161.976L7.94447 161.716L7.69923 160.662L7.45889 161.716L6.40436 161.976Z" fill="#DBDBDB"/>
<path d="M182.345 134.436L183.404 134.632L183.644 135.75L183.88 134.632L184.939 134.436L183.885 134.176L183.644 133.121L183.399 134.176L182.345 134.436Z" fill="#DBDBDB"/>
<path d="M37.7117 168.426L38.7761 168.627L39.0115 169.741L39.2469 168.627L40.3113 168.426L39.2518 168.171L39.0115 167.116L38.7712 168.171L37.7117 168.426Z" fill="#DBDBDB"/>
<path d="M16.8663 185.632C16.9482 185.632 17.0268 185.665 17.0848 185.723C17.1427 185.781 17.1753 185.859 17.1753 185.941C17.1753 186.023 17.1427 186.102 17.0848 186.16C17.0268 186.218 16.9482 186.25 16.8663 186.25C16.7843 186.25 16.7057 186.218 16.6478 186.16C16.5898 186.102 16.5573 186.023 16.5573 185.941C16.5573 185.859 16.5898 185.781 16.6478 185.723C16.7057 185.665 16.7843 185.632 16.8663 185.632Z" fill="#DBDBDB"/>
<path d="M160.881 143.74C160.963 143.74 161.042 143.773 161.1 143.831C161.158 143.889 161.19 143.967 161.19 144.049C161.19 144.131 161.158 144.21 161.1 144.268C161.042 144.326 160.963 144.358 160.881 144.358C160.799 144.358 160.721 144.326 160.663 144.268C160.605 144.21 160.572 144.131 160.572 144.049C160.572 143.967 160.605 143.889 160.663 143.831C160.721 143.773 160.799 143.74 160.881 143.74Z" fill="#DBDBDB"/>
<path d="M163.785 99.7834C163.859 99.7929 163.928 99.8293 163.978 99.8857C164.028 99.9421 164.055 100.015 164.055 100.09C164.055 100.165 164.028 100.238 163.978 100.294C163.928 100.351 163.859 100.387 163.785 100.397C163.71 100.387 163.642 100.351 163.592 100.294C163.542 100.238 163.515 100.165 163.515 100.09C163.515 100.015 163.542 99.9421 163.592 99.8857C163.642 99.8293 163.71 99.7929 163.785 99.7834Z" fill="#DBDBDB"/>
<path d="M47.3644 185.328C47.439 185.338 47.5076 185.374 47.5574 185.43C47.6071 185.487 47.6345 185.559 47.6345 185.635C47.6345 185.71 47.6071 185.783 47.5574 185.839C47.5076 185.895 47.439 185.932 47.3644 185.941C47.2898 185.932 47.2211 185.895 47.1714 185.839C47.1217 185.783 47.0942 185.71 47.0942 185.635C47.0942 185.559 47.1217 185.487 47.1714 185.43C47.2211 185.374 47.2898 185.338 47.3644 185.328Z" fill="#DBDBDB"/>
<path d="M34.7542 167.509C34.8288 167.518 34.8974 167.555 34.9471 167.611C34.9969 167.668 35.0243 167.74 35.0243 167.816C35.0243 167.891 34.9969 167.963 34.9471 168.02C34.8974 168.076 34.8288 168.113 34.7542 168.122C34.6795 168.113 34.6109 168.076 34.5612 168.02C34.5115 167.963 34.484 167.891 34.484 167.816C34.484 167.74 34.5115 167.668 34.5612 167.611C34.6109 167.555 34.6795 167.518 34.7542 167.509Z" fill="#DBDBDB"/>
<path d="M175.512 147.772C175.587 147.781 175.655 147.818 175.705 147.874C175.755 147.931 175.782 148.003 175.782 148.079C175.782 148.154 175.755 148.226 175.705 148.283C175.655 148.339 175.587 148.376 175.512 148.385C175.438 148.376 175.369 148.339 175.319 148.283C175.269 148.226 175.242 148.154 175.242 148.079C175.242 148.003 175.269 147.931 175.319 147.874C175.369 147.818 175.438 147.781 175.512 147.772Z" fill="#DBDBDB"/>
<path d="M162.647 113.762C162.729 113.762 162.807 113.795 162.865 113.852C162.923 113.91 162.956 113.989 162.956 114.071C162.956 114.153 162.923 114.232 162.865 114.289C162.807 114.347 162.729 114.38 162.647 114.38C162.565 114.38 162.486 114.347 162.428 114.289C162.37 114.232 162.338 114.153 162.338 114.071C162.338 113.989 162.37 113.91 162.428 113.852C162.486 113.795 162.565 113.762 162.647 113.762Z" fill="#DBDBDB"/>
<path d="M157.987 166.68C158.045 166.68 158.099 166.703 158.14 166.743C158.18 166.784 158.203 166.839 158.203 166.896C158.203 166.953 158.18 167.008 158.14 167.048C158.099 167.089 158.045 167.112 157.987 167.112C157.93 167.112 157.875 167.089 157.835 167.048C157.794 167.008 157.771 166.953 157.771 166.896C157.771 166.839 157.794 166.784 157.835 166.743C157.875 166.703 157.93 166.68 157.987 166.68Z" fill="#DBDBDB"/>
<path d="M43.2394 32.0039C43.2917 32.0118 43.3394 32.0381 43.3739 32.0782C43.4084 32.1182 43.4273 32.1693 43.4273 32.2222C43.4273 32.275 43.4084 32.3261 43.3739 32.3662C43.3394 32.4062 43.2917 32.4326 43.2394 32.4404C43.1872 32.4326 43.1394 32.4062 43.105 32.3662C43.0705 32.3261 43.0515 32.275 43.0515 32.2222C43.0515 32.1693 43.0705 32.1182 43.105 32.0782C43.1394 32.0381 43.1872 32.0118 43.2394 32.0039Z" fill="#DBDBDB"/>
<path d="M43.7887 169.525C43.841 169.533 43.8887 169.559 43.9232 169.599C43.9577 169.639 43.9766 169.69 43.9766 169.743C43.9766 169.796 43.9577 169.847 43.9232 169.887C43.8887 169.927 43.841 169.954 43.7887 169.961C43.7365 169.954 43.6888 169.927 43.6543 169.887C43.6198 169.847 43.6008 169.796 43.6008 169.743C43.6008 169.69 43.6198 169.639 43.6543 169.599C43.6888 169.559 43.7365 169.533 43.7887 169.525Z" fill="#DBDBDB"/>
<path d="M5.37927 102.339L7.27743 102.687L7.69925 104.688L8.12596 102.687L10.0241 102.334L8.13577 101.873L7.69925 99.9844L7.26762 101.873L5.37927 102.339Z" fill="#DBDBDB"/>
<path d="M185.876 53.4525L187.774 53.8007L188.196 55.8019L188.618 53.8007L190.516 53.4525L188.628 52.9865L188.196 51.0981L187.764 52.9865L185.876 53.4525Z" fill="#DBDBDB"/>
<path d="M105.27 11.5655L106.335 11.7617L106.57 12.88L106.806 11.7617L107.87 11.5655L106.811 11.3104L106.57 10.251L106.33 11.3104L105.27 11.5655Z" fill="#DBDBDB"/>
<path d="M7.69922 48.9156L8.76356 49.1118L8.99899 50.2301L9.23442 49.1118L10.2988 48.9156L9.23933 48.6556L8.99899 47.6011L8.75866 48.6556L7.69922 48.9156Z" fill="#DBDBDB"/>
<path d="M27.181 47.0615C27.2557 47.071 27.3243 47.1073 27.374 47.1638C27.4237 47.2202 27.4512 47.2929 27.4512 47.3681C27.4512 47.4433 27.4237 47.5159 27.374 47.5724C27.3243 47.6288 27.2557 47.6652 27.181 47.6746C27.1064 47.6652 27.0378 47.6288 26.9881 47.5724C26.9383 47.5159 26.9109 47.4433 26.9109 47.3681C26.9109 47.2929 26.9383 47.2202 26.9881 47.1638C27.0378 47.1073 27.1064 47.071 27.181 47.0615Z" fill="#DBDBDB"/>
<path d="M3.80482 157.194C3.87944 157.204 3.94806 157.24 3.99779 157.296C4.04753 157.353 4.07497 157.425 4.07497 157.501C4.07497 157.576 4.04753 157.649 3.99779 157.705C3.94806 157.761 3.87944 157.798 3.80482 157.807C3.73019 157.798 3.66158 157.761 3.61184 157.705C3.56211 157.649 3.53467 157.576 3.53467 157.501C3.53467 157.425 3.56211 157.353 3.61184 157.296C3.66158 157.24 3.73019 157.204 3.80482 157.194Z" fill="#DBDBDB"/>
<path d="M29.0252 146.585C29.1072 146.585 29.1858 146.618 29.2437 146.675C29.3017 146.733 29.3343 146.812 29.3343 146.894C29.3343 146.976 29.3017 147.055 29.2437 147.112C29.1858 147.17 29.1072 147.203 29.0252 147.203C28.9433 147.203 28.8647 147.17 28.8067 147.112C28.7488 147.055 28.7162 146.976 28.7162 146.894C28.7162 146.812 28.7488 146.733 28.8067 146.675C28.8647 146.618 28.9433 146.585 29.0252 146.585Z" fill="#DBDBDB"/>
<path d="M4.09907 68.7554C4.17369 68.7648 4.24231 68.8012 4.29204 68.8576C4.34178 68.9141 4.36922 68.9867 4.36922 69.0619C4.36922 69.1371 4.34178 69.2098 4.29204 69.2662C4.24231 69.3227 4.17369 69.359 4.09907 69.3685C4.02444 69.359 3.95583 69.3227 3.90609 69.2662C3.85636 69.2098 3.82892 69.1371 3.82892 69.0619C3.82892 68.9867 3.85636 68.9141 3.90609 68.8576C3.95583 68.8012 4.02444 68.7648 4.09907 68.7554Z" fill="#DBDBDB"/>
<path d="M69.2839 6.74414C69.3659 6.74414 69.4445 6.7767 69.5024 6.83465C69.5604 6.8926 69.5929 6.97119 69.5929 7.05314C69.5929 7.1351 69.5604 7.21369 69.5024 7.27164C69.4445 7.32959 69.3659 7.36215 69.2839 7.36215C69.202 7.36215 69.1234 7.32959 69.0654 7.27164C69.0075 7.21369 68.9749 7.1351 68.9749 7.05314C68.9749 6.97119 69.0075 6.8926 69.0654 6.83465C69.1234 6.7767 69.202 6.74414 69.2839 6.74414Z" fill="#DBDBDB"/>
<path d="M56.7227 172.703C56.7799 172.703 56.8348 172.726 56.8753 172.766C56.9158 172.807 56.9385 172.861 56.9385 172.919C56.9385 172.976 56.9158 173.031 56.8753 173.071C56.8348 173.112 56.7799 173.135 56.7227 173.135C56.6655 173.135 56.6106 173.112 56.5701 173.071C56.5296 173.031 56.5069 172.976 56.5069 172.919C56.5069 172.861 56.5296 172.807 56.5701 172.766C56.6106 172.726 56.6655 172.703 56.7227 172.703Z" fill="#DBDBDB"/>
<path d="M191.561 100.401L192.625 100.598L192.861 101.716L193.096 100.598L194.155 100.401L193.101 100.146L192.861 99.0869L192.62 100.146L191.561 100.401Z" fill="#DBDBDB"/>
<path d="M133.463 15.2146C133.521 15.2146 133.575 15.2373 133.616 15.2778C133.656 15.3183 133.679 15.3732 133.679 15.4304C133.679 15.4876 133.656 15.5425 133.616 15.583C133.575 15.6235 133.521 15.6462 133.463 15.6462C133.406 15.6462 133.351 15.6235 133.311 15.583C133.27 15.5425 133.247 15.4876 133.247 15.4304C133.247 15.3732 133.27 15.3183 133.311 15.2778C133.351 15.2373 133.406 15.2146 133.463 15.2146Z" fill="#DBDBDB"/>
<path d="M87.2061 192.886C87.2584 192.894 87.3061 192.92 87.3406 192.961C87.375 193.001 87.394 193.052 87.394 193.104C87.394 193.157 87.375 193.208 87.3406 193.249C87.3061 193.289 87.2584 193.315 87.2061 193.323C87.1538 193.315 87.1061 193.289 87.0716 193.249C87.0372 193.208 87.0182 193.157 87.0182 193.104C87.0182 193.052 87.0372 193.001 87.0716 192.961C87.1061 192.92 87.1538 192.894 87.2061 192.886Z" fill="#DBDBDB"/>
<path d="M179.382 62.0164C179.439 62.0164 179.494 62.0391 179.535 62.0796C179.575 62.12 179.598 62.1749 179.598 62.2322C179.598 62.2894 179.575 62.3443 179.535 62.3848C179.494 62.4252 179.439 62.448 179.382 62.448C179.325 62.448 179.27 62.4252 179.23 62.3848C179.189 62.3443 179.166 62.2894 179.166 62.2322C179.166 62.1749 179.189 62.12 179.23 62.0796C179.27 62.0391 179.325 62.0164 179.382 62.0164Z" fill="#DBDBDB"/>
<path d="M143.705 7.14136C143.757 7.14921 143.804 7.17556 143.839 7.21562C143.873 7.25567 143.892 7.30677 143.892 7.35962C143.892 7.41247 143.873 7.46357 143.839 7.50362C143.804 7.54368 143.757 7.57003 143.705 7.57788C143.652 7.57003 143.605 7.54368 143.57 7.50362C143.536 7.46357 143.517 7.41247 143.517 7.35962C143.517 7.30677 143.536 7.25567 143.57 7.21562C143.605 7.17556 143.652 7.14921 143.705 7.14136Z" fill="#DBDBDB"/>
<path d="M127.048 18.7559C127.195 18.7693 127.332 18.8374 127.432 18.9467C127.532 19.0561 127.587 19.1988 127.587 19.3469C127.587 19.495 127.532 19.6377 127.432 19.747C127.332 19.8564 127.195 19.9245 127.048 19.9379C126.9 19.9245 126.763 19.8564 126.663 19.747C126.564 19.6377 126.508 19.495 126.508 19.3469C126.508 19.1988 126.564 19.0561 126.663 18.9467C126.763 18.8374 126.9 18.7693 127.048 18.7559Z" fill="#DBDBDB"/>
<path d="M179.593 78.5945C179.749 78.5945 179.899 78.6565 180.009 78.7669C180.12 78.8773 180.182 79.027 180.182 79.1831C180.182 79.3392 180.12 79.4889 180.009 79.5993C179.899 79.7096 179.749 79.7716 179.593 79.7716C179.437 79.7716 179.287 79.7096 179.177 79.5993C179.066 79.4889 179.004 79.3392 179.004 79.1831C179.004 79.027 179.066 78.8773 179.177 78.7669C179.287 78.6565 179.437 78.5945 179.593 78.5945Z" fill="#DBDBDB"/>
<path d="M21.8103 136.893C21.9664 136.893 22.1161 136.955 22.2265 137.065C22.3369 137.176 22.3989 137.326 22.3989 137.482C22.3989 137.638 22.3369 137.787 22.2265 137.898C22.1161 138.008 21.9664 138.07 21.8103 138.07C21.6542 138.07 21.5045 138.008 21.3941 137.898C21.2838 137.787 21.2217 137.638 21.2217 137.482C21.2217 137.326 21.2838 137.176 21.3941 137.065C21.5045 136.955 21.6542 136.893 21.8103 136.893Z" fill="#DBDBDB"/>
<path d="M51.5383 21.8118L52.5978 22.008L52.8332 23.1263L53.0686 22.008L54.133 21.8118L53.0735 21.5568L52.8332 20.4973L52.5929 21.5568L51.5383 21.8118Z" fill="#DBDBDB"/>
<path d="M143.606 184.068C143.681 184.077 143.75 184.113 143.799 184.17C143.849 184.226 143.877 184.299 143.877 184.374C143.877 184.449 143.849 184.522 143.799 184.578C143.75 184.635 143.681 184.671 143.606 184.681C143.532 184.671 143.463 184.635 143.413 184.578C143.364 184.522 143.336 184.449 143.336 184.374C143.336 184.299 143.364 184.226 143.413 184.17C143.463 184.113 143.532 184.077 143.606 184.068Z" fill="#DBDBDB"/>
<path d="M123.227 181.169C123.302 181.178 123.37 181.215 123.42 181.271C123.47 181.328 123.497 181.4 123.497 181.475C123.497 181.551 123.47 181.623 123.42 181.68C123.37 181.736 123.302 181.773 123.227 181.782C123.152 181.773 123.084 181.736 123.034 181.68C122.984 181.623 122.957 181.551 122.957 181.475C122.957 181.4 122.984 181.328 123.034 181.271C123.084 181.215 123.152 181.178 123.227 181.169Z" fill="#DBDBDB"/>
<path d="M166.134 162.746L167.194 162.942L167.429 164.061L167.669 162.942L168.729 162.746L167.674 162.486L167.429 161.432L167.189 162.486L166.134 162.746Z" fill="#DBDBDB"/>
<path d="M175.807 189.541L176.866 189.737L177.106 190.856L177.342 189.737L178.401 189.536L177.347 189.281L177.106 188.227L176.861 189.281L175.807 189.541Z" fill="#DBDBDB"/>
<path d="M168.729 176.862C168.786 176.862 168.841 176.885 168.881 176.926C168.922 176.966 168.945 177.021 168.945 177.078C168.945 177.135 168.922 177.19 168.881 177.231C168.841 177.271 168.786 177.294 168.729 177.294C168.672 177.294 168.617 177.271 168.576 177.231C168.536 177.19 168.513 177.135 168.513 177.078C168.513 177.021 168.536 176.966 168.576 176.926C168.617 176.885 168.672 176.862 168.729 176.862Z" fill="#DBDBDB"/>
<path d="M15.5714 108.955L16.6308 109.152L16.8662 110.27L17.1017 109.152L18.166 108.955L17.1066 108.695L16.8662 107.641L16.6259 108.695L15.5714 108.955Z" fill="#DBDBDB"/>
<path d="M3.30939 131.714C3.38402 131.723 3.45264 131.759 3.50237 131.816C3.5521 131.872 3.57954 131.945 3.57954 132.02C3.57954 132.095 3.5521 132.168 3.50237 132.224C3.45264 132.281 3.38402 132.317 3.30939 132.327C3.23477 132.317 3.16615 132.281 3.11642 132.224C3.06669 132.168 3.03925 132.095 3.03925 132.02C3.03925 131.945 3.06669 131.872 3.11642 131.816C3.16615 131.759 3.23477 131.723 3.30939 131.714Z" fill="#DBDBDB"/>
<path d="M21.8103 74.1509C21.8626 74.1587 21.9103 74.1851 21.9448 74.2251C21.9793 74.2652 21.9982 74.3163 21.9982 74.3691C21.9982 74.422 21.9793 74.4731 21.9448 74.5131C21.9103 74.5532 21.8626 74.5795 21.8103 74.5874C21.7581 74.5795 21.7104 74.5532 21.6759 74.5131C21.6414 74.4731 21.6224 74.422 21.6224 74.3691C21.6224 74.3163 21.6414 74.2652 21.6759 74.2251C21.7104 74.1851 21.7581 74.1587 21.8103 74.1509Z" fill="#DBDBDB"/>
<path d="M36.0539 14.6213C36.2013 14.6348 36.3384 14.7029 36.4383 14.8122C36.5381 14.9216 36.5935 15.0643 36.5935 15.2124C36.5935 15.3604 36.5381 15.5032 36.4383 15.6125C36.3384 15.7219 36.2013 15.79 36.0539 15.8034C35.9064 15.79 35.7693 15.7219 35.6695 15.6125C35.5696 15.5032 35.5143 15.3604 35.5143 15.2124C35.5143 15.0643 35.5696 14.9216 35.6695 14.8122C35.7693 14.7029 35.9064 14.6348 36.0539 14.6213Z" fill="#DBDBDB"/>
<path d="M3.48594 151.701C6.62992 154.217 11.3876 154.359 11.3876 154.359C11.3876 154.359 14.3305 150.627 14.4335 146.605C14.5119 143.25 12.2852 140.719 9.85729 141.048C6.37487 141.538 8.06703 147.232 8.06703 147.232C8.06703 147.232 4.80534 142.279 2.18127 144.623C0.332155 146.252 0.852064 149.606 3.48594 151.701Z" fill="#EBEBEB"/>
<path d="M186.058 140.523C185.454 144.5 187.671 148.704 187.671 148.704C187.671 148.704 192.38 149.415 195.916 147.502C198.859 145.908 199.977 142.71 198.472 140.773C196.309 137.997 192.213 142.283 192.213 142.283C192.213 142.283 194.896 136.996 191.556 135.878C189.231 135.103 186.582 137.212 186.058 140.523Z" fill="#EBEBEB"/>
<path d="M138.162 7.93606C138.604 10.0696 140.536 11.7765 140.536 11.7765C140.536 11.7765 143.062 11.237 144.489 9.58898C145.681 8.22054 145.637 6.38614 144.489 5.68965C142.866 4.70869 141.605 7.65158 141.605 7.65158C141.605 7.65158 141.958 4.45855 140.05 4.52721C138.731 4.60079 137.794 6.17523 138.162 7.93606Z" fill="#EBEBEB"/>
<path d="M161.47 188.698C167.356 194.48 177.072 195.746 177.072 195.746C177.072 195.746 183.865 188.717 184.885 180.516C185.734 173.679 181.702 168.014 176.665 168.23C169.445 168.539 171.76 180.492 171.76 180.492C171.76 180.492 166.11 169.701 160.263 173.964C156.173 176.936 156.545 183.876 161.47 188.698Z" fill="#EBEBEB"/>
<path d="M187.328 100.146C187.352 118.575 181.512 136.533 170.652 151.421C161.879 163.497 150.155 173.12 136.6 179.37C123.045 185.619 108.113 188.286 93.2329 187.114C78.3528 185.942 64.0223 180.972 51.6123 172.679C39.2024 164.385 29.1283 153.046 22.3538 139.745C15.5793 126.445 12.3311 111.629 12.92 96.7145C13.5089 81.8 17.9152 67.2861 25.7173 54.5614C33.5194 41.8367 44.4562 31.327 57.4814 24.0378C70.5066 16.7485 85.1845 12.9236 100.111 12.929C102.504 12.929 104.873 13.0238 107.218 13.2134C120.731 14.2986 133.801 18.5388 145.377 25.5932C158.188 33.3659 168.779 44.3101 176.128 57.3693C183.476 70.4285 187.334 85.1615 187.328 100.146Z" fill="#7E57C2"/>
<path d="M38.9477 89.3165C38.9477 89.3165 25.7047 92.7499 16.2335 81.9593C15.8411 81.513 16.8025 78.8301 16.258 78.2856C15.7136 77.7412 13.4966 79.2666 13.3152 79.1293C13.1337 78.9919 11.78 76.5003 11.1423 76.4611C10.5047 76.4218 10.333 79.6197 10.23 79.7522C10.127 79.8846 7.70407 78.5113 7.28716 78.7222C6.87025 78.9331 7.9395 82.1114 7.77764 82.2831C7.61578 82.4547 5.77648 82.0918 5.44786 82.4106C5.11923 82.7294 8.64088 86.6778 8.64088 86.6778C8.64088 86.6778 13.5996 104.183 29.1871 110.961C29.192 110.961 46.7757 105.174 38.9477 89.3165Z" fill="#7E57C2"/>
<path d="M38.9477 89.3164C31.2864 91.195 22.6784 89.0467 17.0673 83.4307C16.6848 83.0726 16.3169 82.6557 15.9589 82.283C15.918 82.2406 15.8833 82.1927 15.8559 82.1407C15.7546 81.9475 15.7072 81.7307 15.7185 81.5129C15.7185 80.7919 15.9098 80.1003 15.9736 79.3989C16.0262 79.1334 16.0262 78.8601 15.9736 78.5945C15.9736 78.5945 15.9441 78.5945 15.851 78.5945C15.0711 78.727 14.3795 79.2027 13.6438 79.5117C13.5448 79.5486 13.4404 79.5685 13.3348 79.5706C13.2396 79.5634 13.1477 79.5327 13.0673 79.4814C12.9869 79.43 12.9204 79.3596 12.8737 79.2763C12.8247 79.2076 12.6187 78.8986 12.5696 78.8202C12.1751 78.1431 11.7009 77.5157 11.1571 76.9514C11.1331 76.9384 11.1102 76.9236 11.0884 76.9073C11.138 76.9221 11.1908 76.9221 11.2404 76.9073C11.3483 76.8288 11.2404 76.9073 11.2404 77.0005C10.993 77.9107 10.8288 78.8415 10.75 79.7815C10.73 79.881 10.6881 79.9749 10.6273 80.0562C10.563 80.133 10.4779 80.1896 10.3822 80.2192C10.2865 80.2488 10.1842 80.2501 10.0878 80.2229C9.20985 79.9581 8.27303 79.345 7.44412 79.1929C7.48532 79.1867 7.52514 79.1734 7.56183 79.1537C7.62609 79.1173 7.6762 79.0602 7.70407 78.9918C7.70407 80.0415 8.27303 81.2137 8.30246 82.3271C8.28578 82.4563 8.22489 82.5758 8.13011 82.6652C8.03533 82.7546 7.91253 82.8084 7.78255 82.8176C7.11059 82.8764 6.35525 82.7048 5.78629 82.8176C5.83613 82.776 5.87544 82.7232 5.90101 82.6635C5.92658 82.6039 5.93769 82.539 5.93344 82.4742C6.74273 83.9113 8.00817 85.216 9.08233 86.4913C10.7441 91.6852 13.3149 96.5427 16.675 100.838C20.0132 105.154 24.3105 108.633 29.2264 111.001C26.687 109.966 24.2956 108.601 22.1144 106.939C15.5518 101.902 10.8333 94.6774 8.24851 86.8297L8.3466 87.0063C7.59617 86.1676 6.87516 85.3239 6.15906 84.4411C5.78139 83.8819 5.01134 83.1854 5.00153 82.4203C5.22715 81.4786 6.96345 81.9641 7.63541 81.8808C7.53411 81.9125 7.44949 81.983 7.39998 82.077C7.37287 82.127 7.35618 82.1821 7.35093 82.2388C7.33249 82.0985 7.30629 81.9593 7.27245 81.8219C7.17436 81.0322 6.04134 78.3885 7.38036 78.2512C8.49375 78.3444 9.30304 78.982 10.2693 79.3204C10.1981 79.3115 10.1258 79.3212 10.0596 79.3488C9.99336 79.3763 9.93546 79.4206 9.89162 79.4774C9.8605 79.5149 9.83716 79.5583 9.82295 79.6049C10.0339 78.7564 9.99462 76.0048 11.2159 76.0391C11.7407 76.1078 12.1135 76.613 12.3882 76.9563C12.6628 77.2997 13.0699 77.9373 13.3691 78.3738C13.4133 78.4327 13.5996 78.7466 13.6389 78.7907C13.6781 78.8349 13.6879 78.8545 13.6389 78.7907C13.5898 78.727 13.6732 78.7907 13.4721 78.7123C13.4318 78.7027 13.3898 78.7027 13.3495 78.7123C13.8057 78.5308 14.3746 78.2218 14.8847 78.0109C17.9453 76.7847 16.5916 80.2229 16.5916 81.7042C21.9525 88.1393 30.8155 90.8566 38.9918 89.3312L38.9477 89.3164Z" fill="#263238"/>
<path d="M37.3585 88.571C36.2555 89.4025 34.9092 89.8472 33.5279 89.8365C34.7224 89.1974 36.0184 88.7693 37.3585 88.571Z" fill="#263238"/>
<path d="M24.1303 108.176C25.0573 109.259 25.8617 110.505 26.7593 111.609C26.09 111.273 25.5058 110.789 25.0504 110.194C24.595 109.6 24.2805 108.909 24.1303 108.176Z" fill="#263238"/>
<path opacity="0.3" d="M187.328 100.146C187.353 118.525 181.545 136.437 170.74 151.303L170.676 151.387V151.416C169.718 152.724 168.722 154.011 167.689 155.276L167.586 155.404C167.37 155.669 167.15 155.929 166.934 156.189C166.934 156.189 166.909 156.213 166.904 156.228L166.86 156.282C166.757 156.409 166.649 156.532 166.541 156.655C166.433 156.777 166.291 156.949 166.164 157.091C165.914 157.39 165.673 157.685 165.384 157.979C165.094 158.273 164.864 158.572 164.594 158.862C164.324 159.151 164.064 159.441 163.79 159.73L163.417 160.127L162.976 160.588L162.402 161.201L162.152 161.456C161.661 161.922 161.22 162.383 160.749 162.84C160.278 163.296 159.935 163.619 159.523 164.007L159.317 164.198L159.228 164.277L159.135 164.36L159.071 164.424L158.733 164.733L158.458 164.978C158.257 165.164 158.051 165.341 157.85 165.523L157.796 165.572L157.384 165.93L157.252 166.047L157.129 166.15L157.105 166.175L156.957 166.302C156.624 166.587 156.29 166.871 155.952 167.151L155.741 167.327L155.447 167.568L155.3 167.69L155.113 167.842L154.623 168.225L154.211 168.554L154.029 168.696L153.985 168.73L153.323 169.221L153.274 169.26L152.592 169.824L152.347 170.01L151.817 170.403L151.39 170.717L150.522 171.34H150.498L149.836 171.806L149.733 171.879L149.59 171.972L149.473 172.056L149.247 172.213L148.354 172.811L147.476 173.39L147.27 173.522L146.476 174.013L146.172 174.204L145.461 174.641L144.141 175.43L143.626 175.729L143.4 175.857C143.072 176.048 142.743 176.235 142.42 176.416H142.385C141.924 176.676 141.458 176.907 140.987 177.171L140.531 177.417L140.281 177.544L139.536 177.932L139.433 177.981C147.998 173.075 155.677 166.763 162.147 159.308C163.808 157.398 165.384 155.42 166.875 153.373C177.786 138.393 183.654 120.332 183.63 101.799C183.63 101.608 183.63 101.417 183.63 101.225C183.552 86.2254 179.615 71.4979 172.197 58.4604C171.598 57.4108 170.98 56.3759 170.343 55.3557C168.655 52.6745 166.823 50.0875 164.854 47.6061C158.348 39.3399 150.414 32.3051 141.429 26.8342C129.785 19.7454 116.642 15.4852 103.054 14.3956L102.656 14.3662C100.434 14.1945 98.1782 14.1062 95.9122 14.1062C88.8518 14.101 81.8165 14.9475 74.9588 16.6273C74.9588 16.6273 74.9588 16.6273 74.9343 16.6273H74.8705L75.3905 16.4753L75.7877 16.3576L76.0085 16.2938H76.0428C76.3322 16.2104 76.6167 16.127 76.906 16.0535C76.9586 16.0341 77.0128 16.0194 77.0679 16.0093L77.6712 15.8426L79.1426 15.4698L79.7704 15.3177C79.9764 15.2638 80.1874 15.2147 80.3983 15.1706L81.3792 14.945C82.1542 14.7782 82.934 14.6163 83.7188 14.4545C84.0916 14.3809 84.4643 14.3172 84.8371 14.2485L85.3619 14.1553C85.5385 14.1193 85.7151 14.0899 85.8916 14.067L86.1565 14.0229L86.9069 13.9052L87.5593 13.8071H87.6623H87.8241L88.0694 13.7727L88.6432 13.6893L89.0994 13.6354L90.0362 13.5226H90.0607C90.2765 13.4931 90.4973 13.4686 90.718 13.449H90.767C91.0074 13.4196 91.2575 13.395 91.4831 13.3754H91.5371L92.6161 13.2773L93.2734 13.2234H93.4058L94.0091 13.1841C94.3917 13.1547 94.7743 13.1302 95.1617 13.1106H95.4266L96.4075 13.0615H96.5694H97.1482H98.1978H98.3351H98.8256H100.155C100.753 13.0615 101.352 13.0615 101.945 13.0615C102.436 13.0615 102.902 13.0615 103.377 13.1008H103.971C104.481 13.1204 104.991 13.1449 105.501 13.1743C105.898 13.1743 106.291 13.2234 106.688 13.2577L107.262 13.297L108.307 13.3852H108.38C108.871 13.4294 109.361 13.4833 109.852 13.5373C110.715 13.6305 111.568 13.7384 112.422 13.861C114.129 14.0997 115.819 14.3891 117.493 14.7292C118.332 14.9008 119.161 15.0774 119.99 15.2736C120.48 15.3913 121.015 15.5139 121.52 15.6415L122.683 15.9456L123.301 16.1123C123.668 16.2104 124.041 16.3183 124.409 16.4262C124.649 16.4949 124.9 16.5636 125.12 16.6371C125.774 16.8268 126.428 17.0279 127.082 17.2404C127.842 17.4808 128.598 17.7309 129.348 18.0105C129.77 18.1527 130.187 18.3048 130.599 18.4617C131.089 18.6432 131.58 18.8296 132.07 19.0209C132.852 19.325 133.624 19.6421 134.385 19.9724C135.919 20.6264 137.43 21.3229 138.917 22.0618C139.663 22.4313 140.4 22.8106 141.13 23.1998C141.86 23.5872 142.601 23.9894 143.302 24.3965C144.004 24.8036 144.735 25.2254 145.441 25.6571C145.931 25.9563 146.422 26.2555 146.912 26.5645L147.295 26.8097C147.785 27.1138 148.251 27.4277 148.722 27.7465L148.864 27.8397C149.355 28.183 149.88 28.5313 150.375 28.8844C150.871 29.2376 151.278 29.5221 151.724 29.8654L152.16 30.1842C152.622 30.5226 153.073 30.8709 153.524 31.2191C153.975 31.5674 154.554 32.0235 155.059 32.4355C155.564 32.8475 155.942 33.1565 156.379 33.5244L156.683 33.7794C157.139 34.1718 157.595 34.5642 158.041 34.9615C158.488 35.3588 158.954 35.7757 159.4 36.1926L159.488 36.276C159.949 36.7043 160.405 37.1359 160.857 37.5708C160.905 37.6141 160.951 37.66 160.994 37.7082C161.435 38.13 161.867 38.5616 162.294 38.9932C162.721 39.4249 163.034 39.7486 163.392 40.1311C163.652 40.4058 163.912 40.6805 164.167 40.9601C164.28 41.0729 164.383 41.1906 164.486 41.3034C164.717 41.5486 164.942 41.7939 165.163 42.0538C166.409 43.437 167.606 44.8594 168.753 46.321C170.706 48.7998 172.523 51.3818 174.198 54.0559C178.887 61.552 182.402 69.7215 184.62 78.2807C185.4 78.3396 187.328 92.6126 187.328 100.146Z" fill="white"/>
<path opacity="0.1" d="M167.679 155.296L167.576 155.424C167.36 155.688 167.14 155.948 166.924 156.208C166.924 156.208 166.899 156.233 166.894 156.248C166.649 156.537 166.404 156.826 166.154 157.111C165.904 157.395 165.663 157.704 165.374 157.999C165.085 158.293 164.849 158.592 164.584 158.881C164.319 159.171 164.05 159.465 163.78 159.75L163.407 160.147L162.966 160.608L162.402 161.201L162.152 161.456C161.225 162.388 160.283 163.306 159.317 164.198L159.135 164.36L158.924 164.561L158.733 164.733L158.458 164.978C158.257 165.164 158.051 165.341 157.85 165.523L157.796 165.572L157.384 165.93L157.129 166.15L157.041 166.234L156.957 166.302C156.624 166.587 156.29 166.871 155.952 167.151L155.29 167.7L155.103 167.852L154.613 168.235L154.201 168.563L154.019 168.706L153.313 169.255L153.264 169.294L152.592 169.824L152.347 170.01L151.817 170.403L151.39 170.717L150.596 171.266C150.532 171.305 150.468 171.354 150.409 171.398L150.061 171.644C149.899 171.752 149.737 171.869 149.571 171.977L149.453 172.061L149.227 172.218L148.6 172.644L148.335 172.816L147.457 173.395L147.251 173.527L146.456 174.018L146.152 174.209L145.441 174.645C144.764 175.057 144.077 175.463 143.381 175.862C143.052 176.053 142.719 176.24 142.4 176.421H142.366C141.904 176.681 141.439 176.911 140.968 177.176L140.261 177.549L139.413 177.986C138.628 178.381 137.838 178.765 137.044 179.138C136.318 179.477 135.572 179.805 134.856 180.119L133.763 180.61C133.385 180.772 133.007 180.928 132.625 181.076C132.242 181.223 131.913 181.36 131.555 181.497C131.197 181.635 130.697 181.831 130.26 181.988C129.947 182.111 129.633 182.223 129.319 182.331L129.201 182.375L128.112 182.753C127.288 183.031 126.459 183.298 125.625 183.553C125.297 183.656 124.973 183.754 124.644 183.847L123.472 184.18C123.041 184.303 122.609 184.416 122.172 184.529C121.736 184.641 121.191 184.784 120.701 184.906C120.054 185.063 119.406 185.21 118.739 185.353L118.616 185.377L117.346 185.647H117.292C116.88 185.725 116.468 185.809 116.051 185.882L114.756 186.113C114.241 186.201 113.721 186.285 113.202 186.358C112.853 186.412 112.5 186.466 112.152 186.51C111.715 186.574 111.274 186.628 110.837 186.682L109.611 186.824H109.395C109.072 186.863 108.748 186.893 108.414 186.922L108.052 186.956L107.183 187.03L106.693 187.069C106.354 187.099 106.016 187.118 105.673 187.138C105.329 187.158 105.079 187.177 104.78 187.187C104.481 187.197 104.221 187.221 103.941 187.231C102.676 187.287 101.406 187.315 100.13 187.315C88.089 187.315 74.895 184.092 61.8728 178.486C47.1923 171.324 34.8179 160.184 26.1586 146.334C17.4993 132.484 12.9031 116.481 12.8934 100.146C12.8934 98.7992 12.9244 97.4602 12.9866 96.1293C11.1621 93.1663 9.70449 89.9925 8.64582 86.6777C8.64582 86.6777 5.11926 82.7539 5.45279 82.4106C5.78632 82.0672 7.63543 82.4547 7.78257 82.2831C7.92972 82.1114 6.86047 78.938 7.29209 78.7222C7.72372 78.5064 10.132 79.8846 10.235 79.7522C10.338 79.6197 10.5047 76.4218 11.1473 76.461C11.7898 76.5003 13.1386 79.0066 13.3201 79.1293C13.5016 79.2519 14.8308 78.3396 15.6891 78.1924C20.7204 58.88 32.2162 41.8743 48.2619 30.0076L48.4679 29.8605C52.5514 26.8552 56.889 24.2113 61.4313 21.9588C61.9218 21.7087 62.4466 21.4684 62.9616 21.2182C64.4952 20.4989 66.0549 19.8187 67.6408 19.1778C68.697 18.756 69.7613 18.3522 70.8339 17.9663C72.168 17.4759 73.5168 17.0491 74.8803 16.642C74.8803 16.642 74.8803 16.642 74.9048 16.642L75.3512 16.5047L75.7485 16.387L75.9692 16.3232L76.8668 16.0731C76.9194 16.0538 76.9735 16.039 77.0286 16.0289L77.6319 15.8622L79.1034 15.4894C79.5203 15.3864 79.9372 15.2834 80.359 15.1902C81.8304 14.8469 83.3019 14.5477 84.8027 14.2828C85.151 14.2191 85.5041 14.1553 85.8573 14.1013L86.1221 14.0572C86.6126 13.9738 87.1031 13.9003 87.6279 13.8267H87.7898C88.2116 13.7629 88.6383 13.7041 89.065 13.655L90.0018 13.5422H90.0264C90.2422 13.5128 90.4629 13.4882 90.6836 13.4686H90.7327C90.973 13.4392 91.2231 13.4147 91.4488 13.3951H91.4831L92.5818 13.297L93.239 13.243L93.9747 13.194C94.3573 13.1645 94.7399 13.14 95.1274 13.1204C95.5933 13.091 96.0593 13.0664 96.5301 13.0517C97.1138 13.0517 97.7024 13.0076 98.2959 12.9978C98.8893 12.988 99.4975 12.9978 100.101 12.9978C101.896 12.9978 103.678 13.0501 105.447 13.1547C106.036 13.1891 106.624 13.2332 107.208 13.2773L108.253 13.3656L108.498 13.3951L109.14 13.4637C106.938 13.6992 104.76 14.0278 102.617 14.4447C84.9673 17.8651 68.9856 27.1344 57.2525 40.7559C45.5195 54.3774 38.72 71.556 37.952 89.5176C37.9095 90.6229 37.8866 91.7313 37.8834 92.8431C37.8717 103.345 39.9317 113.747 43.9454 123.452C47.9591 133.157 53.8476 141.975 61.2738 149.401C68.7 156.827 77.518 162.716 87.2231 166.729C96.9281 170.743 107.329 172.803 117.832 172.791C133.607 172.816 149.032 168.149 162.147 159.382C164.043 158.09 165.887 156.728 167.679 155.296Z" fill="black"/>
<g opacity="0.1">
<path opacity="0.1" d="M118.945 141.312C117.846 144.255 119.676 144.368 119.799 145.589C119.921 146.811 119.799 149.131 116.257 152.672C112.716 156.213 106.85 155.482 105.629 156.949C104.407 158.415 102.333 164.645 99.3995 166.719C96.4664 168.794 95.9661 167.578 91.8264 168.431C87.6868 169.284 84.4987 174.66 83.2774 177.225C82.0561 179.791 83.5177 184.092 80.5895 184.19C77.6614 184.288 76.3125 177.961 73.6247 174.538C70.9369 171.114 70.0834 168.063 69.2104 164.036C68.3373 160.009 69.7009 151.573 69.2104 148.277C68.7199 144.981 59.9305 139.115 56.7522 135.083C53.5739 131.052 49.1792 122.988 49.4244 120.3C49.796 117.693 51.0972 115.309 53.0883 113.586C54.5597 112.482 53.9417 111.874 54.187 110.898C54.4322 109.922 55.6584 109.676 55.8987 108.445C56.1391 107.214 55.163 103.54 53.9368 102.947C52.7106 102.354 51.8621 104.418 51.1264 104.046C50.3907 103.673 48.1835 101.103 47.3399 100.867C46.4962 100.632 46.7317 102.457 45.5104 100.137C44.2891 97.8166 43.7054 91.9602 42.7244 90.9842C41.7435 90.0081 41.0127 92.696 38.6927 90.9842C36.3727 89.2724 35.3967 85.9764 34.4157 85.4859C33.4347 84.9954 32.0957 85.6085 31.0902 83.6564C30.0848 81.7043 31.9731 78.1581 31.0902 78.526C30.2074 78.8938 28.3092 81.6994 27.8187 79.0164C27.3283 76.3335 30.2711 67.2891 29.7807 62.4039C29.2902 57.5187 31.002 52.3883 34.4206 48.2339C34.4206 48.2339 34.9111 45.5461 35.4016 43.8196C35.892 42.0931 46.3932 35.2656 47.6145 33.3135C48.105 32.4944 48.2963 31.2142 48.4778 29.836C63.4366 18.8213 81.5341 12.8954 100.111 12.9291C102.504 12.9291 104.873 13.0239 107.218 13.2136C107.296 13.3264 107.38 13.4343 107.463 13.5373C108.522 14.8812 109.66 15.7346 112.755 16.8775C115.85 18.0203 116.581 19.4819 115.934 20.7032C115.286 21.9245 114.222 22.1747 112.991 22.2531C111.76 22.3316 110.627 21.6793 109.327 22.4984C108.027 23.3175 106.717 27.7073 105.011 27.9525C103.304 28.1978 100.287 24.0287 99.6153 22.8221C98.9433 21.6155 101.087 18.9914 100.081 17.7701C99.0758 16.5488 97.3345 16.7892 94.5633 16.5488C91.7921 16.3085 85.3962 17.3679 85.6366 18.4225C85.8769 19.477 95.0832 18.2606 95.3285 20.3844C95.5737 22.5082 88.5697 26.0838 87.3582 25.7552C86.1467 25.4265 84.5085 23.3028 82.7133 23.0673C80.9182 22.8319 79.4565 24.2886 78.3284 24.4505C77.2003 24.6123 75.876 23.2292 74.1642 23.5529C72.4525 23.8766 72.0454 25.3432 71.1478 25.917C70.2502 26.4909 68.1362 26.486 67.891 27.7907C67.6458 29.0953 70.5788 29.8262 71.3244 30.6404C72.0699 31.4545 70.4268 34.2258 71.1576 34.7947C71.8884 35.3637 76.4548 31.3614 77.5927 30.3804C78.7306 29.3994 79.7116 25.1715 82.1542 25.25C84.5968 25.3284 85.411 29.4828 86.2252 29.8899C87.0394 30.297 88.8345 28.909 91.5224 29.4828C94.2102 30.0567 96.0789 35.9179 96.5694 37.7082C97.0599 39.4984 98.1978 41.2936 97.2217 42.0244C96.2457 42.7552 91.8264 41.5339 91.2771 40.396C90.7278 39.2581 94.22 37.5463 93.9649 37.1392C93.7099 36.7321 91.6842 36.1583 90.6248 36.8008C89.5653 37.4433 89.0798 38.7627 87.9369 39.0962C86.7941 39.4298 83.7826 36.0013 82.9684 36.9774C82.1542 37.9534 83.7826 41.0483 84.5968 41.7841C85.411 42.5198 88.4274 42.922 88.6677 43.746C88.9081 44.57 86.6323 46.3504 83.8659 46.1984C81.0996 46.0463 78.8189 43.9177 77.7546 44.8152C76.6902 45.7128 77.2641 48.072 76.5333 48.8862C75.8024 49.7004 71.8099 49.1315 69.8578 51.2454C67.9057 53.3594 67.0081 56.5426 65.0511 58.3329C63.0941 60.1231 62.2014 57.8424 59.597 60.3684C56.9925 62.8943 56.5854 68.5104 56.502 70.4674C56.4187 72.4244 56.502 73.9694 55.8497 73.7242C55.1974 73.4789 54.2998 71.7622 54.0594 70.7126C53.8191 69.663 54.6284 67.858 54.6284 67.2106C54.6284 66.5631 50.8811 63.2181 48.6838 62.8944C46.4864 62.5706 44.5294 64.3658 42.901 65.6607C41.2726 66.9555 38.3395 66.7201 37.285 67.7795C36.2305 68.839 35.4114 78.2023 36.2207 80.4045C37.03 82.6068 38.0992 82.6019 40.7037 81.459C43.3081 80.3162 41.8416 78.1238 43.3915 78.6094C44.0885 78.872 44.6882 79.3418 45.11 79.9557C45.5318 80.5696 45.7554 81.2979 45.7507 82.0427C45.7507 83.3474 42.6607 86.457 43.0629 87.335C43.4651 88.213 46.1578 87.1731 47.4772 87.5802C48.7966 87.9873 49.4391 88.8015 49.0271 92.1417C48.6151 95.4819 48.8603 98.0863 50.8174 99.185C52.7744 100.284 53.8682 97.5959 54.7412 97.9637C55.6143 98.3316 56.8159 100.284 58.0372 100.161C59.2585 100.038 58.6503 98.9398 60.9801 98.1991C63.3099 97.4585 62.4516 96.9729 62.942 95.5113C63.4325 94.0497 64.904 92.8235 66.4882 93.5494C68.0725 94.2753 66.9787 95.3838 67.0964 96.6051C67.2141 97.8264 70.0393 97.949 72.2268 98.6798C74.4144 99.4106 75.6602 98.6798 80.0451 100.151C84.43 101.623 84.685 106.012 86.5194 106.748C88.3538 107.484 94.4603 106.258 98.8599 109.436C103.26 112.614 102.033 118.476 104.231 120.182C106.428 121.889 114.614 124.214 117.792 124.827C120.971 125.44 121.456 123.238 124.022 123.846C126.587 124.455 128.053 125.19 128.926 128.751C129.593 131.846 120.044 138.404 118.945 141.312Z" fill="black"/>
<path opacity="0.1" d="M53.3041 78.8499C53.3875 79.5414 55.423 79.8308 57.8656 81.214C60.3082 82.5971 61.2058 86.6681 62.5105 86.5847C63.8151 86.5014 63.4031 84.6228 63.8936 84.1323C64.3841 83.6419 65.1983 82.5873 63.8936 81.5279C62.5889 80.4684 61.3235 78.1877 58.9447 77.864C56.5658 77.5403 56.1587 76.5593 55.0993 76.6427C54.8274 76.6446 54.5594 76.7066 54.3142 76.8243C54.0691 76.9419 53.8531 77.1123 53.6815 77.3232C53.51 77.5341 53.3872 77.7804 53.322 78.0443C53.2567 78.3082 53.2506 78.5833 53.3041 78.8499Z" fill="black"/>
<path opacity="0.1" d="M66.758 85.692C66.395 86.673 66.758 87.4038 69.3624 88.0512C71.9669 88.6986 74.4144 87.4038 73.6002 86.8741C72.786 86.3443 71.5647 86.5847 72.0503 85.692C72.5358 84.7993 72.374 83.4947 70.26 83.7301C68.146 83.9655 67.067 84.7944 66.758 85.692Z" fill="black"/>
<path opacity="0.1" d="M75.8662 85.9714C74.9735 86.099 74.4781 87.644 75.3757 88.6249C76.2733 89.6059 76.2733 89.4391 77.3376 88.6249C78.402 87.8107 80.0255 87.4036 79.6184 86.5894C79.2113 85.7752 76.7589 85.839 75.8662 85.9714Z" fill="black"/>
<path opacity="0.1" d="M82.9438 89.2969C83.3411 88.0756 85.3962 89.2969 86.284 90.577C87.1718 91.8572 86.7745 93.7554 86.284 95.1385C85.7935 96.5217 85.4698 98.1501 84.3221 97.4977C83.1744 96.8454 84.4055 94.8933 84.2436 93.7554C84.0818 92.6174 82.625 90.2975 82.9438 89.2969Z" fill="black"/>
<path opacity="0.1" d="M118.048 21.3554C117.621 22.3756 119.597 22.7386 120.735 23.3909C121.873 24.0433 122.771 24.4504 123.423 23.3909C124.076 22.3315 123.178 21.1102 122.285 20.8649C121.393 20.6197 118.455 20.3794 118.048 21.3554Z" fill="black"/>
<path opacity="0.1" d="M133.463 30.8857C134.219 31.6754 135.499 31.5332 136.406 32.676C137.314 33.8188 136.975 35.7709 138.118 36.3399C139.261 36.9089 140.08 36.3399 140.154 35.5257C140.227 34.7115 138.525 32.676 138.682 32.2689C138.839 31.8618 141.046 32.8379 141.532 34.0592C142.017 35.2805 141.041 37.002 142.184 37.3159C143.327 37.6299 143.082 36.178 143.567 35.8445C144.053 35.511 145.117 35.6826 145.039 34.7066C144.96 33.7305 143.656 31.6117 142.586 30.8808C141.517 30.15 140.713 29.3309 138.922 28.9189C137.132 28.5069 135.42 28.8404 134.508 29.5713C133.596 30.3021 132.973 30.3953 133.463 30.8857Z" fill="black"/>
<path opacity="0.1" d="M168.675 46.2328C168.623 46.563 168.461 46.8657 168.214 47.0911C166.507 48.3124 164.467 44.0747 162.107 43.2654C159.748 42.4561 158.674 39.4347 158.184 40.0871C157.693 40.7394 157.855 41.6321 157.124 42.6915C156.393 43.751 155.334 43.5057 154.843 45.5412C154.353 47.5767 157.124 51.324 156.472 52.5453C155.819 53.7666 155 53.3595 153.705 53.281C152.411 53.2025 152.646 54.3355 150.939 53.85C149.232 53.3644 150.689 51.2406 147.996 48.7195C145.304 46.1985 144.416 45.708 144.99 44.5652C145.564 43.4223 144.74 41.7988 145.971 41.6223C147.202 41.4457 148.178 43.2507 148.997 43.7412C149.816 44.2316 150.871 42.7602 150.959 41.4604C151.047 40.1606 148.109 38.3655 147.035 37.3551C145.961 36.3447 145.897 32.6661 146.304 31.9304C146.711 31.1947 147.933 31.4399 148.266 29.6546C148.457 28.6 146.795 26.8392 145.382 25.5688C154.318 31.0105 162.207 38.009 168.675 46.2328Z" fill="black"/>
<path opacity="0.1" d="M187.328 100.146C187.355 118.525 181.547 136.438 170.74 151.303C170.74 151.343 170.686 151.377 170.656 151.416V151.387C175.458 144.03 178.014 135.309 179.372 128.741C180.022 125.605 180.5 122.435 180.805 119.246C181.045 116.636 179.745 116.474 181.045 111.673C181.609 109.279 181.461 106.773 180.618 104.463C180.202 103.096 179.548 101.814 178.686 100.676C177.705 99.6166 175.591 99.9453 173.879 101C172.167 102.054 173.388 102.873 172.251 103.281C171.113 103.688 169.97 103.035 168.915 103.119C167.861 103.202 166.875 105.89 164.599 105.807C162.765 105.738 161.46 103.619 160.126 101.588C159.802 101.098 159.474 100.607 159.145 100.146C157.438 97.8264 153.931 96.3598 152.793 93.5102C151.655 90.6605 153.853 86.2608 153.362 82.9207C152.872 79.5805 150.674 80.3162 150.267 78.4426C149.86 76.569 150.596 77.4616 151.165 75.6714C151.734 73.8811 150.512 72.9051 151.655 69.8101C152.798 66.7152 154.829 65.1702 154.343 63.787C153.858 62.4039 152.308 60.1182 152.224 58.4947C152.141 56.8713 153.769 56.9448 156.864 54.6641C159.959 52.3834 160.788 52.5452 163.137 53.3594C164.831 53.9886 166.573 54.4807 168.346 54.8309C169.71 55.0712 171.544 58.5389 172.148 58.4996H172.211C172.78 58.3378 172.864 57.2784 173.109 55.7333C173.261 55.0583 173.615 54.4458 174.124 53.9774C178.814 61.4736 182.328 69.643 184.547 78.2022C186.867 83.6024 187.328 98.7975 187.328 100.146Z" fill="black"/>
</g>
<path d="M51.8814 89.8424C52.5924 86.5457 48.1156 82.7834 41.8823 81.4391C35.649 80.0949 30.0195 81.6776 29.3086 84.9744C28.5976 88.2711 33.0743 92.0334 39.3077 93.3776C45.541 94.7219 51.1705 93.1391 51.8814 89.8424Z" fill="#FF9CBD"/>
<path d="M72.2366 49.3819C67.5648 49.1875 62.9449 50.4229 58.9937 52.9232C57.6213 53.7999 56.3266 54.7927 55.1238 55.8906C56.3058 48.6462 66.5569 44.6095 72.2366 49.3819Z" fill="#263238"/>
<path d="M127.985 49.3817C133.664 44.6192 143.915 48.646 145.098 55.8904C143.895 54.7925 142.6 53.7997 141.228 52.923C137.276 50.4227 132.656 49.1873 127.985 49.3817Z" fill="#263238"/>
<path d="M122.81 75.1711C123.928 68.7311 129.049 62.1587 136.215 63.1053C143.18 64.2825 146.025 72.4244 147.084 78.4966L146.682 77.9178C147.674 78.3178 148.763 78.4168 149.811 78.2023C150.712 78.0628 151.599 77.8412 152.46 77.5402C152.754 77.4372 153.043 77.3292 153.347 77.236C153.107 77.4371 152.857 77.6333 152.612 77.8295C150.728 79.1685 148.197 80.2378 145.882 79.3353L145.568 79.1833L145.475 78.7516C144.313 73.6605 141.738 66.0531 135.916 64.9789C129.564 64.0323 124.968 69.8445 122.795 75.1711H122.81Z" fill="#263238"/>
<path d="M145.652 75.4506C148.595 75.2642 151.621 74.4696 154.024 72.699C152.351 74.3262 150.325 75.5463 148.104 76.2648C147.355 76.5279 146.59 76.7442 145.814 76.9122L145.652 75.4408V75.4506Z" fill="#263238"/>
<path d="M79.8244 75.1711C77.6564 69.8494 73.0557 64.0274 66.704 64.9789C60.8967 66.0531 58.3217 73.6408 57.1593 78.7516L57.071 79.1833L56.7522 79.3353C54.133 80.3163 51.2735 78.9184 49.287 77.236C51.352 77.9325 53.7308 78.786 55.8595 77.9718C55.9036 77.9718 55.9772 77.908 55.9527 77.9178L55.5505 78.4966C56.6197 72.3999 59.4743 64.2726 66.4195 63.1053C73.5805 62.1587 78.711 68.7311 79.8244 75.1711Z" fill="#263238"/>
<path d="M56.8208 76.9122C53.7847 76.2206 50.8124 74.9503 48.6102 72.699C51.0135 74.4696 54.0545 75.2642 56.9827 75.4506L56.8208 76.922V76.9122Z" fill="#263238"/>
<path d="M113.869 68.0298C113.79 68.4761 112.431 75.181 107.89 80.228C106.611 81.7735 104.877 82.877 102.936 83.3818C99.2081 84.2205 95.9955 82.5872 93.4597 80.0073C90.3402 76.8388 88.2459 72.243 87.4905 69.0696C87.4905 69.0696 93.8668 75.642 101.92 74.5532C109.665 73.5085 113.643 68.4908 113.869 68.0298Z" fill="#263238"/>
<path d="M107.89 80.2282C106.611 81.7737 104.877 82.8772 102.936 83.382C99.2081 84.2207 95.9955 82.5874 93.4597 80.0075C95.4756 77.4766 98.4038 75.8188 101.798 76.2749C103.037 76.4584 104.223 76.9064 105.274 77.5885C106.325 78.2706 107.217 79.1709 107.89 80.2282Z" fill="#FF9CBD"/>
<path d="M161.274 89.3165C161.274 89.3165 174.517 92.7499 183.988 81.9593C184.38 81.513 183.419 78.8301 183.963 78.2856C184.508 77.7412 186.725 79.2666 186.906 79.1293C187.088 78.9919 188.441 76.5003 189.079 76.4611C189.717 76.4218 189.888 79.6197 189.991 79.7522C190.094 79.8846 192.517 78.5113 192.934 78.7222C193.351 78.9331 192.282 82.1114 192.444 82.2831C192.605 82.4547 194.445 82.0918 194.773 82.4106C195.102 82.7294 191.58 86.6778 191.58 86.6778C191.58 86.6778 186.622 104.183 171.034 110.961C171.029 110.961 153.446 105.174 161.274 89.3165Z" fill="#7E57C2"/>
<path d="M161.274 89.3166C169.445 90.842 178.313 88.1248 183.674 81.6897C183.674 80.2182 182.325 76.7603 185.381 77.9963C185.837 78.1778 186.592 78.5604 186.886 78.6928H186.793C186.592 78.7664 186.656 78.7615 186.626 78.7713C186.597 78.7811 186.626 78.7713 186.626 78.7713C187.22 77.9767 188.834 74.6513 189.839 76.6328C190.138 77.5899 190.332 78.5767 190.418 79.5757C190.404 79.529 190.38 79.4857 190.349 79.4482C190.276 79.3206 190.016 79.2765 190.05 79.2863H189.976C190.957 78.9479 191.752 78.3053 192.865 78.2171C194.273 78.3201 192.949 81.3218 192.9 82.1409V82.1899C192.884 82.0837 192.834 81.9855 192.758 81.9104C192.716 81.8749 192.667 81.8482 192.615 81.8319C193.277 81.9202 195.014 81.4248 195.249 82.3714C195.249 83.1366 194.464 83.8429 194.092 84.3922C193.385 85.2751 192.654 86.1187 191.904 86.9574L192.002 86.7808C189.412 94.6285 184.699 101.848 178.136 106.891C175.955 108.552 173.564 109.917 171.024 110.952C175.94 108.584 180.237 105.105 183.576 100.789C186.935 96.4934 189.506 91.636 191.168 86.4424C192.242 85.1672 193.508 83.8625 194.317 82.4254C194.313 82.4901 194.324 82.555 194.35 82.6147C194.375 82.6743 194.415 82.7271 194.464 82.7687C193.891 82.6706 193.14 82.8423 192.468 82.7687C192.338 82.7587 192.216 82.7046 192.122 82.6153C192.027 82.5261 191.966 82.4071 191.948 82.2782C191.978 81.1648 192.527 79.9877 192.547 78.943C192.568 78.9966 192.603 79.0436 192.649 79.079C192.695 79.1143 192.749 79.1368 192.807 79.1441C191.978 79.2961 191.041 79.9092 190.163 80.1741C190.066 80.2012 189.964 80.1999 189.868 80.1703C189.773 80.1407 189.688 80.0841 189.623 80.0073C189.563 79.926 189.521 79.8322 189.501 79.7326C189.422 78.7926 189.258 77.8617 189.01 76.9516C188.986 76.8584 188.883 76.7799 189.01 76.8584C189.06 76.8733 189.113 76.8733 189.162 76.8584C188.947 77.0155 188.759 77.2078 188.608 77.4274C188.118 78.0061 187.691 78.8449 187.254 79.3893C187.2 79.4236 187.254 79.4531 187.009 79.5315C186.933 79.5464 186.855 79.5464 186.779 79.5315C185.945 79.2716 185.238 78.6928 184.4 78.5506C184.307 78.5506 184.248 78.5506 184.277 78.5506C184.235 79.0872 184.268 79.627 184.375 80.1545C184.434 80.8362 184.689 81.3807 184.375 82.0869C184.326 82.1661 184.266 82.2386 184.199 82.3028L183.762 82.7687C178.166 88.8163 169.224 91.2246 161.283 89.2676L161.274 89.3166Z" fill="#263238"/>
<path d="M162.863 88.571C164.203 88.7693 165.499 89.1974 166.693 89.8365C165.312 89.8472 163.966 89.4025 162.863 88.571Z" fill="#263238"/>
<path d="M176.091 108.176C175.941 108.909 175.626 109.6 175.171 110.194C174.716 110.789 174.131 111.273 173.462 111.609C174.36 110.515 175.164 109.274 176.091 108.176Z" fill="#263238"/>
<path d="M160.909 93.3836C167.143 92.0393 171.62 88.2771 170.909 84.9803C170.198 81.6836 164.568 80.1008 158.335 81.4451C152.101 82.7894 147.625 86.5517 148.336 89.8484C149.047 93.1451 154.676 94.7279 160.909 93.3836Z" fill="#FF9CBD"/>
<path d="M154.167 163.202L155.201 160.461L156.231 163.202L158.973 164.232L156.231 165.267L155.201 170.27L154.167 165.267L151.425 164.232L154.167 163.202Z" fill="#7E57C2"/>
<path d="M22.1095 62.2223L23.1395 59.4805L24.1744 62.2223L26.9113 63.2572L24.1744 64.2872L23.1395 69.2901L22.1095 64.2872L19.3677 63.2572L22.1095 62.2223Z" fill="#7E57C2"/>
<path d="M176.047 93.314L177.082 90.5771L178.112 93.314L180.854 94.3489L178.112 95.3789L177.082 100.387L176.047 95.3789L173.31 94.3489L176.047 93.314Z" fill="#7E57C2"/>
<path d="M117.689 29.4878L118.656 26.9226L119.617 29.4878L122.182 30.4492L119.617 31.4154L118.656 34.6133L117.689 31.4154L115.124 30.4492L117.689 29.4878Z" fill="#7E57C2"/>
<path d="M156.54 65.6803L157.109 64.1794L157.673 65.6803L159.174 66.2493L157.673 66.8133L157.109 68.687L156.54 66.8133L155.04 66.2493L156.54 65.6803Z" fill="#7E57C2"/>
<path d="M52.2691 162.81L52.8332 161.304L53.3972 162.81L54.903 163.374L53.3972 163.943L52.8332 165.817L52.2691 163.943L50.7634 163.374L52.2691 162.81Z" fill="#7E57C2"/>
<path d="M34.916 96.8947L35.4849 95.3938L36.049 96.8947L37.5548 97.4636L36.049 98.0277L35.4849 99.9013L34.916 98.0277L33.4151 97.4636L34.916 96.8947Z" fill="#7E57C2"/>
<path d="M154.632 152.024L155.201 150.523L155.765 152.024L157.271 152.588L155.765 153.157L155.201 155.031L154.632 153.157L153.132 152.588L154.632 152.024Z" fill="#7E57C2"/>
<path d="M28.1081 143.073L29.0744 140.513L30.0406 143.073L32.6009 144.039L30.0406 145.006L29.0744 148.204L28.1081 145.006L25.5429 144.039L28.1081 143.073Z" fill="#7E57C2"/>
<g opacity="0.8">
<path opacity="0.8" d="M154.167 163.202L155.201 160.461L156.231 163.202L158.973 164.232L156.231 165.267L155.201 170.27L154.167 165.267L151.425 164.232L154.167 163.202Z" fill="white"/>
<path opacity="0.8" d="M22.1095 62.2223L23.1395 59.4805L24.1744 62.2223L26.9113 63.2572L24.1744 64.2872L23.1395 69.2901L22.1095 64.2872L19.3677 63.2572L22.1095 62.2223Z" fill="white"/>
<path opacity="0.8" d="M176.047 93.314L177.082 90.5771L178.112 93.314L180.854 94.3489L178.112 95.3789L177.082 100.387L176.047 95.3789L173.31 94.3489L176.047 93.314Z" fill="white"/>
<path opacity="0.8" d="M117.689 29.4878L118.656 26.9226L119.617 29.4878L122.182 30.4492L119.617 31.4154L118.656 34.6133L117.689 31.4154L115.124 30.4492L117.689 29.4878Z" fill="white"/>
<path opacity="0.8" d="M156.54 65.6803L157.109 64.1794L157.673 65.6803L159.174 66.2493L157.673 66.8133L157.109 68.687L156.54 66.8133L155.04 66.2493L156.54 65.6803Z" fill="white"/>
<path opacity="0.8" d="M52.2691 162.81L52.8332 161.304L53.3972 162.81L54.903 163.374L53.3972 163.943L52.8332 165.817L52.2691 163.943L50.7634 163.374L52.2691 162.81Z" fill="white"/>
<path opacity="0.8" d="M34.916 96.8947L35.4849 95.3938L36.049 96.8947L37.5548 97.4636L36.049 98.0277L35.4849 99.9013L34.916 98.0277L33.4151 97.4636L34.916 96.8947Z" fill="white"/>
<path opacity="0.8" d="M154.632 152.024L155.201 150.523L155.765 152.024L157.271 152.588L155.765 153.157L155.201 155.031L154.632 153.157L153.132 152.588L154.632 152.024Z" fill="white"/>
<path opacity="0.8" d="M28.1081 143.073L29.0744 140.513L30.0406 143.073L32.6009 144.039L30.0406 145.006L29.0744 148.204L28.1081 145.006L25.5429 144.039L28.1081 143.073Z" fill="white"/>
</g>
<path d="M41.7434 176.328C41.0519 176.195 40.6791 175.033 40.4829 174.484C39.8306 172.649 39.7962 171.962 39.7178 170.03C39.6705 169.008 39.7545 167.985 39.9679 166.984C40.1679 166.177 40.317 165.358 40.4142 164.532C39.9918 166.516 39.4163 168.464 38.6927 170.359C38.3339 171.167 37.9244 171.952 37.4665 172.708C37.1014 173.393 36.6533 174.031 36.1323 174.606C35.892 174.851 35.274 175.528 34.9454 175.097C34.4941 174.523 34.7492 173.527 34.8767 172.904C35.0259 172.031 35.2949 171.183 35.6762 170.383C36.1042 169.629 36.5965 168.914 37.1476 168.245C37.9962 166.999 38.9286 165.812 39.9385 164.694C38.6835 165.693 37.3735 166.622 36.0146 167.475C34.5432 168.411 32.9393 169.363 31.1883 169.692C30.7273 169.775 30.2073 169.79 30.0504 169.24C29.8836 168.612 30.4526 167.994 30.845 167.582C31.3453 167.002 31.9191 166.489 32.5518 166.057C33.292 165.653 34.0917 165.37 34.9209 165.218C36.4659 164.86 38.0403 164.62 39.5804 164.237C37.9815 164.267 36.3629 164.076 34.7639 164.12C33.1649 164.164 31.566 164.169 30.1828 163.34C29.7659 163.095 28.9811 162.57 28.9615 162.02C28.9419 161.471 29.9425 161.402 30.3202 161.363C32.1202 161.177 33.7535 161.667 35.4359 162.197C37.1182 162.727 38.8006 163.124 40.3407 163.874C40.285 163.806 40.2341 163.734 40.1886 163.659C39.4186 163.374 38.7613 162.879 38.0158 162.526C37.1624 162.119 36.2304 161.908 35.3868 161.486C34.0183 160.813 32.846 159.8 31.9829 158.543C31.7376 158.185 31.2717 157.341 31.7376 156.968C32.2036 156.596 33.0914 156.968 33.5181 157.145C34.9895 157.694 36.2697 158.827 37.3635 159.941C38.169 160.773 38.9225 161.655 39.6197 162.58C39.1684 161.746 38.7319 160.897 38.3444 160.034C37.6381 158.474 37.0986 156.767 37.285 155.036C37.3487 154.428 38.0452 151.563 39.0949 152.853C39.548 153.558 39.858 154.344 40.0071 155.168C40.2437 156.095 40.398 157.04 40.4682 157.994C40.6202 159.808 40.5957 161.638 40.6055 163.458C40.6644 163.364 40.7282 163.276 40.7919 163.188C41.1614 161.449 41.6297 159.733 42.1947 158.048C42.6715 156.543 43.5704 155.206 44.7844 154.197C45.1621 153.893 45.8929 153.182 46.4324 153.476C46.972 153.771 46.7954 154.56 46.7267 154.987C46.4619 156.674 45.3092 158.013 44.2743 159.293L42.435 161.54C41.9445 162.153 41.3413 162.756 40.8753 163.413C40.841 163.526 40.8017 163.639 40.7674 163.757L40.7968 163.727C40.8086 163.719 40.8222 163.713 40.8365 163.71C40.8509 163.708 40.8656 163.708 40.8797 163.712C40.8938 163.716 40.9069 163.723 40.918 163.732C40.9291 163.741 40.938 163.753 40.944 163.767C41.302 163.34 41.6601 162.913 42.023 162.501C42.9004 161.369 43.9266 160.361 45.0738 159.504C45.7661 159.009 46.5153 158.599 47.3055 158.283C48.1043 157.931 48.945 157.684 49.8069 157.547C50.371 157.479 51.1362 157.523 51.4942 158.038C51.8523 158.553 51.5236 159.235 51.1558 159.656C50.6701 160.149 50.0777 160.523 49.4244 160.75C48.5366 161.113 47.6341 161.442 46.7365 161.785L41.0715 163.958L41.1549 163.987C43.0414 163.583 44.9698 163.407 46.8984 163.462C48.5659 163.473 50.2104 163.852 51.7149 164.571C52.1416 164.797 52.9853 165.199 52.843 165.807C52.7008 166.415 51.7247 166.592 51.1705 166.636C49.4685 166.763 47.639 166.248 46.0155 165.792C44.392 165.336 42.7146 164.723 41.0813 164.139L41.1451 164.228C41.9445 164.718 42.6999 165.297 43.4454 165.846C44.3602 166.464 45.235 167.139 46.0646 167.867C47.3447 169.088 48.1687 170.707 48.9094 172.281C49.1252 172.742 49.341 173.542 48.5562 173.542C47.7715 173.542 47.0014 173.002 46.403 172.561C45.0498 171.551 43.9569 170.232 43.2149 168.715C42.4792 167.244 41.9102 165.665 40.9194 164.34L40.7429 164.198C41.1745 165.179 41.4688 166.283 41.8072 167.313C42.18 168.441 42.3565 168.784 42.6459 169.937C43.1553 171.629 43.196 173.427 42.7636 175.141C42.6459 175.621 42.4056 176.45 41.7434 176.328Z" fill="#7E57C2"/>
<path opacity="0.8" d="M41.7434 176.328C41.0519 176.195 40.6791 175.033 40.4829 174.484C39.8306 172.649 39.7962 171.962 39.7178 170.03C39.6705 169.008 39.7545 167.985 39.9679 166.984C40.1679 166.177 40.317 165.358 40.4142 164.532C39.9918 166.516 39.4163 168.464 38.6927 170.359C38.3339 171.167 37.9244 171.952 37.4665 172.708C37.1014 173.393 36.6533 174.031 36.1323 174.606C35.892 174.851 35.274 175.528 34.9454 175.097C34.4941 174.523 34.7492 173.527 34.8767 172.904C35.0259 172.031 35.2949 171.183 35.6762 170.383C36.1042 169.629 36.5965 168.914 37.1476 168.245C37.9962 166.999 38.9286 165.812 39.9385 164.694C38.6835 165.693 37.3735 166.622 36.0146 167.475C34.5432 168.411 32.9393 169.363 31.1883 169.692C30.7273 169.775 30.2073 169.79 30.0504 169.24C29.8836 168.612 30.4526 167.994 30.845 167.582C31.3453 167.002 31.9191 166.489 32.5518 166.057C33.292 165.653 34.0917 165.37 34.9209 165.218C36.4659 164.86 38.0403 164.62 39.5804 164.237C37.9815 164.267 36.3629 164.076 34.7639 164.12C33.1649 164.164 31.566 164.169 30.1828 163.34C29.7659 163.095 28.9811 162.57 28.9615 162.02C28.9419 161.471 29.9425 161.402 30.3202 161.363C32.1202 161.177 33.7535 161.667 35.4359 162.197C37.1182 162.727 38.8006 163.124 40.3407 163.874C40.285 163.806 40.2341 163.734 40.1886 163.659C39.4186 163.374 38.7613 162.879 38.0158 162.526C37.1624 162.119 36.2304 161.908 35.3868 161.486C34.0183 160.813 32.846 159.8 31.9829 158.543C31.7376 158.185 31.2717 157.341 31.7376 156.968C32.2036 156.596 33.0914 156.968 33.5181 157.145C34.9895 157.694 36.2697 158.827 37.3635 159.941C38.169 160.773 38.9225 161.655 39.6197 162.58C39.1684 161.746 38.7319 160.897 38.3444 160.034C37.6381 158.474 37.0986 156.767 37.285 155.036C37.3487 154.428 38.0452 151.563 39.0949 152.853C39.548 153.558 39.858 154.344 40.0071 155.168C40.2437 156.095 40.398 157.04 40.4682 157.994C40.6202 159.808 40.5957 161.638 40.6055 163.458C40.6644 163.364 40.7282 163.276 40.7919 163.188C41.1614 161.449 41.6297 159.733 42.1947 158.048C42.6715 156.543 43.5704 155.206 44.7844 154.197C45.1621 153.893 45.8929 153.182 46.4324 153.476C46.972 153.771 46.7954 154.56 46.7267 154.987C46.4619 156.674 45.3092 158.013 44.2743 159.293L42.435 161.54C41.9445 162.153 41.3413 162.756 40.8753 163.413C40.841 163.526 40.8017 163.639 40.7674 163.757L40.7968 163.727C40.8086 163.719 40.8222 163.713 40.8365 163.71C40.8509 163.708 40.8656 163.708 40.8797 163.712C40.8938 163.716 40.9069 163.723 40.918 163.732C40.9291 163.741 40.938 163.753 40.944 163.767C41.302 163.34 41.6601 162.913 42.023 162.501C42.9004 161.369 43.9266 160.361 45.0738 159.504C45.7661 159.009 46.5153 158.599 47.3055 158.283C48.1043 157.931 48.945 157.684 49.8069 157.547C50.371 157.479 51.1362 157.523 51.4942 158.038C51.8523 158.553 51.5236 159.235 51.1558 159.656C50.6701 160.149 50.0777 160.523 49.4244 160.75C48.5366 161.113 47.6341 161.442 46.7365 161.785L41.0715 163.958L41.1549 163.987C43.0414 163.583 44.9698 163.407 46.8984 163.462C48.5659 163.473 50.2104 163.852 51.7149 164.571C52.1416 164.797 52.9853 165.199 52.843 165.807C52.7008 166.415 51.7247 166.592 51.1705 166.636C49.4685 166.763 47.639 166.248 46.0155 165.792C44.392 165.336 42.7146 164.723 41.0813 164.139L41.1451 164.228C41.9445 164.718 42.6999 165.297 43.4454 165.846C44.3602 166.464 45.235 167.139 46.0646 167.867C47.3447 169.088 48.1687 170.707 48.9094 172.281C49.1252 172.742 49.341 173.542 48.5562 173.542C47.7715 173.542 47.0014 173.002 46.403 172.561C45.0498 171.551 43.9569 170.232 43.2149 168.715C42.4792 167.244 41.9102 165.665 40.9194 164.34L40.7429 164.198C41.1745 165.179 41.4688 166.283 41.8072 167.313C42.18 168.441 42.3565 168.784 42.6459 169.937C43.1553 171.629 43.196 173.427 42.7636 175.141C42.6459 175.621 42.4056 176.45 41.7434 176.328Z" fill="white"/>
<path d="M42.234 163.909C42.2174 163.486 42.0365 163.086 41.7298 162.793C41.423 162.501 41.0145 162.34 40.5909 162.344C40.3661 162.338 40.1426 162.381 39.9365 162.471C39.7304 162.561 39.5467 162.695 39.3986 162.864C39.2505 163.034 39.1416 163.233 39.0798 163.45C39.018 163.666 39.0047 163.893 39.0409 164.115C39.0957 164.517 39.3008 164.883 39.6148 165.14C39.9289 165.397 40.3286 165.525 40.7334 165.499C41.1382 165.473 41.5181 165.294 41.7966 164.999C42.075 164.704 42.2313 164.315 42.234 163.909Z" fill="#7E57C2"/>
<path d="M181.614 134.328C181.123 133.837 181.516 132.655 181.682 132.096C182.227 130.228 182.605 129.644 183.674 128.04C184.238 127.186 184.909 126.408 185.67 125.725C186.304 125.191 186.903 124.617 187.465 124.008C185.96 125.368 184.349 126.606 182.649 127.711C181.883 128.153 181.09 128.546 180.275 128.889C179.581 129.232 178.846 129.486 178.087 129.644C177.744 129.698 176.846 129.884 176.822 129.359C176.792 128.633 177.582 127.976 178.053 127.545C178.687 126.926 179.403 126.398 180.182 125.975C180.973 125.613 181.793 125.32 182.634 125.097C184.053 124.588 185.505 124.176 186.98 123.866C185.383 123.937 183.783 123.922 182.188 123.822C180.432 123.704 178.588 123.542 176.979 122.777C176.557 122.576 176.116 122.287 176.322 121.747C176.557 121.139 177.381 120.977 177.94 120.869C178.686 120.695 179.451 120.617 180.216 120.639C181.052 120.745 181.865 120.985 182.624 121.35C184.096 121.973 185.503 122.699 186.975 123.312C185.66 122.39 184.464 121.291 183.144 120.369C181.825 119.447 180.53 118.53 179.892 117.048C179.701 116.607 179.377 115.714 179.681 115.263C179.985 114.812 180.824 115.327 181.153 115.528C182.722 116.435 183.743 117.784 184.802 119.211C185.901 120.549 186.901 121.965 187.794 123.449C187.786 123.363 187.786 123.276 187.794 123.189C187.338 122.507 187.097 121.718 186.705 120.992C186.249 120.163 185.621 119.447 185.185 118.608C184.474 117.261 184.12 115.755 184.155 114.233C184.155 113.796 184.292 112.84 184.885 112.815C185.479 112.791 185.964 113.625 186.219 114.002C187.107 115.322 187.46 116.98 187.691 118.525C187.857 119.662 187.95 120.809 187.97 121.958C188.093 121.016 188.24 120.075 188.431 119.148C188.78 117.47 189.349 115.773 190.511 114.483C190.918 114.032 193.165 112.119 193.263 113.782C193.215 114.618 193.001 115.437 192.635 116.19C192.283 117.092 191.849 117.961 191.34 118.785C190.398 120.344 189.305 121.811 188.245 123.287C188.343 123.248 188.446 123.214 188.554 123.179C189.873 121.988 191.26 120.874 192.708 119.844C193.977 118.906 195.489 118.352 197.064 118.25C197.554 118.221 198.56 118.078 198.825 118.633C199.09 119.187 198.477 119.721 198.172 120.03C196.966 121.237 195.23 121.644 193.645 122.066L190.85 122.792C190.08 122.993 189.251 123.13 188.485 123.385C188.392 123.459 188.294 123.528 188.191 123.601H188.235C188.25 123.601 188.265 123.604 188.278 123.61C188.291 123.616 188.303 123.625 188.313 123.636C188.322 123.648 188.329 123.661 188.332 123.675C188.336 123.69 188.336 123.704 188.333 123.719C188.873 123.586 189.408 123.449 189.947 123.326C191.324 122.928 192.747 122.715 194.18 122.694C195.031 122.7 195.877 122.81 196.701 123.022C197.552 123.205 198.377 123.497 199.153 123.891C199.644 124.17 200.242 124.656 200.228 125.283C200.213 125.911 199.546 126.264 199.001 126.397C198.318 126.51 197.619 126.465 196.956 126.264C196.024 126.039 195.102 125.774 194.175 125.524L188.314 123.954L188.363 124.028C190.127 124.805 191.791 125.793 193.317 126.971C194.661 127.958 195.77 129.231 196.564 130.698C196.775 131.13 197.226 131.954 196.755 132.361C196.284 132.768 195.387 132.337 194.916 132.047C193.444 131.15 192.282 129.663 191.237 128.334C190.192 127.005 189.192 125.529 188.216 124.097V124.209C188.574 125.077 188.843 125.99 189.128 126.868C189.504 127.905 189.814 128.965 190.055 130.041C190.379 131.782 190.089 133.582 189.761 135.294C189.663 135.785 189.368 136.569 188.736 136.108C188.103 135.647 187.794 134.76 187.568 134.053C187.076 132.425 186.982 130.703 187.294 129.031C187.563 127.402 188.024 125.794 188.005 124.126L187.946 123.905C187.71 124.974 187.313 126.019 186.965 127.054C186.602 128.182 186.543 128.565 186.102 129.668C185.523 131.334 184.507 132.813 183.159 133.95C182.762 134.289 182.085 134.823 181.614 134.328Z" fill="#7E57C2"/>
<path opacity="0.8" d="M181.614 134.328C181.123 133.837 181.516 132.655 181.682 132.096C182.227 130.228 182.605 129.644 183.674 128.04C184.238 127.186 184.909 126.408 185.67 125.725C186.304 125.191 186.903 124.617 187.465 124.008C185.96 125.368 184.349 126.606 182.649 127.711C181.883 128.153 181.09 128.546 180.275 128.889C179.581 129.232 178.846 129.486 178.087 129.644C177.744 129.698 176.846 129.884 176.822 129.359C176.792 128.633 177.582 127.976 178.053 127.545C178.687 126.926 179.403 126.398 180.182 125.975C180.973 125.613 181.793 125.32 182.634 125.097C184.053 124.588 185.505 124.176 186.98 123.866C185.383 123.937 183.783 123.922 182.188 123.822C180.432 123.704 178.588 123.542 176.979 122.777C176.557 122.576 176.116 122.287 176.322 121.747C176.557 121.139 177.381 120.977 177.94 120.869C178.686 120.695 179.451 120.617 180.216 120.639C181.052 120.745 181.865 120.985 182.624 121.35C184.096 121.973 185.503 122.699 186.975 123.312C185.66 122.39 184.464 121.291 183.144 120.369C181.825 119.447 180.53 118.53 179.892 117.048C179.701 116.607 179.377 115.714 179.681 115.263C179.985 114.812 180.824 115.327 181.153 115.528C182.722 116.435 183.743 117.784 184.802 119.211C185.901 120.549 186.901 121.965 187.794 123.449C187.786 123.363 187.786 123.276 187.794 123.189C187.338 122.507 187.097 121.718 186.705 120.992C186.249 120.163 185.621 119.447 185.185 118.608C184.474 117.261 184.12 115.755 184.155 114.233C184.155 113.796 184.292 112.84 184.885 112.815C185.479 112.791 185.964 113.625 186.219 114.002C187.107 115.322 187.46 116.98 187.691 118.525C187.857 119.662 187.95 120.809 187.97 121.958C188.093 121.016 188.24 120.075 188.431 119.148C188.78 117.47 189.349 115.773 190.511 114.483C190.918 114.032 193.165 112.119 193.263 113.782C193.215 114.618 193.001 115.437 192.635 116.19C192.283 117.092 191.849 117.961 191.34 118.785C190.398 120.344 189.305 121.811 188.245 123.287C188.343 123.248 188.446 123.214 188.554 123.179C189.873 121.988 191.26 120.874 192.708 119.844C193.977 118.906 195.489 118.352 197.064 118.25C197.554 118.221 198.56 118.078 198.825 118.633C199.09 119.187 198.477 119.721 198.172 120.03C196.966 121.237 195.23 121.644 193.645 122.066L190.85 122.792C190.08 122.993 189.251 123.13 188.485 123.385C188.392 123.459 188.294 123.528 188.191 123.601H188.235C188.25 123.601 188.265 123.604 188.278 123.61C188.291 123.616 188.303 123.625 188.313 123.636C188.322 123.648 188.329 123.661 188.332 123.675C188.336 123.69 188.336 123.704 188.333 123.719C188.873 123.586 189.408 123.449 189.947 123.326C191.324 122.928 192.747 122.715 194.18 122.694C195.031 122.7 195.877 122.81 196.701 123.022C197.552 123.205 198.377 123.497 199.153 123.891C199.644 124.17 200.242 124.656 200.228 125.283C200.213 125.911 199.546 126.264 199.001 126.397C198.318 126.51 197.619 126.465 196.956 126.264C196.024 126.039 195.102 125.774 194.175 125.524L188.314 123.954L188.363 124.028C190.127 124.805 191.791 125.793 193.317 126.971C194.661 127.958 195.77 129.231 196.564 130.698C196.775 131.13 197.226 131.954 196.755 132.361C196.284 132.768 195.387 132.337 194.916 132.047C193.444 131.15 192.282 129.663 191.237 128.334C190.192 127.005 189.192 125.529 188.216 124.097V124.209C188.574 125.077 188.843 125.99 189.128 126.868C189.504 127.905 189.814 128.965 190.055 130.041C190.379 131.782 190.089 133.582 189.761 135.294C189.663 135.785 189.368 136.569 188.736 136.108C188.103 135.647 187.794 134.76 187.568 134.053C187.076 132.425 186.982 130.703 187.294 129.031C187.563 127.402 188.024 125.794 188.005 124.126L187.946 123.905C187.71 124.974 187.313 126.019 186.965 127.054C186.602 128.182 186.543 128.565 186.102 129.668C185.523 131.334 184.507 132.813 183.159 133.95C182.762 134.289 182.085 134.823 181.614 134.328Z" fill="white"/>
<path d="M189.295 124.577C189.527 124.224 189.615 123.794 189.538 123.378C189.461 122.962 189.226 122.592 188.883 122.345C188.705 122.208 188.499 122.111 188.279 122.063C188.059 122.014 187.832 122.015 187.612 122.064C187.393 122.114 187.187 122.212 187.01 122.35C186.833 122.489 186.689 122.665 186.587 122.865C186.406 123.222 186.365 123.634 186.471 124.02C186.577 124.406 186.824 124.739 187.162 124.953C187.501 125.167 187.907 125.247 188.301 125.177C188.696 125.108 189.05 124.894 189.295 124.577Z" fill="#7E57C2"/>
<path d="M32.0025 141.195C31.9191 140.753 32.5322 140.263 32.8118 140.017C33.5381 139.374 34.3804 138.874 35.2936 138.546C35.8943 138.284 36.5254 138.098 37.1722 137.992C37.6993 137.926 38.2219 137.828 38.7368 137.697C37.4536 137.902 36.1565 138.007 34.8571 138.011C34.2914 137.983 33.728 137.921 33.1699 137.825C32.6774 137.768 32.1944 137.648 31.7327 137.467C31.5267 137.379 30.9774 137.168 31.1491 136.873C31.3845 136.471 32.0417 136.383 32.4439 136.324C33.0008 136.214 33.57 136.179 34.1361 136.221C34.6832 136.302 35.2228 136.426 35.7498 136.594C36.6903 136.813 37.6147 137.096 38.5161 137.442C37.6324 136.925 36.7762 136.362 35.9509 135.755C34.9928 135.123 34.1611 134.318 33.4985 133.381C33.3415 133.126 33.2091 132.807 33.4985 132.596C33.7879 132.386 34.3372 132.552 34.6756 132.69C35.1381 132.853 35.5768 133.078 35.9803 133.357C36.3947 133.702 36.7493 134.113 37.0299 134.573C37.5989 135.417 38.109 136.3 38.6927 137.133C38.3052 136.182 38.0452 135.171 37.6528 134.23C37.2605 133.288 36.8828 132.327 37.0545 131.311C37.1035 131.007 37.2408 130.414 37.5449 130.276C37.849 130.139 38.1384 130.708 38.2512 130.934C38.7064 131.957 38.9404 133.065 38.9379 134.186C39.0645 135.288 39.1104 136.397 39.0752 137.506C39.1021 137.456 39.1333 137.409 39.1684 137.364C39.1684 136.839 39.3009 136.329 39.3401 135.804C39.3842 135.201 39.296 134.598 39.3401 133.994C39.4274 133.021 39.7653 132.086 40.3211 131.282C40.478 131.051 40.8753 130.581 41.2039 130.791C41.5325 131.002 41.5031 131.606 41.5129 131.895C41.4688 132.921 41.201 133.926 40.7282 134.838C40.4194 135.513 40.0688 136.168 39.6785 136.8C40.0709 136.339 40.478 135.883 40.9047 135.451C41.641 134.621 42.5859 134.003 43.6416 133.661C44.0193 133.558 45.8929 133.313 45.3681 134.24C45.0502 134.671 44.6522 135.037 44.1959 135.319C43.6953 135.672 43.1653 135.983 42.6116 136.246C41.562 136.736 40.4633 137.168 39.3793 137.594L39.5853 137.644C40.7089 137.46 41.8422 137.342 42.9795 137.29C43.9887 137.227 44.995 137.455 45.8782 137.948C46.148 138.1 46.7414 138.374 46.6924 138.767C46.6434 139.159 46.1283 139.257 45.8586 139.292C44.7893 139.522 43.7201 139.144 42.7146 138.801L40.944 138.227C40.4535 138.065 39.963 137.854 39.4725 137.737H39.242C39.2501 137.742 39.2567 137.749 39.2613 137.758C39.2659 137.766 39.2683 137.776 39.2683 137.786C39.2683 137.795 39.2659 137.805 39.2613 137.814C39.2567 137.822 39.2501 137.829 39.242 137.835L40.223 138.183C41.1018 138.448 41.9413 138.829 42.7195 139.316C43.1748 139.615 43.593 139.968 43.9653 140.366C44.3607 140.762 44.7036 141.207 44.9855 141.69C45.1129 141.845 45.1975 142.031 45.231 142.229C45.2646 142.426 45.2459 142.63 45.1768 142.818C45.0442 142.955 44.871 143.046 44.6828 143.077C44.4947 143.108 44.3016 143.077 44.1321 142.99C43.7244 142.814 43.3634 142.545 43.0776 142.205C42.6557 141.759 42.2486 141.298 41.8366 140.841L39.2273 137.957V138.016C39.9085 139.048 40.4604 140.16 40.8704 141.327C41.2493 142.326 41.4034 143.396 41.3216 144.461C41.2873 144.765 41.2432 145.364 40.8312 145.442C40.4192 145.521 40.1052 144.952 39.9532 144.633C39.5388 143.588 39.305 142.48 39.2616 141.356C39.1537 140.248 39.1341 139.139 39.1096 138.026L39.0703 138.085C38.9575 138.678 38.7908 139.262 38.6338 139.836C38.4769 140.525 38.277 141.203 38.0354 141.867C37.5466 142.889 36.8731 143.811 36.049 144.589C35.8234 144.824 35.3917 145.138 35.2152 144.672C35.0907 144.17 35.1197 143.642 35.2985 143.157C35.6008 142.11 36.149 141.152 36.8975 140.361C37.6616 139.631 38.3577 138.833 38.9771 137.977L39.0213 137.835C38.5308 138.325 37.9471 138.747 37.4076 139.189C36.8681 139.63 36.6572 139.856 36.0343 140.297C35.1408 140.991 34.0768 141.432 32.954 141.572C32.6352 141.572 32.081 141.626 32.0025 141.195Z" fill="#7E57C2"/>
<path opacity="0.8" d="M32.0025 141.195C31.9191 140.753 32.5322 140.263 32.8118 140.017C33.5381 139.374 34.3804 138.874 35.2936 138.546C35.8943 138.284 36.5254 138.098 37.1722 137.992C37.6993 137.926 38.2219 137.828 38.7368 137.697C37.4536 137.902 36.1565 138.007 34.8571 138.011C34.2914 137.983 33.728 137.921 33.1699 137.825C32.6774 137.768 32.1944 137.648 31.7327 137.467C31.5267 137.379 30.9774 137.168 31.1491 136.873C31.3845 136.471 32.0417 136.383 32.4439 136.324C33.0008 136.214 33.57 136.179 34.1361 136.221C34.6832 136.302 35.2228 136.426 35.7498 136.594C36.6903 136.813 37.6147 137.096 38.5161 137.442C37.6324 136.925 36.7762 136.362 35.9509 135.755C34.9928 135.123 34.1611 134.318 33.4985 133.381C33.3415 133.126 33.2091 132.807 33.4985 132.596C33.7879 132.386 34.3372 132.552 34.6756 132.69C35.1381 132.853 35.5768 133.078 35.9803 133.357C36.3947 133.702 36.7493 134.113 37.0299 134.573C37.5989 135.417 38.109 136.3 38.6927 137.133C38.3052 136.182 38.0452 135.171 37.6528 134.23C37.2605 133.288 36.8828 132.327 37.0545 131.311C37.1035 131.007 37.2408 130.414 37.5449 130.276C37.849 130.139 38.1384 130.708 38.2512 130.934C38.7064 131.957 38.9404 133.065 38.9379 134.186C39.0645 135.288 39.1104 136.397 39.0752 137.506C39.1021 137.456 39.1333 137.409 39.1684 137.364C39.1684 136.839 39.3009 136.329 39.3401 135.804C39.3842 135.201 39.296 134.598 39.3401 133.994C39.4274 133.021 39.7653 132.086 40.3211 131.282C40.478 131.051 40.8753 130.581 41.2039 130.791C41.5325 131.002 41.5031 131.606 41.5129 131.895C41.4688 132.921 41.201 133.926 40.7282 134.838C40.4194 135.513 40.0688 136.168 39.6785 136.8C40.0709 136.339 40.478 135.883 40.9047 135.451C41.641 134.621 42.5859 134.003 43.6416 133.661C44.0193 133.558 45.8929 133.313 45.3681 134.24C45.0502 134.671 44.6522 135.037 44.1959 135.319C43.6953 135.672 43.1653 135.983 42.6116 136.246C41.562 136.736 40.4633 137.168 39.3793 137.594L39.5853 137.644C40.7089 137.46 41.8422 137.342 42.9795 137.29C43.9887 137.227 44.995 137.455 45.8782 137.948C46.148 138.1 46.7414 138.374 46.6924 138.767C46.6434 139.159 46.1283 139.257 45.8586 139.292C44.7893 139.522 43.7201 139.144 42.7146 138.801L40.944 138.227C40.4535 138.065 39.963 137.854 39.4725 137.737H39.242C39.2501 137.742 39.2567 137.749 39.2613 137.758C39.2659 137.766 39.2683 137.776 39.2683 137.786C39.2683 137.795 39.2659 137.805 39.2613 137.814C39.2567 137.822 39.2501 137.829 39.242 137.835L40.223 138.183C41.1018 138.448 41.9413 138.829 42.7195 139.316C43.1748 139.615 43.593 139.968 43.9653 140.366C44.3607 140.762 44.7036 141.207 44.9855 141.69C45.1129 141.845 45.1975 142.031 45.231 142.229C45.2646 142.426 45.2459 142.63 45.1768 142.818C45.0442 142.955 44.871 143.046 44.6828 143.077C44.4947 143.108 44.3016 143.077 44.1321 142.99C43.7244 142.814 43.3634 142.545 43.0776 142.205C42.6557 141.759 42.2486 141.298 41.8366 140.841L39.2273 137.957V138.016C39.9085 139.048 40.4604 140.16 40.8704 141.327C41.2493 142.326 41.4034 143.396 41.3216 144.461C41.2873 144.765 41.2432 145.364 40.8312 145.442C40.4192 145.521 40.1052 144.952 39.9532 144.633C39.5388 143.588 39.305 142.48 39.2616 141.356C39.1537 140.248 39.1341 139.139 39.1096 138.026L39.0703 138.085C38.9575 138.678 38.7908 139.262 38.6338 139.836C38.4769 140.525 38.277 141.203 38.0354 141.867C37.5466 142.889 36.8731 143.811 36.049 144.589C35.8234 144.824 35.3917 145.138 35.2152 144.672C35.0907 144.17 35.1197 143.642 35.2985 143.157C35.6008 142.11 36.149 141.152 36.8975 140.361C37.6616 139.631 38.3577 138.833 38.9771 137.977L39.0213 137.835C38.5308 138.325 37.9471 138.747 37.4076 139.189C36.8681 139.63 36.6572 139.856 36.0343 140.297C35.1408 140.991 34.0768 141.432 32.954 141.572C32.6352 141.572 32.081 141.626 32.0025 141.195Z" fill="white"/>
<path d="M39.5216 138.615C39.7704 138.507 39.9673 138.306 40.0708 138.055C40.1742 137.804 40.176 137.523 40.0758 137.271C40.0275 137.136 39.95 137.013 39.849 136.911C39.7479 136.809 39.6257 136.73 39.491 136.681C39.3563 136.631 39.2124 136.612 39.0693 136.624C38.9263 136.636 38.7877 136.679 38.6632 136.751C38.4374 136.878 38.2678 137.085 38.1887 137.332C38.1095 137.578 38.1266 137.846 38.2365 138.08C38.3414 138.317 38.5332 138.504 38.7723 138.604C39.0115 138.703 39.2797 138.707 39.5216 138.615Z" fill="#7E57C2"/>
<path d="M181.319 67.8434C181.591 67.8269 181.845 67.7056 182.028 67.5051C182.211 67.3046 182.309 67.0406 182.3 66.7692C182.303 66.6241 182.273 66.4803 182.213 66.3481C182.153 66.2159 182.065 66.0986 181.954 66.0048C181.843 65.911 181.713 65.8429 181.573 65.8054C181.432 65.768 181.286 65.7621 181.143 65.7883C180.888 65.8318 180.658 65.9698 180.5 66.1748C180.342 66.3798 180.267 66.6368 180.29 66.8946C180.313 67.1524 180.432 67.3922 180.624 67.5662C180.815 67.7402 181.066 67.8356 181.324 67.8336L181.319 67.8434Z" fill="#7E57C2"/>
<path d="M147.776 44.3885C147.937 43.4076 149.576 42.8435 150.346 42.5492C152.916 41.5683 153.887 41.4947 156.619 41.3181C158.062 41.217 159.513 41.301 160.935 41.5683C162.08 41.8253 163.24 42.0104 164.408 42.1225C161.632 41.48 158.748 40.9404 156.114 39.881C154.959 39.3961 153.835 38.8408 152.749 38.2183C151.767 37.7307 150.851 37.121 150.022 36.4035C149.669 36.0651 148.683 35.2116 149.257 34.7359C150.051 34.0786 151.469 34.4023 152.361 34.5642C153.601 34.7487 154.809 35.1018 155.952 35.6138C157.029 36.1828 158.057 36.839 159.027 37.5757C160.815 38.7366 162.522 40.0164 164.138 41.4064C162.685 39.673 161.328 37.8621 160.072 35.9817C158.699 33.9069 157.301 31.69 156.781 29.2229C156.643 28.5754 156.604 27.8201 157.379 27.5994C158.257 27.3443 159.15 28.1291 159.753 28.6686C160.591 29.3548 161.333 30.1498 161.96 31.0327C162.562 32.0623 162.99 33.1843 163.226 34.3533C163.785 36.531 164.177 38.7676 164.771 40.9159C164.682 38.6499 164.893 36.3593 164.771 34.0982C164.648 31.8371 164.594 29.5711 165.717 27.5896C166.051 26.9912 166.772 25.8631 167.547 25.814C168.415 25.7699 168.449 27.1579 168.528 27.7171C168.856 30.2578 168.214 32.5679 167.517 34.9811C166.85 37.306 166.321 39.7731 165.315 41.9852C165.406 41.9027 165.505 41.8288 165.609 41.7644C165.987 40.6658 166.664 39.7142 167.145 38.6499C167.689 37.4286 167.959 36.1043 168.523 34.8928C169.43 32.9405 170.822 31.2522 172.564 29.988C173.055 29.63 174.247 28.9433 174.786 29.5907C175.277 30.1646 174.786 31.5085 174.595 32.1167C173.869 34.2405 172.309 36.0405 170.769 37.6444C169.62 38.812 168.399 39.9078 167.115 40.9257C168.278 40.2587 169.465 39.6161 170.671 39.0325C172.854 37.9828 175.252 37.1686 177.705 37.3697C178.563 37.4384 182.644 38.3507 180.854 39.8614C180.02 40.5775 178.646 40.9257 177.607 41.2249C176.304 41.5911 174.971 41.8406 173.624 41.9704C171.064 42.2451 168.474 42.2745 165.904 42.353C166.036 42.4315 166.164 42.5149 166.291 42.6032C168.763 43.0685 171.206 43.6744 173.609 44.4179C175.753 45.0411 177.672 46.2689 179.137 47.9543C179.588 48.4742 180.608 49.4895 180.216 50.2596C179.868 50.9462 178.695 50.804 178.092 50.75C175.694 50.4312 173.756 48.8421 171.917 47.405L168.675 44.879C167.787 44.1874 166.924 43.3732 165.977 42.7356L165.487 42.5884L165.526 42.6277C165.539 42.644 165.549 42.6631 165.554 42.6836C165.559 42.7041 165.559 42.7254 165.555 42.7461C165.551 42.7667 165.542 42.7862 165.529 42.803C165.517 42.8199 165.501 42.8337 165.482 42.8435C166.097 43.3307 166.705 43.8212 167.306 44.3149C168.933 45.5233 170.393 46.9417 171.647 48.5331C172.37 49.4973 172.974 50.5445 173.447 51.6525C173.971 52.7701 174.348 53.9504 174.57 55.1644C174.683 55.9589 174.649 57.0429 173.928 57.5677C173.207 58.0925 172.236 57.6511 171.628 57.1459C170.912 56.4757 170.363 55.6477 170.024 54.7278C169.474 53.4869 168.979 52.2166 168.464 50.961C167.375 48.3124 166.288 45.6654 165.202 43.0201C165.191 43.0616 165.178 43.1026 165.163 43.1427C165.803 45.7955 166.116 48.5166 166.095 51.2454C166.066 53.5556 165.727 56.008 164.687 58.1122C164.383 58.7204 163.844 59.9269 162.976 59.7504C162.019 59.5542 161.833 58.1906 161.754 57.4108C161.519 55.0074 162.181 52.403 162.774 50.0879C163.368 47.7728 164.177 45.3842 164.952 43.0544L164.825 43.1525C164.158 44.2953 163.353 45.3793 162.613 46.4583C161.772 47.7728 160.846 49.0311 159.841 50.2252C158.159 52.0793 155.888 53.3005 153.676 54.3992C153.033 54.718 151.905 55.0467 151.886 53.9431C151.866 52.8395 152.597 51.7261 153.195 50.8629C154.6 48.9163 156.45 47.3339 158.591 46.2474C160.651 45.1586 162.858 44.2855 164.702 42.8533C164.766 42.765 164.834 42.6816 164.898 42.5983C163.495 43.2408 161.955 43.692 160.528 44.207C158.939 44.7662 158.468 45.031 156.844 45.4774C154.157 46.2082 152.214 46.4191 149.487 45.8207C148.806 45.6491 147.623 45.345 147.776 44.3885Z" fill="#7E57C2"/>
<path opacity="0.8" d="M147.776 44.3885C147.937 43.4076 149.576 42.8435 150.346 42.5492C152.916 41.5683 153.887 41.4947 156.619 41.3181C158.062 41.217 159.513 41.301 160.935 41.5683C162.08 41.8253 163.24 42.0104 164.408 42.1225C161.632 41.48 158.748 40.9404 156.114 39.881C154.959 39.3961 153.835 38.8408 152.749 38.2183C151.767 37.7307 150.851 37.121 150.022 36.4035C149.669 36.0651 148.683 35.2116 149.257 34.7359C150.051 34.0786 151.469 34.4023 152.361 34.5642C153.601 34.7487 154.809 35.1018 155.952 35.6138C157.029 36.1828 158.057 36.839 159.027 37.5757C160.815 38.7366 162.522 40.0164 164.138 41.4064C162.685 39.673 161.328 37.8621 160.072 35.9817C158.699 33.9069 157.301 31.69 156.781 29.2229C156.643 28.5754 156.604 27.8201 157.379 27.5994C158.257 27.3443 159.15 28.1291 159.753 28.6686C160.591 29.3548 161.333 30.1498 161.96 31.0327C162.562 32.0623 162.99 33.1843 163.226 34.3533C163.785 36.531 164.177 38.7676 164.771 40.9159C164.682 38.6499 164.893 36.3593 164.771 34.0982C164.648 31.8371 164.594 29.5711 165.717 27.5896C166.051 26.9912 166.772 25.8631 167.547 25.814C168.415 25.7699 168.449 27.1579 168.528 27.7171C168.856 30.2578 168.214 32.5679 167.517 34.9811C166.85 37.306 166.321 39.7731 165.315 41.9852C165.406 41.9027 165.505 41.8288 165.609 41.7644C165.987 40.6658 166.664 39.7142 167.145 38.6499C167.689 37.4286 167.959 36.1043 168.523 34.8928C169.43 32.9405 170.822 31.2522 172.564 29.988C173.055 29.63 174.247 28.9433 174.786 29.5907C175.277 30.1646 174.786 31.5085 174.595 32.1167C173.869 34.2405 172.309 36.0405 170.769 37.6444C169.62 38.812 168.399 39.9078 167.115 40.9257C168.278 40.2587 169.465 39.6161 170.671 39.0325C172.854 37.9828 175.252 37.1686 177.705 37.3697C178.563 37.4384 182.644 38.3507 180.854 39.8614C180.02 40.5775 178.646 40.9257 177.607 41.2249C176.304 41.5911 174.971 41.8406 173.624 41.9704C171.064 42.2451 168.474 42.2745 165.904 42.353C166.036 42.4315 166.164 42.5149 166.291 42.6032C168.763 43.0685 171.206 43.6744 173.609 44.4179C175.753 45.0411 177.672 46.2689 179.137 47.9543C179.588 48.4742 180.608 49.4895 180.216 50.2596C179.868 50.9462 178.695 50.804 178.092 50.75C175.694 50.4312 173.756 48.8421 171.917 47.405L168.675 44.879C167.787 44.1874 166.924 43.3732 165.977 42.7356L165.487 42.5884L165.526 42.6277C165.539 42.644 165.549 42.6631 165.554 42.6836C165.559 42.7041 165.559 42.7254 165.555 42.7461C165.551 42.7667 165.542 42.7862 165.529 42.803C165.517 42.8199 165.501 42.8337 165.482 42.8435C166.097 43.3307 166.705 43.8212 167.306 44.3149C168.933 45.5233 170.393 46.9417 171.647 48.5331C172.37 49.4973 172.974 50.5445 173.447 51.6525C173.971 52.7701 174.348 53.9504 174.57 55.1644C174.683 55.9589 174.649 57.0429 173.928 57.5677C173.207 58.0925 172.236 57.6511 171.628 57.1459C170.912 56.4757 170.363 55.6477 170.024 54.7278C169.474 53.4869 168.979 52.2166 168.464 50.961C167.375 48.3124 166.288 45.6654 165.202 43.0201C165.191 43.0616 165.178 43.1026 165.163 43.1427C165.803 45.7955 166.116 48.5166 166.095 51.2454C166.066 53.5556 165.727 56.008 164.687 58.1122C164.383 58.7204 163.844 59.9269 162.976 59.7504C162.019 59.5542 161.833 58.1906 161.754 57.4108C161.519 55.0074 162.181 52.403 162.774 50.0879C163.368 47.7728 164.177 45.3842 164.952 43.0544L164.825 43.1525C164.158 44.2953 163.353 45.3793 162.613 46.4583C161.772 47.7728 160.846 49.0311 159.841 50.2252C158.159 52.0793 155.888 53.3005 153.676 54.3992C153.033 54.718 151.905 55.0467 151.886 53.9431C151.866 52.8395 152.597 51.7261 153.195 50.8629C154.6 48.9163 156.45 47.3339 158.591 46.2474C160.651 45.1586 162.858 44.2855 164.702 42.8533C164.766 42.765 164.834 42.6816 164.898 42.5983C163.495 43.2408 161.955 43.692 160.528 44.207C158.939 44.7662 158.468 45.031 156.844 45.4774C154.157 46.2082 152.214 46.4191 149.487 45.8207C148.806 45.6491 147.623 45.345 147.776 44.3885Z" fill="white"/>
<path d="M165.345 44.6629C166.61 44.6875 167.527 43.4122 167.498 42.289C167.501 41.9706 167.433 41.6554 167.3 41.3661C167.167 41.0767 166.972 40.8204 166.728 40.6156C166.484 40.4107 166.198 40.2623 165.89 40.181C165.582 40.0998 165.26 40.0877 164.947 40.1456C163.574 40.2878 163.034 41.6171 163.074 42.598C163.116 43.1674 163.375 43.6988 163.798 44.0829C164.22 44.467 164.774 44.6746 165.345 44.6629Z" fill="#7E57C2"/>
<path d="M4.49635 129.752C4.05492 128.869 5.04079 127.442 5.47731 126.755C6.97819 124.44 7.72371 123.812 9.82788 122.066C10.9348 121.134 12.1582 120.349 13.4672 119.731C14.5433 119.264 15.59 118.732 16.6014 118.137C13.9921 119.275 11.3337 120.511 8.58696 121.198C7.36896 121.488 6.13373 121.701 4.88874 121.835C3.80648 122.017 2.7057 122.061 1.61233 121.968C1.12185 121.909 -0.168116 121.796 0.0182663 121.07C0.273316 120.089 1.60742 119.501 2.42653 119.108C3.5337 118.529 4.71542 118.105 5.93837 117.848C7.14836 117.676 8.37078 117.607 9.59244 117.642C11.7175 117.526 13.848 117.557 15.9687 117.735C13.775 117.183 11.6122 116.515 9.48944 115.734C7.15476 114.861 4.72688 113.895 2.84834 112.202C2.35786 111.761 1.86738 111.172 2.35786 110.54C2.92191 109.814 4.10397 109.922 4.90836 110.005C5.98996 110.07 7.05843 110.276 8.08667 110.618C9.17975 111.105 10.1855 111.768 11.0639 112.58C12.7953 114.012 14.4139 115.577 16.1698 116.994C14.767 115.214 13.5899 113.237 12.1675 111.477C10.7451 109.716 9.36682 107.916 9.10687 105.655C9.02839 104.978 8.94501 103.639 9.5434 103.143C10.1418 102.648 11.0639 103.698 11.4514 104.124C13.2073 105.988 14.046 108.234 14.8847 110.594C15.7087 112.87 16.7338 115.175 17.2194 117.559C17.2472 117.438 17.285 117.32 17.3322 117.205C16.9889 116.092 16.9791 114.925 16.7387 113.772C16.4592 112.462 15.9 111.231 15.645 109.917C15.2283 107.803 15.36 105.618 16.0275 103.57C16.2237 102.986 16.7731 101.736 17.5873 101.942C18.3181 102.123 18.7301 103.482 18.9214 104.1C19.5835 106.243 19.4119 108.632 19.0783 110.819C18.8355 112.44 18.4915 114.044 18.0483 115.621C18.5977 114.4 19.1764 113.169 19.8141 112.001C20.9618 109.868 22.4234 107.798 24.5276 106.518C25.2633 106.071 29.0841 104.389 28.5397 106.68C28.2847 107.749 27.3822 108.843 26.7151 109.696C25.8753 110.757 24.943 111.742 23.9292 112.639C22.0212 114.365 19.9416 115.91 17.9061 117.49C18.063 117.49 18.2151 117.465 18.3966 117.465C20.6687 116.388 23.0007 115.441 25.381 114.63C27.4817 113.87 29.7575 113.734 31.9338 114.238C32.6009 114.395 34.0282 114.611 34.1655 115.469C34.2832 116.229 33.2532 116.803 32.6941 117.093C30.5654 118.245 28.0639 118.074 25.7293 118.02L21.6239 117.882C20.5007 117.843 19.3187 117.696 18.1906 117.735L17.7001 117.907H17.754C17.7748 117.912 17.7941 117.921 17.8105 117.935C17.8269 117.948 17.8399 117.966 17.8484 117.985C17.857 118.005 17.8609 118.026 17.8598 118.047C17.8588 118.069 17.8528 118.089 17.8423 118.108C18.6271 118.142 19.4119 118.177 20.1917 118.226C22.219 118.247 24.2345 118.537 26.1854 119.089C27.3362 119.445 28.4396 119.939 29.4716 120.56C30.5529 121.156 31.5534 121.888 32.4488 122.738C33.0031 123.317 33.6162 124.209 33.3415 125.063C33.0668 125.916 32.0172 126.122 31.2324 126.073C30.2589 125.953 29.3268 125.607 28.5103 125.063C27.338 124.376 26.1903 123.645 25.0377 122.934C22.5984 121.43 20.1623 119.928 17.7295 118.427C17.7295 118.466 17.7295 118.51 17.7688 118.549C19.8443 120.32 21.6972 122.336 23.2867 124.553C24.6208 126.441 25.793 128.624 26.1805 130.929C26.2884 131.601 26.568 132.891 25.7587 133.264C24.866 133.666 23.9145 132.67 23.3946 132.087C21.7907 130.286 20.795 127.785 19.9122 125.563C19.0293 123.341 18.2789 120.933 17.5333 118.593C17.5215 118.645 17.5068 118.696 17.4892 118.745C17.6216 120.065 17.6216 121.409 17.6461 122.723C17.7467 124.281 17.7467 125.844 17.6461 127.402C17.3764 129.889 16.2581 132.209 15.1103 134.402C14.7817 135.039 14.0656 135.971 13.3937 135.088C12.7217 134.205 12.6678 132.876 12.6481 131.827C12.6391 129.42 13.2094 127.046 14.3109 124.906C15.336 122.812 16.6161 120.82 17.2538 118.564C17.2538 118.461 17.2538 118.353 17.2538 118.245C16.4984 119.594 15.5322 120.855 14.664 122.12C13.7125 123.503 13.482 123.999 12.4323 125.313C10.6911 127.486 9.2442 128.795 6.6839 129.919C6.0708 130.164 4.95741 130.61 4.49635 129.752Z" fill="#7E57C2"/>
<path opacity="0.8" d="M4.49635 129.752C4.05492 128.869 5.04079 127.442 5.47731 126.755C6.97819 124.44 7.72371 123.812 9.82788 122.066C10.9348 121.134 12.1582 120.349 13.4672 119.731C14.5433 119.264 15.59 118.732 16.6014 118.137C13.9921 119.275 11.3337 120.511 8.58696 121.198C7.36896 121.488 6.13373 121.701 4.88874 121.835C3.80648 122.017 2.7057 122.061 1.61233 121.968C1.12185 121.909 -0.168116 121.796 0.0182663 121.07C0.273316 120.089 1.60742 119.501 2.42653 119.108C3.5337 118.529 4.71542 118.105 5.93837 117.848C7.14836 117.676 8.37078 117.607 9.59244 117.642C11.7175 117.526 13.848 117.557 15.9687 117.735C13.775 117.183 11.6122 116.515 9.48944 115.734C7.15476 114.861 4.72688 113.895 2.84834 112.202C2.35786 111.761 1.86738 111.172 2.35786 110.54C2.92191 109.814 4.10397 109.922 4.90836 110.005C5.98996 110.07 7.05843 110.276 8.08667 110.618C9.17975 111.105 10.1855 111.768 11.0639 112.58C12.7953 114.012 14.4139 115.577 16.1698 116.994C14.767 115.214 13.5899 113.237 12.1675 111.477C10.7451 109.716 9.36682 107.916 9.10687 105.655C9.02839 104.978 8.94501 103.639 9.5434 103.143C10.1418 102.648 11.0639 103.698 11.4514 104.124C13.2073 105.988 14.046 108.234 14.8847 110.594C15.7087 112.87 16.7338 115.175 17.2194 117.559C17.2472 117.438 17.285 117.32 17.3322 117.205C16.9889 116.092 16.9791 114.925 16.7387 113.772C16.4592 112.462 15.9 111.231 15.645 109.917C15.2283 107.803 15.36 105.618 16.0275 103.57C16.2237 102.986 16.7731 101.736 17.5873 101.942C18.3181 102.123 18.7301 103.482 18.9214 104.1C19.5835 106.243 19.4119 108.632 19.0783 110.819C18.8355 112.44 18.4915 114.044 18.0483 115.621C18.5977 114.4 19.1764 113.169 19.8141 112.001C20.9618 109.868 22.4234 107.798 24.5276 106.518C25.2633 106.071 29.0841 104.389 28.5397 106.68C28.2847 107.749 27.3822 108.843 26.7151 109.696C25.8753 110.757 24.943 111.742 23.9292 112.639C22.0212 114.365 19.9416 115.91 17.9061 117.49C18.063 117.49 18.2151 117.465 18.3966 117.465C20.6687 116.388 23.0007 115.441 25.381 114.63C27.4817 113.87 29.7575 113.734 31.9338 114.238C32.6009 114.395 34.0282 114.611 34.1655 115.469C34.2832 116.229 33.2532 116.803 32.6941 117.093C30.5654 118.245 28.0639 118.074 25.7293 118.02L21.6239 117.882C20.5007 117.843 19.3187 117.696 18.1906 117.735L17.7001 117.907H17.754C17.7748 117.912 17.7941 117.921 17.8105 117.935C17.8269 117.948 17.8399 117.966 17.8484 117.985C17.857 118.005 17.8609 118.026 17.8598 118.047C17.8588 118.069 17.8528 118.089 17.8423 118.108C18.6271 118.142 19.4119 118.177 20.1917 118.226C22.219 118.247 24.2345 118.537 26.1854 119.089C27.3362 119.445 28.4396 119.939 29.4716 120.56C30.5529 121.156 31.5534 121.888 32.4488 122.738C33.0031 123.317 33.6162 124.209 33.3415 125.063C33.0668 125.916 32.0172 126.122 31.2324 126.073C30.2589 125.953 29.3268 125.607 28.5103 125.063C27.338 124.376 26.1903 123.645 25.0377 122.934C22.5984 121.43 20.1623 119.928 17.7295 118.427C17.7295 118.466 17.7295 118.51 17.7688 118.549C19.8443 120.32 21.6972 122.336 23.2867 124.553C24.6208 126.441 25.793 128.624 26.1805 130.929C26.2884 131.601 26.568 132.891 25.7587 133.264C24.866 133.666 23.9145 132.67 23.3946 132.087C21.7907 130.286 20.795 127.785 19.9122 125.563C19.0293 123.341 18.2789 120.933 17.5333 118.593C17.5215 118.645 17.5068 118.696 17.4892 118.745C17.6216 120.065 17.6216 121.409 17.6461 122.723C17.7467 124.281 17.7467 125.844 17.6461 127.402C17.3764 129.889 16.2581 132.209 15.1103 134.402C14.7817 135.039 14.0656 135.971 13.3937 135.088C12.7217 134.205 12.6678 132.876 12.6481 131.827C12.6391 129.42 13.2094 127.046 14.3109 124.906C15.336 122.812 16.6161 120.82 17.2538 118.564C17.2538 118.461 17.2538 118.353 17.2538 118.245C16.4984 119.594 15.5322 120.855 14.664 122.12C13.7125 123.503 13.482 123.999 12.4323 125.313C10.6911 127.486 9.2442 128.795 6.6839 129.919C6.0708 130.164 4.95741 130.61 4.49635 129.752Z" fill="white"/>
<path d="M18.8626 119.643C19.9024 118.917 19.8926 117.348 19.2108 116.455C19.0259 116.195 18.7857 115.98 18.5076 115.824C18.2296 115.669 17.9205 115.577 17.6025 115.554C17.2846 115.532 16.9657 115.581 16.6688 115.697C16.3719 115.813 16.1043 115.993 15.8853 116.224C14.8553 117.147 15.2085 118.549 15.8069 119.3C16.1751 119.738 16.6975 120.018 17.2662 120.082C17.8348 120.146 18.4063 119.989 18.8626 119.643Z" fill="#7E57C2"/>
</svg>
