<svg width="191" height="93" viewBox="0 0 191 93" fill="none" xmlns="http://www.w3.org/2000/svg">
<path d="M46.1497 0.00109431C33.9143 0.0144556 22.1833 4.88058 13.5316 13.5327C4.87974 22.1846 0.0134718 33.916 1.77883e-05 46.1508C-0.00354548 50.1923 0.528239 54.2157 1.5829 58.1165C1.97929 61.0675 3.02682 63.8939 4.64792 66.3916C4.71205 66.5065 4.77529 66.5956 4.8519 66.7105C9.76081 76.565 18.0325 84.3396 28.173 88.6294C38.3117 92.9192 49.6512 93.4421 60.1435 90.1036C70.634 86.7641 79.5862 79.7841 85.3801 70.4231C91.1754 61.062 93.4318 49.9374 91.7428 39.0592C90.053 28.1803 84.5293 18.2635 76.1687 11.0998C67.808 3.93725 57.1615 0 46.1524 0L46.1497 0.00109431ZM13.5863 71.9347L13.1908 71.5775C11.1198 69.6214 9.2928 67.422 7.75106 65.0267L7.52125 64.6562C6.09603 62.5112 5.19552 60.0617 4.88995 57.5052C4.7982 56.3873 4.93271 55.2623 5.28634 54.1978C6.65277 50.2011 11.1858 48.3615 12.0667 48.0427C12.5219 47.877 12.9869 47.7407 13.459 47.6338C14.0104 47.51 14.5689 47.4254 15.1318 47.3782C15.6886 47.3399 16.248 47.3399 16.8047 47.3782C20.6037 47.7149 24.2845 48.8693 27.5953 50.7622C28.2972 51.1328 28.9876 51.5024 29.6636 51.8864L32.1025 53.2145L32.8302 53.6358C33.8644 54.2487 34.8478 54.8232 35.7928 55.347H35.7937C40.3839 57.867 45.2465 59.8543 50.2874 61.2722H50.4789C51.4115 61.5404 52.3691 61.7827 53.3266 62.0125C54.2842 62.2423 54.9995 62.408 55.8804 62.587L57.2976 62.8551C60.3724 63.4395 63.476 63.8661 66.5946 64.1325C67.4755 64.2091 68.3565 64.2732 69.2507 64.324L71.2941 64.4264H74.5767H77.1304C75.6108 65.1034 74.1169 65.7038 72.6482 66.2525L71.7414 66.5847C70.6938 66.9553 69.673 67.2742 68.6513 67.5681L68.2807 67.683C67.259 67.9636 66.2507 68.2317 65.254 68.4491C59.254 69.9652 52.9588 69.8503 47.0183 68.1169C45.2047 67.5298 43.3278 66.7246 41.5142 65.9586C35.9335 63.6987 30.1873 61.259 24.5302 64.0301C24.132 64.2234 23.7445 64.4362 23.3686 64.6687C22.8911 64.9725 22.4315 65.3003 21.9888 65.6521C21.5426 65.9978 21.1159 66.3683 20.7123 66.7629C18.6681 68.7413 17.4307 71.4082 17.2385 74.2461C15.1318 73.0329 13.8296 72.1136 13.5863 71.9345L13.5863 71.9347ZM46.1497 26.9981C41.0698 26.9981 36.1971 29.0166 32.6049 32.6083C29.0133 36.2007 26.9948 41.0731 26.9948 46.1531V46.7151C23.8103 45.1162 20.3355 44.1782 16.7786 43.9564C17.5242 34.1171 23.1608 25.31 31.7826 20.5121C40.4051 15.7136 50.86 15.5649 59.6143 20.1175C68.3687 24.6693 74.252 33.3132 75.2766 43.1262C73.8461 43.7898 72.3646 44.62 70.7684 45.5144C69.491 46.268 68.0356 47.0465 66.4777 47.8509C65.9922 48.1065 65.5067 48.3363 65.0222 48.5661L65.023 48.567C65.1682 47.7689 65.2618 46.9628 65.3036 46.153C65.3036 41.0731 63.2852 36.2005 59.6935 32.6082C56.1011 29.0167 51.2286 26.9981 46.1487 26.9981L46.1497 26.9981ZM61.9206 46.1531C61.917 47.5471 61.7282 48.934 61.3585 50.2782C56.3507 52.3938 51.1451 54.0061 45.8175 55.0918L43.7875 55.5007C41.6016 54.6028 39.4699 53.5793 37.4025 52.4357C36.4832 51.9253 35.5123 51.3632 34.5039 50.7753C33.2266 50.0351 31.9502 49.2681 30.5961 48.5279C29.912 44.1827 31.0762 39.7495 33.8064 36.2995C36.5367 32.8505 40.5852 30.6992 44.9712 30.367C49.3572 30.0338 53.6837 31.5499 56.9029 34.5482C60.1212 37.5464 61.9411 41.7537 61.9206 46.1531L61.9206 46.1531ZM76.555 73.8639C73.7757 77.0171 70.5335 79.7296 66.9392 81.9092C53.3773 90.0179 34.7726 90.2735 25.4482 82.4579C25.1801 82.2405 24.8479 81.9599 24.4773 81.6277H24.4782C23.4815 80.7164 22.6103 79.6778 21.8861 78.5376C21.4096 77.8018 21.0515 76.9966 20.8261 76.1494C20.6818 75.5864 20.6097 75.0074 20.6088 74.4257C20.7718 72.4848 21.6341 70.6702 23.0353 69.3182C23.429 68.9085 23.8557 68.5326 24.3118 68.1941C24.7536 67.8297 25.2239 67.5011 25.7165 67.2107C25.819 67.2107 25.9205 67.0833 26.023 67.045C30.2879 64.9508 35.0383 67.045 40.0704 69.1392C41.9472 69.9435 43.9016 70.7862 45.8684 71.4124C49.8679 72.6791 54.0651 73.2064 58.2552 72.9703C59.7348 72.892 61.2099 72.7343 62.6734 72.4974C63.9508 72.2934 65.3038 72.0252 66.6444 71.7055C70.3705 70.7951 74.0102 69.565 77.5251 68.0284C78.6492 67.5429 79.785 67.0192 80.9217 66.4705L82.4796 65.7044V65.7035C80.8014 68.6278 78.8151 71.3633 76.5544 73.8637L76.555 73.8639ZM82.9399 60.9407C80.3264 61.1108 77.7727 61.1874 75.2775 61.1705H71.4215C67.4032 61.028 63.3974 60.6271 59.43 59.9706C58.7406 59.8433 58.0511 59.7283 57.3741 59.5876C56.6971 59.4469 55.9053 59.307 55.1909 59.1405C53.9135 58.8599 52.7003 58.5401 51.4881 58.1954L50.3773 57.5442H50.3764C53.4407 56.779 56.4594 55.8411 59.4175 54.7348C60.2477 54.4284 61.0645 54.0837 61.8823 53.7389C62.7 53.3942 63.3637 53.1519 64.079 52.8321C65.4409 52.2362 66.7816 51.5975 68.1017 50.917C69.7238 50.0868 71.205 49.2442 72.5074 48.5165C73.8096 47.7887 74.6015 47.3416 75.5083 46.8819C76.1087 46.5631 76.6707 46.3074 77.1936 46.0776V46.0767C77.7334 45.8415 78.2884 45.6411 78.8531 45.4763C80.012 45.1058 81.2573 45.1058 82.4161 45.4763C83.9491 46.1123 85.2702 47.1697 86.2268 48.5254C87.1826 49.882 87.7349 51.4809 87.8177 53.1385C87.8311 55.092 86.9118 57.9656 82.9015 60.9407L82.9399 60.9407ZM88.9801 46.4596C87.6547 44.523 85.7573 43.0497 83.5527 42.2455C81.9751 41.6968 80.2729 41.613 78.649 42.0032C77.2416 31.1378 70.4906 21.6964 60.6637 16.8509C50.8367 12.0054 39.2382 12.3997 29.7604 17.8994C20.2844 23.3989 14.189 33.2758 13.5218 44.2123C12.6524 44.3664 11.7982 44.5927 10.9671 44.8893C8.04463 45.9466 5.49064 47.8271 3.61209 50.3033C3.45621 48.9253 3.37069 47.5402 3.35644 46.1533C3.62901 34.9885 8.25645 24.3723 16.2493 16.5726C24.2422 8.77223 34.9678 4.4065 46.1356 4.4065C57.3031 4.4065 68.0287 8.77223 76.0218 16.5726C84.0147 24.3721 88.6413 34.9883 88.9138 46.1533L88.9801 46.4596Z" fill="#015098"/>
<path d="M117.437 30.168C115.869 30.168 114.429 29.8 113.117 29.064C111.805 28.328 110.765 27.312 109.997 26.016C109.229 24.704 108.845 23.224 108.845 21.576C108.845 19.944 109.229 18.48 109.997 17.184C110.765 15.872 111.805 14.848 113.117 14.112C114.429 13.376 115.869 13.008 117.437 13.008C119.021 13.008 120.461 13.376 121.757 14.112C123.069 14.848 124.101 15.872 124.853 17.184C125.621 18.48 126.005 19.944 126.005 21.576C126.005 23.224 125.621 24.704 124.853 26.016C124.101 27.312 123.069 28.328 121.757 29.064C120.445 29.8 119.005 30.168 117.437 30.168ZM117.437 27.168C118.445 27.168 119.333 26.944 120.101 26.496C120.869 26.032 121.469 25.376 121.901 24.528C122.333 23.68 122.549 22.696 122.549 21.576C122.549 20.456 122.333 19.48 121.901 18.648C121.469 17.8 120.869 17.152 120.101 16.704C119.333 16.256 118.445 16.032 117.437 16.032C116.429 16.032 115.533 16.256 114.749 16.704C113.981 17.152 113.381 17.8 112.949 18.648C112.517 19.48 112.301 20.456 112.301 21.576C112.301 22.696 112.517 23.68 112.949 24.528C113.381 25.376 113.981 26.032 114.749 26.496C115.533 26.944 116.429 27.168 117.437 27.168ZM127.641 23.352C127.641 21.976 127.921 20.776 128.481 19.752C129.041 18.712 129.817 17.912 130.809 17.352C131.801 16.776 132.937 16.488 134.217 16.488C135.865 16.488 137.225 16.904 138.297 17.736C139.385 18.552 140.113 19.704 140.481 21.192H136.857C136.665 20.616 136.337 20.168 135.873 19.848C135.425 19.512 134.865 19.344 134.193 19.344C133.233 19.344 132.473 19.696 131.913 20.4C131.353 21.088 131.073 22.072 131.073 23.352C131.073 24.616 131.353 25.6 131.913 26.304C132.473 26.992 133.233 27.336 134.193 27.336C135.553 27.336 136.441 26.728 136.857 25.512H140.481C140.113 26.952 139.385 28.096 138.297 28.944C137.209 29.792 135.849 30.216 134.217 30.216C132.937 30.216 131.801 29.936 130.809 29.376C129.817 28.8 129.041 28 128.481 26.976C127.921 25.936 127.641 24.728 127.641 23.352ZM155.302 23.064C155.302 23.544 155.27 23.976 155.206 24.36H145.486C145.566 25.32 145.902 26.072 146.494 26.616C147.086 27.16 147.814 27.432 148.678 27.432C149.926 27.432 150.814 26.896 151.342 25.824H154.966C154.582 27.104 153.846 28.16 152.758 28.992C151.67 29.808 150.334 30.216 148.75 30.216C147.47 30.216 146.318 29.936 145.294 29.376C144.286 28.8 143.494 27.992 142.918 26.952C142.358 25.912 142.078 24.712 142.078 23.352C142.078 21.976 142.358 20.768 142.918 19.728C143.478 18.688 144.262 17.888 145.27 17.328C146.278 16.768 147.438 16.488 148.75 16.488C150.014 16.488 151.142 16.76 152.134 17.304C153.142 17.848 153.918 18.624 154.462 19.632C155.022 20.624 155.302 21.768 155.302 23.064ZM151.822 22.104C151.806 21.24 151.494 20.552 150.886 20.04C150.278 19.512 149.534 19.248 148.654 19.248C147.822 19.248 147.118 19.504 146.542 20.016C145.982 20.512 145.638 21.208 145.51 22.104H151.822ZM156.891 23.304C156.891 21.96 157.155 20.768 157.683 19.728C158.227 18.688 158.955 17.888 159.867 17.328C160.795 16.768 161.827 16.488 162.963 16.488C163.955 16.488 164.819 16.688 165.555 17.088C166.307 17.488 166.907 17.992 167.355 18.6V16.704H170.739V30H167.355V28.056C166.923 28.68 166.323 29.2 165.555 29.616C164.803 30.016 163.931 30.216 162.939 30.216C161.819 30.216 160.795 29.928 159.867 29.352C158.955 28.776 158.227 27.968 157.683 26.928C157.155 25.872 156.891 24.664 156.891 23.304ZM167.355 23.352C167.355 22.536 167.195 21.84 166.875 21.264C166.555 20.672 166.123 20.224 165.579 19.92C165.035 19.6 164.451 19.44 163.827 19.44C163.203 19.44 162.627 19.592 162.099 19.896C161.571 20.2 161.139 20.648 160.803 21.24C160.483 21.816 160.323 22.504 160.323 23.304C160.323 24.104 160.483 24.808 160.803 25.416C161.139 26.008 161.571 26.464 162.099 26.784C162.643 27.104 163.219 27.264 163.827 27.264C164.451 27.264 165.035 27.112 165.579 26.808C166.123 26.488 166.555 26.04 166.875 25.464C167.195 24.872 167.355 24.168 167.355 23.352ZM181.388 16.512C182.972 16.512 184.252 17.016 185.228 18.024C186.204 19.016 186.692 20.408 186.692 22.2V30H183.332V22.656C183.332 21.6 183.068 20.792 182.54 20.232C182.012 19.656 181.292 19.368 180.38 19.368C179.452 19.368 178.716 19.656 178.172 20.232C177.644 20.792 177.38 21.6 177.38 22.656V30H174.02V16.704H177.38V18.36C177.828 17.784 178.396 17.336 179.084 17.016C179.788 16.68 180.556 16.512 181.388 16.512ZM119.165 45.408C120.109 45.584 120.885 46.056 121.493 46.824C122.101 47.592 122.405 48.472 122.405 49.464C122.405 50.36 122.181 51.152 121.733 51.84C121.301 52.512 120.669 53.04 119.837 53.424C119.005 53.808 118.021 54 116.885 54H109.661V37.248H116.573C117.709 37.248 118.685 37.432 119.501 37.8C120.333 38.168 120.957 38.68 121.373 39.336C121.805 39.992 122.021 40.736 122.021 41.568C122.021 42.544 121.757 43.36 121.229 44.016C120.717 44.672 120.029 45.136 119.165 45.408ZM113.021 44.16H116.093C116.893 44.16 117.509 43.984 117.941 43.632C118.373 43.264 118.589 42.744 118.589 42.072C118.589 41.4 118.373 40.88 117.941 40.512C117.509 40.144 116.893 39.96 116.093 39.96H113.021V44.16ZM116.405 51.264C117.221 51.264 117.853 51.072 118.301 50.688C118.765 50.304 118.997 49.76 118.997 49.056C118.997 48.336 118.757 47.776 118.277 47.376C117.797 46.96 117.149 46.752 116.333 46.752H113.021V51.264H116.405ZM130.987 54.216C129.707 54.216 128.555 53.936 127.531 53.376C126.507 52.8 125.699 51.992 125.107 50.952C124.531 49.912 124.243 48.712 124.243 47.352C124.243 45.992 124.539 44.792 125.131 43.752C125.739 42.712 126.563 41.912 127.603 41.352C128.643 40.776 129.803 40.488 131.083 40.488C132.363 40.488 133.523 40.776 134.563 41.352C135.603 41.912 136.419 42.712 137.011 43.752C137.619 44.792 137.923 45.992 137.923 47.352C137.923 48.712 137.611 49.912 136.987 50.952C136.379 51.992 135.547 52.8 134.491 53.376C133.451 53.936 132.283 54.216 130.987 54.216ZM130.987 51.288C131.595 51.288 132.163 51.144 132.691 50.856C133.235 50.552 133.667 50.104 133.987 49.512C134.307 48.92 134.467 48.2 134.467 47.352C134.467 46.088 134.131 45.12 133.459 44.448C132.803 43.76 131.995 43.416 131.035 43.416C130.075 43.416 129.267 43.76 128.611 44.448C127.971 45.12 127.651 46.088 127.651 47.352C127.651 48.616 127.963 49.592 128.587 50.28C129.227 50.952 130.027 51.288 130.987 51.288ZM152.939 40.704V54H149.555V52.32C149.123 52.896 148.555 53.352 147.851 53.688C147.163 54.008 146.411 54.168 145.595 54.168C144.555 54.168 143.635 53.952 142.835 53.52C142.035 53.072 141.403 52.424 140.939 51.576C140.491 50.712 140.267 49.688 140.267 48.504V40.704H143.627V48.024C143.627 49.08 143.891 49.896 144.419 50.472C144.947 51.032 145.667 51.312 146.579 51.312C147.507 51.312 148.235 51.032 148.763 50.472C149.291 49.896 149.555 49.08 149.555 48.024V40.704H152.939ZM163.623 40.512C165.207 40.512 166.487 41.016 167.463 42.024C168.439 43.016 168.927 44.408 168.927 46.2V54H165.567V46.656C165.567 45.6 165.303 44.792 164.775 44.232C164.247 43.656 163.527 43.368 162.615 43.368C161.687 43.368 160.951 43.656 160.407 44.232C159.879 44.792 159.615 45.6 159.615 46.656V54H156.255V40.704H159.615V42.36C160.063 41.784 160.631 41.336 161.319 41.016C162.023 40.68 162.791 40.512 163.623 40.512ZM171.258 47.304C171.258 45.96 171.522 44.768 172.05 43.728C172.594 42.688 173.33 41.888 174.258 41.328C175.186 40.768 176.218 40.488 177.354 40.488C178.218 40.488 179.042 40.68 179.826 41.064C180.61 41.432 181.234 41.928 181.698 42.552V36.24H185.106V54H181.698V52.032C181.282 52.688 180.698 53.216 179.946 53.616C179.194 54.016 178.322 54.216 177.33 54.216C176.21 54.216 175.186 53.928 174.258 53.352C173.33 52.776 172.594 51.968 172.05 50.928C171.522 49.872 171.258 48.664 171.258 47.304ZM181.722 47.352C181.722 46.536 181.562 45.84 181.242 45.264C180.922 44.672 180.49 44.224 179.946 43.92C179.402 43.6 178.818 43.44 178.194 43.44C177.57 43.44 176.994 43.592 176.466 43.896C175.938 44.2 175.506 44.648 175.17 45.24C174.85 45.816 174.69 46.504 174.69 47.304C174.69 48.104 174.85 48.808 175.17 49.416C175.506 50.008 175.938 50.464 176.466 50.784C177.01 51.104 177.586 51.264 178.194 51.264C178.818 51.264 179.402 51.112 179.946 50.808C180.49 50.488 180.922 50.04 181.242 49.464C181.562 48.872 181.722 48.168 181.722 47.352ZM121.877 66.432C121.877 67.328 121.661 68.168 121.229 68.952C120.813 69.736 120.149 70.368 119.237 70.848C118.341 71.328 117.205 71.568 115.829 71.568H113.021V78H109.661V61.248H115.829C117.125 61.248 118.229 61.472 119.141 61.92C120.053 62.368 120.733 62.984 121.181 63.768C121.645 64.552 121.877 65.44 121.877 66.432ZM115.685 68.856C116.613 68.856 117.301 68.648 117.749 68.232C118.197 67.8 118.421 67.2 118.421 66.432C118.421 64.8 117.509 63.984 115.685 63.984H113.021V68.856H115.685ZM127.622 60.24V78H124.262V60.24H127.622ZM130.078 71.304C130.078 69.96 130.342 68.768 130.87 67.728C131.414 66.688 132.142 65.888 133.054 65.328C133.982 64.768 135.014 64.488 136.15 64.488C137.142 64.488 138.006 64.688 138.742 65.088C139.494 65.488 140.094 65.992 140.542 66.6V64.704H143.926V78H140.542V76.056C140.11 76.68 139.51 77.2 138.742 77.616C137.99 78.016 137.118 78.216 136.126 78.216C135.006 78.216 133.982 77.928 133.054 77.352C132.142 76.776 131.414 75.968 130.87 74.928C130.342 73.872 130.078 72.664 130.078 71.304ZM140.542 71.352C140.542 70.536 140.382 69.84 140.062 69.264C139.742 68.672 139.31 68.224 138.766 67.92C138.222 67.6 137.638 67.44 137.014 67.44C136.39 67.44 135.814 67.592 135.286 67.896C134.758 68.2 134.326 68.648 133.99 69.24C133.67 69.816 133.51 70.504 133.51 71.304C133.51 72.104 133.67 72.808 133.99 73.416C134.326 74.008 134.758 74.464 135.286 74.784C135.83 75.104 136.406 75.264 137.014 75.264C137.638 75.264 138.222 75.112 138.766 74.808C139.31 74.488 139.742 74.04 140.062 73.464C140.382 72.872 140.542 72.168 140.542 71.352ZM152.296 78.216C151.208 78.216 150.232 78.024 149.368 77.64C148.504 77.24 147.816 76.704 147.304 76.032C146.808 75.36 146.536 74.616 146.488 73.8H149.872C149.936 74.312 150.184 74.736 150.616 75.072C151.064 75.408 151.616 75.576 152.272 75.576C152.912 75.576 153.408 75.448 153.76 75.192C154.128 74.936 154.312 74.608 154.312 74.208C154.312 73.776 154.088 73.456 153.64 73.248C153.208 73.024 152.512 72.784 151.552 72.528C150.56 72.288 149.744 72.04 149.104 71.784C148.48 71.528 147.936 71.136 147.472 70.608C147.024 70.08 146.8 69.368 146.8 68.472C146.8 67.736 147.008 67.064 147.424 66.456C147.856 65.848 148.464 65.368 149.248 65.016C150.048 64.664 150.984 64.488 152.056 64.488C153.64 64.488 154.904 64.888 155.848 65.688C156.792 66.472 157.312 67.536 157.408 68.88H154.192C154.144 68.352 153.92 67.936 153.52 67.632C153.136 67.312 152.616 67.152 151.96 67.152C151.352 67.152 150.88 67.264 150.544 67.488C150.224 67.712 150.064 68.024 150.064 68.424C150.064 68.872 150.288 69.216 150.736 69.456C151.184 69.68 151.88 69.912 152.824 70.152C153.784 70.392 154.576 70.64 155.2 70.896C155.824 71.152 156.36 71.552 156.808 72.096C157.272 72.624 157.512 73.328 157.528 74.208C157.528 74.976 157.312 75.664 156.88 76.272C156.464 76.88 155.856 77.36 155.056 77.712C154.272 78.048 153.352 78.216 152.296 78.216ZM164.198 67.464V73.896C164.198 74.344 164.302 74.672 164.51 74.88C164.734 75.072 165.102 75.168 165.614 75.168H167.174V78H165.062C162.23 78 160.814 76.624 160.814 73.872V67.464H159.23V64.704H160.814V61.416H164.198V64.704H167.174V67.464H164.198ZM171.294 63.12C170.702 63.12 170.206 62.936 169.806 62.568C169.422 62.184 169.23 61.712 169.23 61.152C169.23 60.592 169.422 60.128 169.806 59.76C170.206 59.376 170.702 59.184 171.294 59.184C171.886 59.184 172.374 59.376 172.758 59.76C173.158 60.128 173.358 60.592 173.358 61.152C173.358 61.712 173.158 62.184 172.758 62.568C172.374 62.936 171.886 63.12 171.294 63.12ZM172.95 64.704V78H169.59V64.704H172.95ZM175.406 71.352C175.406 69.976 175.686 68.776 176.246 67.752C176.806 66.712 177.582 65.912 178.574 65.352C179.566 64.776 180.702 64.488 181.982 64.488C183.63 64.488 184.99 64.904 186.062 65.736C187.15 66.552 187.878 67.704 188.246 69.192H184.622C184.43 68.616 184.102 68.168 183.638 67.848C183.19 67.512 182.63 67.344 181.958 67.344C180.998 67.344 180.238 67.696 179.678 68.4C179.118 69.088 178.838 70.072 178.838 71.352C178.838 72.616 179.118 73.6 179.678 74.304C180.238 74.992 180.998 75.336 181.958 75.336C183.318 75.336 184.206 74.728 184.622 73.512H188.246C187.878 74.952 187.15 76.096 186.062 76.944C184.974 77.792 183.614 78.216 181.982 78.216C180.702 78.216 179.566 77.936 178.574 77.376C177.582 76.8 176.806 76 176.246 74.976C175.686 73.936 175.406 72.728 175.406 71.352Z" fill="#015098"/>
</svg>
