<svg width="100" height="37" viewBox="0 0 100 37" fill="none" xmlns="http://www.w3.org/2000/svg">
<g clip-path="url(#clip0_167_22)">
<path d="M26.8789 20.0338C25.7971 19.321 24.4959 18.9075 23.2537 18.4618C22.5074 18.1947 21.6841 18.1303 20.7496 17.9469C21.4255 17.7554 21.9689 17.6251 22.5008 17.4449C25.5696 16.4505 27.5532 14 27.7201 11.0088C27.9214 7.4111 26.3994 4.8222 23.257 3.42719C21.4566 2.62268 19.5581 2.40708 17.6187 2.40386C12.8178 2.39313 8.01692 2.39313 3.21605 2.40386C3.00001 2.40386 2.7856 2.4296 2.56956 2.44247C2.56956 2.51166 2.56956 2.57924 2.56956 2.65004C2.87726 2.66613 3.18822 2.69831 3.49755 2.70153C6.27988 2.73692 7.24551 3.58326 7.26187 6.29123C7.3077 14.1931 7.29461 22.0949 7.30279 29.9952C7.30279 30.111 7.30279 30.2301 7.28642 30.3459C7.10639 32.3331 6.32243 33.1167 4.29133 33.3226C3.72668 33.3805 3.1604 33.4159 2.59411 33.4626C2.66102 33.5302 2.74126 33.5836 2.82991 33.6195C2.91857 33.6555 3.01377 33.6733 3.10966 33.6718C8.48446 33.6718 13.8576 33.6718 19.2341 33.6589C21.1904 33.6752 23.1315 33.3201 24.9509 32.613C27.6203 31.5463 29.4485 29.7168 29.8249 26.8077C30.1866 24.0113 29.2962 21.6283 26.8789 20.0338ZM11.5434 11.4819C11.5434 9.8938 11.5434 8.30571 11.5434 6.71762C11.5434 6.27353 11.5548 5.82783 11.5974 5.38696C11.748 3.81818 12.491 2.93483 14.0818 2.81255C15.5936 2.67815 17.1154 2.69541 18.6236 2.86403C20.5876 3.10378 21.8674 4.37007 22.5679 6.13354C23.6661 8.89943 23.6907 11.7168 22.5777 14.4763C21.7365 16.568 20.0998 17.7699 17.7774 17.8648C15.8805 17.9421 13.9771 17.8793 12.0769 17.9035C11.6056 17.9035 11.5352 17.6895 11.5368 17.3033C11.5499 15.3596 11.5434 13.4208 11.5434 11.4819ZM24.5499 28.8238C23.7316 31.4401 21.9853 33.0877 19.1489 33.3194C17.5387 33.4463 15.9205 33.442 14.311 33.3065C12.4648 33.1456 11.6203 32.2446 11.5925 30.4103C11.5303 26.4376 11.5597 22.4634 11.5532 18.4891C11.5677 18.3804 11.5901 18.2729 11.6203 18.1673C12.7152 18.1673 13.7791 18.1593 14.8445 18.1673C16.2471 18.1818 17.6612 18.103 19.0491 18.2574C22.0917 18.5953 23.9051 20.2285 24.6514 23.1488C25.1521 25.0133 25.117 26.9778 24.5499 28.8238V28.8238Z" fill="#A56946"/>
<path d="M61.4992 27.9968C60.3224 31.2148 56.9509 33.8922 53.1522 33.6187C51.6056 33.5077 50.4435 32.893 49.671 31.6412C48.0229 28.9622 47.9705 25.9711 47.9542 22.9011H62.6023C62.275 19.5061 61.4239 16.4312 58.3355 14.6597C54.0147 12.1834 50.0458 13.2824 46.401 16.3411C43.8216 13.2727 40.4288 12.8094 36.7447 13.5543C35.6563 13.7731 34.5925 14.2913 33.635 14.8528C33.0884 15.1746 32.653 15.8053 32.365 16.391C31.9198 17.3081 32.2439 18.3797 32.9771 19.0121C33.3411 19.3171 33.7895 19.5084 34.2647 19.5614C34.74 19.6145 35.2205 19.5268 35.6448 19.3098C36.0616 19.0987 36.4 18.7638 36.6118 18.3527C36.8237 17.9416 36.8983 17.4753 36.8249 17.0201C36.7332 16.5374 36.4517 16.074 36.2128 15.6235C35.8118 14.8657 35.9574 14.3057 36.7038 13.9228C39.4861 12.4827 42.8232 13.8069 43.3683 16.7997C43.7905 19.1199 43.7169 21.527 43.874 24.0563L42.9869 23.7345C40.3682 22.7836 37.7005 22.5905 35.0049 23.3564C32.9804 23.9308 31.5843 25.1794 31.1555 27.2727C30.7349 29.3323 31.3666 31.0925 33.0115 32.4216C36.0049 34.8254 40.689 34.362 43.1719 31.4562C43.8265 30.6919 44.4026 29.8633 45.072 28.9896C46.252 31.0652 47.9444 32.5181 50.1931 33.2615C52.4108 33.9936 54.6514 34.1915 56.8789 33.2341C59.3339 32.1786 61.892 29.1842 61.7463 27.4111C61.6317 27.6557 61.5597 27.8214 61.4992 27.9968ZM48.2602 19.8761C48.4648 18.4103 48.8282 16.9896 49.581 15.683C50.5728 13.9566 52.1489 13.5511 54.0098 13.6364C55.5597 13.7072 56.4157 14.642 57.036 15.8616C58.0998 17.9534 58.3862 20.206 58.4059 22.5905H47.9689C48.0671 21.6541 48.1358 20.7563 48.2586 19.8697L48.2602 19.8761ZM44.6907 28.9493C43.8347 30.2993 42.9083 31.5849 41.581 32.5616C39.2275 34.2896 35.4746 33.0909 34.9951 29.6042C34.9296 29.1215 34.928 28.6259 34.8887 28.0161C34.9755 27.4111 35.0278 26.6855 35.1931 25.9839C35.6105 24.2044 36.6939 23.2985 38.5532 23.2084C40.2177 23.1263 41.8118 23.498 43.329 24.1593C43.5319 24.2494 43.6972 24.5551 43.7643 24.7917C44.0917 25.9566 44.3977 27.1295 44.6923 28.3041C44.743 28.5036 44.7905 28.7852 44.6907 28.9429V28.9493Z" fill="#A56946"/>
<path d="M97.4386 33.5205L97.4222 33.6814H89.838V30.7321C89.4042 31.1858 89.1309 31.498 88.8281 31.7796C85.91 34.5068 81.1473 34.3073 78.2504 31.3226C76.761 29.7876 75.9705 27.9662 75.9803 25.8182C75.9918 23.8874 75.9885 21.9566 75.9803 20.0257C76.358 20.1413 76.7562 20.177 77.1489 20.1304C77.5416 20.0838 77.9198 19.956 78.2586 19.7554C79.3519 19.1472 79.8723 18.0853 79.7316 16.7643C79.658 16.212 79.4731 15.6798 79.1875 15.1988C78.902 14.7177 78.5216 14.2976 78.0687 13.963C77.9149 13.8435 77.7543 13.7328 77.5875 13.6315H79.9771C79.9902 13.8681 80.0147 14.1384 80.0164 14.4087C80.0245 18.4312 79.9771 22.4537 80.0655 26.4666C80.101 27.8648 80.3183 29.2529 80.7119 30.5969C81.4222 33.0105 83.4697 33.963 85.9247 33.2228C87.4173 32.7707 88.5745 31.8761 89.4894 30.6677C89.6913 30.3846 89.802 30.0482 89.8069 29.7023C89.8265 25.3081 89.8216 20.9139 89.815 16.5213C89.8205 16.194 89.7986 15.8668 89.7496 15.543C89.5712 14.5052 89.072 14.0338 88.0065 13.9083C87.4288 13.8407 86.8445 13.8198 86.2668 13.6331H93.8658C93.8772 13.8825 93.9034 14.1528 93.9034 14.4232C93.9034 19.5184 93.9061 24.6136 93.9116 29.7088C93.909 30.4092 93.9637 31.1087 94.0753 31.8005C94.2504 32.8463 94.8298 33.3274 95.9132 33.4272C96.4239 33.4771 96.9329 33.4915 97.4386 33.5205Z" fill="#A56946"/>
<path d="M72.0131 33.6412H60.7954V33.432C61.2275 33.432 61.6596 33.4449 62.09 33.432C63.4975 33.3838 64.0769 32.893 64.2864 31.5398C64.3554 31.078 64.3893 30.6117 64.3879 30.1448C64.3955 25.8445 64.3955 21.5441 64.3879 17.2438C64.3872 16.7052 64.3462 16.1674 64.2651 15.6348C64.0638 14.3266 63.5303 13.8649 62.1948 13.7683C61.7038 13.7361 61.2259 13.7072 60.7414 13.6766V13.5157H68.3944V17.7925L68.545 17.8279C68.8723 17.313 69.1899 16.7804 69.5516 16.2848C70.6972 14.7144 72.1931 13.6895 74.1866 13.4449C76.599 13.1489 78.9329 14.7321 79.1653 16.8415C79.2799 17.8793 78.9296 18.7579 77.982 19.284C77.602 19.5115 77.1618 19.6227 76.7174 19.6035C76.2729 19.5843 75.8443 19.4356 75.4861 19.1762C74.6416 18.6066 74.2651 17.778 74.5041 16.8013C74.6404 16.335 74.8982 15.9118 75.252 15.5736C75.4501 15.3789 75.6137 15.2856 75.8281 15.0507C76.3601 14.4393 76.1669 13.8633 75.3601 13.7426C73.7054 13.4948 72.2504 14.0065 71.0016 15.0491C69.8811 16.003 69.0318 17.2266 68.5368 18.6002C68.4527 18.8666 68.4161 19.1453 68.4288 19.424C68.4288 22.9059 68.4157 26.3878 68.4288 29.8713C68.4241 30.5014 68.4789 31.1305 68.5925 31.7506C68.8134 32.8769 69.3961 33.3435 70.5565 33.4176C71.0475 33.4481 71.5286 33.4176 72.0147 33.4176L72.0131 33.6412Z" fill="#A56946"/>
<path d="M49.344 2.056C49.344 2.52 49.184 2.90667 48.864 3.216C48.5493 3.52 48.0667 3.672 47.416 3.672H46.344V6H45.616V0.424H47.416C48.0453 0.424 48.5227 0.576 48.848 0.88C49.1787 1.184 49.344 1.576 49.344 2.056ZM47.416 3.072C47.8213 3.072 48.12 2.984 48.312 2.808C48.504 2.632 48.6 2.38133 48.6 2.056C48.6 1.368 48.2053 1.024 47.416 1.024H46.344V3.072H47.416ZM52.4608 6.072C52.0501 6.072 51.6768 5.97867 51.3408 5.792C51.0101 5.60533 50.7488 5.34133 50.5568 5C50.3701 4.65333 50.2768 4.25333 50.2768 3.8C50.2768 3.352 50.3728 2.95733 50.5648 2.616C50.7621 2.26933 51.0288 2.00533 51.3648 1.824C51.7008 1.63733 52.0768 1.544 52.4928 1.544C52.9088 1.544 53.2848 1.63733 53.6208 1.824C53.9568 2.00533 54.2208 2.26667 54.4128 2.608C54.6101 2.94933 54.7088 3.34667 54.7088 3.8C54.7088 4.25333 54.6075 4.65333 54.4048 5C54.2075 5.34133 53.9381 5.60533 53.5968 5.792C53.2555 5.97867 52.8768 6.072 52.4608 6.072ZM52.4608 5.432C52.7221 5.432 52.9675 5.37067 53.1968 5.248C53.4261 5.12533 53.6101 4.94133 53.7488 4.696C53.8928 4.45067 53.9648 4.152 53.9648 3.8C53.9648 3.448 53.8955 3.14933 53.7568 2.904C53.6181 2.65867 53.4368 2.47733 53.2128 2.36C52.9888 2.23733 52.7461 2.176 52.4848 2.176C52.2181 2.176 51.9728 2.23733 51.7488 2.36C51.5301 2.47733 51.3541 2.65867 51.2208 2.904C51.0875 3.14933 51.0208 3.448 51.0208 3.8C51.0208 4.15733 51.0848 4.45867 51.2128 4.704C51.3461 4.94933 51.5221 5.13333 51.7408 5.256C51.9595 5.37333 52.1995 5.432 52.4608 5.432ZM61.806 1.616L60.438 6H59.686L58.63 2.52L57.574 6H56.822L55.446 1.616H56.19L57.198 5.296L58.286 1.616H59.03L60.094 5.304L61.086 1.616H61.806ZM66.8285 3.64C66.8285 3.77867 66.8205 3.92533 66.8045 4.08H63.3005C63.3272 4.512 63.4738 4.85067 63.7405 5.096C64.0125 5.336 64.3405 5.456 64.7245 5.456C65.0392 5.456 65.3005 5.384 65.5085 5.24C65.7218 5.09067 65.8712 4.89333 65.9565 4.648H66.7405C66.6232 5.06933 66.3885 5.41333 66.0365 5.68C65.6845 5.94133 65.2472 6.072 64.7245 6.072C64.3085 6.072 63.9352 5.97867 63.6045 5.792C63.2792 5.60533 63.0232 5.34133 62.8365 5C62.6498 4.65333 62.5565 4.25333 62.5565 3.8C62.5565 3.34667 62.6472 2.94933 62.8285 2.608C63.0098 2.26667 63.2632 2.00533 63.5885 1.824C63.9192 1.63733 64.2978 1.544 64.7245 1.544C65.1405 1.544 65.5085 1.63467 65.8285 1.816C66.1485 1.99733 66.3938 2.248 66.5645 2.568C66.7405 2.88267 66.8285 3.24 66.8285 3.64ZM66.0765 3.488C66.0765 3.21067 66.0152 2.97333 65.8925 2.776C65.7698 2.57333 65.6018 2.42133 65.3885 2.32C65.1805 2.21333 64.9485 2.16 64.6925 2.16C64.3245 2.16 64.0098 2.27733 63.7485 2.512C63.4925 2.74667 63.3458 3.072 63.3085 3.488H66.0765ZM68.8174 2.328C68.9454 2.07733 69.1268 1.88267 69.3614 1.744C69.6014 1.60533 69.8921 1.536 70.2334 1.536V2.288H70.0414C69.2254 2.288 68.8174 2.73067 68.8174 3.616V6H68.0894V1.616H68.8174V2.328ZM75.3738 3.64C75.3738 3.77867 75.3658 3.92533 75.3498 4.08H71.8458C71.8725 4.512 72.0191 4.85067 72.2858 5.096C72.5578 5.336 72.8858 5.456 73.2698 5.456C73.5845 5.456 73.8458 5.384 74.0538 5.24C74.2671 5.09067 74.4165 4.89333 74.5018 4.648H75.2858C75.1685 5.06933 74.9338 5.41333 74.5818 5.68C74.2298 5.94133 73.7925 6.072 73.2698 6.072C72.8538 6.072 72.4805 5.97867 72.1498 5.792C71.8245 5.60533 71.5685 5.34133 71.3818 5C71.1951 4.65333 71.1018 4.25333 71.1018 3.8C71.1018 3.34667 71.1925 2.94933 71.3738 2.608C71.5551 2.26667 71.8085 2.00533 72.1338 1.824C72.4645 1.63733 72.8431 1.544 73.2698 1.544C73.6858 1.544 74.0538 1.63467 74.3738 1.816C74.6938 1.99733 74.9391 2.248 75.1098 2.568C75.2858 2.88267 75.3738 3.24 75.3738 3.64ZM74.6218 3.488C74.6218 3.21067 74.5605 2.97333 74.4378 2.776C74.3151 2.57333 74.1471 2.42133 73.9338 2.32C73.7258 2.21333 73.4938 2.16 73.2378 2.16C72.8698 2.16 72.5551 2.27733 72.2938 2.512C72.0378 2.74667 71.8911 3.072 71.8538 3.488H74.6218ZM76.3627 3.792C76.3627 3.344 76.4534 2.952 76.6347 2.616C76.8161 2.27467 77.0641 2.01067 77.3787 1.824C77.6987 1.63733 78.0561 1.544 78.4507 1.544C78.7921 1.544 79.1094 1.624 79.4027 1.784C79.6961 1.93867 79.9201 2.144 80.0747 2.4V0.0799999H80.8107V6H80.0747V5.176C79.9307 5.43733 79.7174 5.65333 79.4347 5.824C79.1521 5.98933 78.8214 6.072 78.4427 6.072C78.0534 6.072 77.6987 5.976 77.3787 5.784C77.0641 5.592 76.8161 5.32267 76.6347 4.976C76.4534 4.62933 76.3627 4.23467 76.3627 3.792ZM80.0747 3.8C80.0747 3.46933 80.0081 3.18133 79.8747 2.936C79.7414 2.69067 79.5601 2.504 79.3307 2.376C79.1067 2.24267 78.8587 2.176 78.5867 2.176C78.3147 2.176 78.0667 2.24 77.8427 2.368C77.6187 2.496 77.4401 2.68267 77.3067 2.928C77.1734 3.17333 77.1067 3.46133 77.1067 3.792C77.1067 4.128 77.1734 4.42133 77.3067 4.672C77.4401 4.91733 77.6187 5.10667 77.8427 5.24C78.0667 5.368 78.3147 5.432 78.5867 5.432C78.8587 5.432 79.1067 5.368 79.3307 5.24C79.5601 5.10667 79.7414 4.91733 79.8747 4.672C80.0081 4.42133 80.0747 4.13067 80.0747 3.8ZM85.5018 2.432C85.6511 2.17067 85.8698 1.95733 86.1578 1.792C86.4458 1.62667 86.7738 1.544 87.1418 1.544C87.5365 1.544 87.8911 1.63733 88.2058 1.824C88.5205 2.01067 88.7685 2.27467 88.9498 2.616C89.1311 2.952 89.2218 3.344 89.2218 3.792C89.2218 4.23467 89.1311 4.62933 88.9498 4.976C88.7685 5.32267 88.5178 5.592 88.1978 5.784C87.8831 5.976 87.5311 6.072 87.1418 6.072C86.7631 6.072 86.4298 5.98933 86.1418 5.824C85.8591 5.65867 85.6458 5.448 85.5018 5.192V6H84.7738V0.0799999H85.5018V2.432ZM88.4778 3.792C88.4778 3.46133 88.4111 3.17333 88.2778 2.928C88.1445 2.68267 87.9631 2.496 87.7338 2.368C87.5098 2.24 87.2618 2.176 86.9898 2.176C86.7231 2.176 86.4751 2.24267 86.2458 2.376C86.0218 2.504 85.8405 2.69333 85.7018 2.944C85.5685 3.18933 85.5018 3.47467 85.5018 3.8C85.5018 4.13067 85.5685 4.42133 85.7018 4.672C85.8405 4.91733 86.0218 5.10667 86.2458 5.24C86.4751 5.368 86.7231 5.432 86.9898 5.432C87.2618 5.432 87.5098 5.368 87.7338 5.24C87.9631 5.10667 88.1445 4.91733 88.2778 4.672C88.4111 4.42133 88.4778 4.128 88.4778 3.792ZM94.2561 1.616L91.6161 8.064H90.8641L91.7281 5.952L89.9601 1.616H90.7681L92.1441 5.168L93.5041 1.616H94.2561Z" fill="#838383"/>
</g>
<defs>
<clipPath id="clip0_167_22">
<rect width="100" height="36.3636" fill="white"/>
</clipPath>
</defs>
</svg>
