<svg width="211" height="129" viewBox="0 0 211 129" fill="none" xmlns="http://www.w3.org/2000/svg">
<path d="M1.80864 89.6005H42.1786V81.459H1.80864V89.6005Z" fill="#EBB000"/>
<path d="M39.5847 81.5917C39.4907 81.5917 39.4077 83.356 39.4077 85.5352C39.4077 87.7144 39.4907 89.4843 39.5847 89.4843C39.6787 89.4843 39.7617 87.7199 39.7617 85.5352C39.7617 83.3505 39.6843 81.5917 39.5847 81.5917Z" fill="#263238"/>
<path d="M35.8403 81.5917C35.7463 81.5917 35.6688 83.356 35.6688 85.5352C35.6688 87.7144 35.7463 89.4843 35.8403 89.4843C35.9343 89.4843 36.0173 87.7199 36.0173 85.5352C36.0173 83.3505 35.9398 81.5917 35.8403 81.5917Z" fill="#263238"/>
<path d="M32.1456 81.5917C32.0461 81.5917 31.9686 83.356 31.9686 85.5352C31.9686 87.7144 32.0461 89.4843 32.1456 89.4843C32.2452 89.4843 32.3171 87.7199 32.3171 85.5352C32.3171 83.3505 32.2231 81.5917 32.1456 81.5917Z" fill="#263238"/>
<path d="M28.462 81.5917C28.368 81.5917 28.2905 83.356 28.2905 85.5352C28.2905 87.7144 28.368 89.4843 28.462 89.4843C28.556 89.4843 28.639 87.7199 28.639 85.5352C28.639 83.3505 28.5615 81.5917 28.462 81.5917Z" fill="#263238"/>
<path d="M24.784 81.5917C24.69 81.5917 24.6071 83.356 24.6071 85.5352C24.6071 87.7144 24.69 89.4843 24.784 89.4843C24.8781 89.4843 24.961 87.7199 24.961 85.5352C24.961 83.3505 24.8836 81.5917 24.784 81.5917Z" fill="#263238"/>
<path d="M21.1059 81.5917C21.0064 81.5917 20.929 83.356 20.929 85.5352C20.929 87.7144 21.0064 89.4843 21.1059 89.4843C21.2055 89.4843 21.2774 87.7199 21.2774 85.5352C21.2774 83.3505 21.2 81.5917 21.1059 81.5917Z" fill="#263238"/>
<path d="M17.428 81.5917C17.3284 81.5917 17.251 83.356 17.251 85.5352C17.251 87.7144 17.3284 89.4843 17.428 89.4843C17.5275 89.4843 17.5994 87.7199 17.5994 85.5352C17.5994 83.3505 17.522 81.5917 17.428 81.5917Z" fill="#263238"/>
<path d="M13.7443 81.5917C13.6503 81.5917 13.5729 83.356 13.5729 85.5352C13.5729 87.7144 13.6503 89.4843 13.7443 89.4843C13.8384 89.4843 13.9213 87.7199 13.9213 85.5352C13.9213 83.3505 13.8439 81.5917 13.7443 81.5917Z" fill="#263238"/>
<path d="M10.0663 81.5917C9.97225 81.5917 9.88928 83.356 9.88928 85.5352C9.88928 87.7144 9.97225 89.4843 10.0663 89.4843C10.1603 89.4843 10.2433 87.7199 10.2433 85.5352C10.2433 83.3505 10.1658 81.5917 10.0663 81.5917Z" fill="#263238"/>
<path d="M6.38817 81.5917C6.28861 81.5917 6.21118 83.356 6.21118 85.5352C6.21118 87.7144 6.28861 89.4843 6.38817 89.4843C6.48773 89.4843 6.56516 87.7199 6.56516 85.5352C6.56516 83.3505 6.4822 81.5917 6.38817 81.5917Z" fill="#263238"/>
<path d="M2.71031 81.5917C2.61076 81.5917 2.53333 83.356 2.53333 85.5352C2.53333 87.7144 2.61076 89.4843 2.71031 89.4843C2.80987 89.4843 2.88177 87.7199 2.88177 85.5352C2.88177 83.3505 2.80434 81.5917 2.71031 81.5917Z" fill="#263238"/>
<g opacity="0.3">
<path opacity="0.3" d="M41.5315 81.4645C28.5642 83.2011 15.4232 83.2011 2.45581 81.4645H41.5315Z" fill="black"/>
</g>
<path d="M1.80322 81.4811C1.80322 81.5751 10.8241 81.6581 21.9467 81.6581C33.0693 81.6581 42.1013 81.5751 42.1013 81.4811C42.1013 81.387 33.0804 81.3041 21.9467 81.3041C10.813 81.3041 1.80322 81.3815 1.80322 81.4811Z" fill="#263238"/>
<path d="M0.901653 97.598H41.2716V89.4566H0.901653V97.598Z" fill="#EBB000"/>
<path d="M38.6777 89.6005C38.5837 89.6005 38.5062 91.3704 38.5062 93.5495C38.5062 95.7287 38.5837 97.493 38.6777 97.493C38.7717 97.493 38.8547 95.7287 38.8547 93.5495C38.8547 91.3704 38.7772 89.6005 38.6777 89.6005Z" fill="#263238"/>
<path d="M34.9332 89.6005C34.8391 89.6005 34.7617 91.3704 34.7617 93.5495C34.7617 95.7287 34.8391 97.493 34.9332 97.493C35.0272 97.493 35.1102 95.7287 35.1102 93.5495C35.1102 91.3704 35.0327 89.6005 34.9332 89.6005Z" fill="#263238"/>
<path d="M31.2385 89.6005C31.139 89.6005 31.0615 91.3704 31.0615 93.5495C31.0615 95.7287 31.139 97.493 31.2385 97.493C31.3381 97.493 31.41 95.7287 31.41 93.5495C31.41 91.3704 31.3325 89.6005 31.2385 89.6005Z" fill="#263238"/>
<path d="M27.555 89.6005C27.461 89.6005 27.3835 91.3704 27.3835 93.5495C27.3835 95.7287 27.461 97.493 27.555 97.493C27.649 97.493 27.732 95.7287 27.732 93.5495C27.732 91.3704 27.6546 89.6005 27.555 89.6005Z" fill="#263238"/>
<path d="M23.8769 89.6005C23.7829 89.6005 23.7 91.3704 23.7 93.5495C23.7 95.7287 23.7829 97.493 23.8769 97.493C23.971 97.493 24.0539 95.7287 24.0539 93.5495C24.0539 91.3704 23.9765 89.6005 23.8769 89.6005Z" fill="#263238"/>
<path d="M20.199 89.6005C20.0994 89.6005 20.022 91.3704 20.022 93.5495C20.022 95.7287 20.0994 97.493 20.199 97.493C20.2985 97.493 20.3759 95.7287 20.3759 93.5495C20.3759 91.3704 20.293 89.6005 20.199 89.6005Z" fill="#263238"/>
<path d="M16.5209 89.6005C16.4213 89.6005 16.3439 91.3704 16.3439 93.5495C16.3439 95.7287 16.4213 97.493 16.5209 97.493C16.6204 97.493 16.6923 95.7287 16.6923 93.5495C16.6923 91.3704 16.6149 89.6005 16.5209 89.6005Z" fill="#263238"/>
<path d="M12.8649 89.6005C12.7709 89.6005 12.6935 91.3704 12.6935 93.5495C12.6935 95.7287 12.7709 97.493 12.8649 97.493C12.959 97.493 13.0419 95.7287 13.0419 93.5495C13.0419 91.3704 12.9368 89.6005 12.8649 89.6005Z" fill="#263238"/>
<path d="M9.15929 89.6005C9.06526 89.6005 8.9823 91.3704 8.9823 93.5495C8.9823 95.7287 9.06526 97.493 9.15929 97.493C9.25331 97.493 9.33628 95.7287 9.33628 93.5495C9.33628 91.3704 9.25884 89.6005 9.15929 89.6005Z" fill="#263238"/>
<path d="M5.48119 89.6005C5.38163 89.6005 5.3042 91.3704 5.3042 93.5495C5.3042 95.7287 5.38163 97.493 5.48119 97.493C5.58074 97.493 5.65818 95.7287 5.65818 93.5495C5.65818 91.3704 5.57521 89.6005 5.48119 89.6005Z" fill="#263238"/>
<path d="M1.80321 89.6005C1.70365 89.6005 1.62622 91.3704 1.62622 93.5495C1.62622 95.7287 1.70365 97.493 1.80321 97.493C1.90276 97.493 1.97467 95.7287 1.97467 93.5495C1.97467 91.3704 1.89723 89.6005 1.80321 89.6005Z" fill="#263238"/>
<g opacity="0.3">
<path opacity="0.3" d="M40.6246 89.4677C27.6572 91.2043 14.5162 91.2043 1.54883 89.4677H40.6246Z" fill="black"/>
</g>
<path d="M0.89624 89.4842C0.89624 89.5838 9.91712 89.6612 21.0453 89.6612C32.1734 89.6612 41.1943 89.5838 41.1943 89.4842C41.1943 89.3846 32.1734 89.3127 21.0453 89.3127C9.91712 89.3127 0.89624 89.3902 0.89624 89.4842Z" fill="#263238"/>
<path d="M4.73454 105.48H45.1045V97.3381H4.73454V105.48Z" fill="#EBB000"/>
<path d="M42.5106 97.4709C42.4166 97.4709 42.3391 99.2408 42.3391 101.42C42.3391 103.599 42.4166 105.369 42.5106 105.369C42.6046 105.369 42.6876 103.599 42.6876 101.42C42.6876 99.2408 42.6101 97.4709 42.5106 97.4709Z" fill="#263238"/>
<path d="M38.7662 97.4709C38.6722 97.4709 38.5947 99.2408 38.5947 101.42C38.5947 103.599 38.6722 105.369 38.7662 105.369C38.8602 105.369 38.9432 103.599 38.9432 101.42C38.9432 99.2408 38.8602 97.4709 38.7662 97.4709Z" fill="#263238"/>
<path d="M35.0715 97.4709C34.972 97.4709 34.8945 99.2408 34.8945 101.42C34.8945 103.599 34.972 105.369 35.0715 105.369C35.1711 105.369 35.243 103.599 35.243 101.42C35.243 99.2408 35.1655 97.4709 35.0715 97.4709Z" fill="#263238"/>
<path d="M31.3879 97.4709C31.2939 97.4709 31.2164 99.2408 31.2164 101.42C31.2164 103.599 31.2939 105.369 31.3879 105.369C31.4819 105.369 31.5649 103.599 31.5649 101.42C31.5649 99.2408 31.4875 97.4709 31.3879 97.4709Z" fill="#263238"/>
<path d="M27.7098 97.4709C27.6158 97.4709 27.5328 99.2408 27.5328 101.42C27.5328 103.599 27.6158 105.369 27.7098 105.369C27.8038 105.369 27.8868 103.599 27.8868 101.42C27.8868 99.2408 27.7983 97.4709 27.7098 97.4709Z" fill="#263238"/>
<path d="M24.0317 97.4709C23.9322 97.4709 23.8547 99.2408 23.8547 101.42C23.8547 103.599 23.9322 105.369 24.0317 105.369C24.1313 105.369 24.2087 103.599 24.2087 101.42C24.2087 99.2408 24.1257 97.4709 24.0317 97.4709Z" fill="#263238"/>
<path d="M20.3537 97.4709C20.2542 97.4709 20.1768 99.2408 20.1768 101.42C20.1768 103.599 20.2542 105.369 20.3537 105.369C20.4533 105.369 20.5252 103.599 20.5252 101.42C20.5252 99.2408 20.4478 97.4709 20.3537 97.4709Z" fill="#263238"/>
<path d="M16.6702 97.4709C16.5762 97.4709 16.4988 99.2408 16.4988 101.42C16.4988 103.599 16.5762 105.369 16.6702 105.369C16.7643 105.369 16.8472 103.599 16.8472 101.42C16.8472 99.2408 16.7698 97.4709 16.6702 97.4709Z" fill="#263238"/>
<path d="M12.9921 97.4709C12.898 97.4709 12.8151 99.2408 12.8151 101.42C12.8151 103.599 12.898 105.369 12.9921 105.369C13.0861 105.369 13.169 103.599 13.169 101.42C13.169 99.2408 13.0916 97.4709 12.9921 97.4709Z" fill="#263238"/>
<path d="M9.3142 97.4709C9.21464 97.4709 9.13721 99.2408 9.13721 101.42C9.13721 103.599 9.21464 105.369 9.3142 105.369C9.41375 105.369 9.49118 103.599 9.49118 101.42C9.49118 99.2408 9.40822 97.4709 9.3142 97.4709Z" fill="#263238"/>
<path d="M5.63609 97.4709C5.53654 97.4709 5.45911 99.2408 5.45911 101.42C5.45911 103.599 5.53654 105.369 5.63609 105.369C5.73565 105.369 5.80755 103.599 5.80755 101.42C5.80755 99.2408 5.73012 97.4709 5.63609 97.4709Z" fill="#263238"/>
<g opacity="0.3">
<path opacity="0.3" d="M44.4573 97.3436C31.4901 99.0831 18.3488 99.0831 5.38159 97.3436H44.4573Z" fill="black"/>
</g>
<path d="M4.729 97.3436C4.729 97.4431 13.7499 97.5206 24.878 97.5206C36.0062 97.5206 45.0271 97.4431 45.0271 97.3436C45.0271 97.244 36.0062 97.1721 24.878 97.1721C13.7499 97.1721 4.729 97.2661 4.729 97.3436Z" fill="#263238"/>
<path d="M0.0056572 113.245H40.3756V105.419H0.0056572V113.245Z" fill="#EBB000"/>
<path d="M37.7817 105.546C37.6877 105.546 37.6102 107.25 37.6102 109.346C37.6102 111.442 37.6877 113.14 37.7817 113.14C37.8757 113.14 37.9587 111.442 37.9587 109.346C37.9587 107.25 37.8812 105.546 37.7817 105.546Z" fill="#263238"/>
<path d="M34.0372 105.546C33.9432 105.546 33.8657 107.25 33.8657 109.346C33.8657 111.442 33.9432 113.14 34.0372 113.14C34.1312 113.14 34.2142 111.442 34.2142 109.346C34.2142 107.25 34.1367 105.546 34.0372 105.546Z" fill="#263238"/>
<path d="M30.3426 105.546C30.2431 105.546 30.1656 107.25 30.1656 109.346C30.1656 111.442 30.2431 113.14 30.3426 113.14C30.4422 113.14 30.5141 111.442 30.5141 109.346C30.5141 107.25 30.4367 105.546 30.3426 105.546Z" fill="#263238"/>
<path d="M26.6589 105.546C26.5649 105.546 26.4874 107.25 26.4874 109.346C26.4874 111.442 26.5649 113.14 26.6589 113.14C26.7529 113.14 26.8359 111.442 26.8359 109.346C26.8359 107.25 26.7584 105.546 26.6589 105.546Z" fill="#263238"/>
<path d="M22.9809 105.546C22.8869 105.546 22.804 107.25 22.804 109.346C22.804 111.442 22.8869 113.14 22.9809 113.14C23.075 113.14 23.1579 111.442 23.1579 109.346C23.1579 107.25 23.0805 105.546 22.9809 105.546Z" fill="#263238"/>
<path d="M19.303 105.546C19.2034 105.546 19.126 107.25 19.126 109.346C19.126 111.442 19.2034 113.14 19.303 113.14C19.4025 113.14 19.48 111.442 19.48 109.346C19.48 107.25 19.397 105.546 19.303 105.546Z" fill="#263238"/>
<path d="M15.6304 105.546C15.5308 105.546 15.4534 107.25 15.4534 109.346C15.4534 111.442 15.5308 113.14 15.6304 113.14C15.7299 113.14 15.8018 111.442 15.8018 109.346C15.8018 107.25 15.7189 105.546 15.6304 105.546Z" fill="#263238"/>
<path d="M11.9414 105.546C11.8473 105.546 11.7699 107.25 11.7699 109.346C11.7699 111.442 11.8473 113.14 11.9414 113.14C12.0354 113.14 12.1183 111.442 12.1183 109.346C12.1183 107.25 12.0409 105.546 11.9414 105.546Z" fill="#263238"/>
<path d="M8.26329 105.546C8.16927 105.546 8.0863 107.25 8.0863 109.346C8.0863 111.442 8.16927 113.14 8.26329 113.14C8.35732 113.14 8.44028 111.442 8.44028 109.346C8.44028 107.25 8.36285 105.546 8.26329 105.546Z" fill="#263238"/>
<path d="M4.56859 105.546C4.46903 105.546 4.3916 107.25 4.3916 109.346C4.3916 111.442 4.46903 113.14 4.56859 113.14C4.66815 113.14 4.74558 111.442 4.74558 109.346C4.74558 107.25 4.67921 105.546 4.56859 105.546Z" fill="#263238"/>
<path d="M0.907213 105.546C0.807657 105.546 0.730225 107.25 0.730225 109.346C0.730225 111.442 0.807657 113.14 0.907213 113.14C1.00677 113.14 1.07867 111.442 1.07867 109.346C1.07867 107.25 1.00124 105.546 0.907213 105.546Z" fill="#263238"/>
<g opacity="0.3">
<path opacity="0.3" d="M39.7284 105.424C26.7978 107.645 13.5833 107.645 0.65271 105.424H39.7284Z" fill="black"/>
</g>
<path d="M0.00012207 105.441C0.00012207 105.54 9.021 105.618 20.1491 105.618C31.2773 105.618 40.2982 105.54 40.2982 105.441C40.2982 105.341 31.2773 105.269 20.1491 105.269C9.021 105.269 0.00012207 105.347 0.00012207 105.441Z" fill="#263238"/>
<path d="M2.60514 121.082H42.9751V113.25H2.60514V121.082Z" fill="#EBB000"/>
<path d="M40.3756 113.383C40.2815 113.383 40.2041 115.081 40.2041 117.177C40.2041 119.274 40.2815 120.972 40.3756 120.972C40.4696 120.972 40.5526 119.274 40.5526 117.177C40.5526 115.081 40.4751 113.383 40.3756 113.383Z" fill="#263238"/>
<path d="M36.6477 113.383C36.5481 113.383 36.4707 115.081 36.4707 117.177C36.4707 119.274 36.5481 120.972 36.6477 120.972C36.7473 120.972 36.8192 119.274 36.8192 117.177C36.8192 115.081 36.7307 113.383 36.6477 113.383Z" fill="#263238"/>
<path d="M32.9365 113.383C32.8369 113.383 32.7595 115.081 32.7595 117.177C32.7595 119.274 32.8369 120.972 32.9365 120.972C33.0361 120.972 33.1135 119.274 33.1135 117.177C33.1135 115.081 33.0305 113.383 32.9365 113.383Z" fill="#263238"/>
<path d="M29.2585 113.383C29.159 113.383 29.0815 115.081 29.0815 117.177C29.0815 119.274 29.159 120.972 29.2585 120.972C29.3581 120.972 29.43 119.274 29.43 117.177C29.43 115.081 29.3526 113.383 29.2585 113.383Z" fill="#263238"/>
<path d="M25.586 113.383C25.492 113.383 25.4146 115.081 25.4146 117.177C25.4146 119.274 25.492 120.972 25.586 120.972C25.68 120.972 25.763 119.274 25.763 117.177C25.763 115.081 25.6745 113.383 25.586 113.383Z" fill="#263238"/>
<path d="M21.897 113.383C21.8029 113.383 21.72 115.081 21.72 117.177C21.72 119.274 21.8029 120.972 21.897 120.972C21.991 120.972 22.0739 119.274 22.0739 117.177C22.0739 115.081 21.9965 113.383 21.897 113.383Z" fill="#263238"/>
<path d="M18.2189 113.383C18.1193 113.383 18.0419 115.081 18.0419 117.177C18.0419 119.274 18.1193 120.972 18.2189 120.972C18.3184 120.972 18.3958 119.274 18.3958 117.177C18.3958 115.081 18.3129 113.383 18.2189 113.383Z" fill="#263238"/>
<path d="M14.5242 113.383C14.4246 113.383 14.3472 115.081 14.3472 117.177C14.3472 119.274 14.4246 120.972 14.5242 120.972C14.6237 120.972 14.6956 119.274 14.6956 117.177C14.6956 115.081 14.6348 113.383 14.5242 113.383Z" fill="#263238"/>
<path d="M10.8574 113.383C10.7633 113.383 10.6859 115.081 10.6859 117.177C10.6859 119.274 10.7633 120.972 10.8574 120.972C10.9514 120.972 11.0344 119.274 11.0344 117.177C11.0344 115.081 10.9569 113.383 10.8574 113.383Z" fill="#263238"/>
<path d="M7.17919 113.383C7.08516 113.383 7.0022 115.081 7.0022 117.177C7.0022 119.274 7.08516 120.972 7.17919 120.972C7.27321 120.972 7.35617 119.274 7.35617 117.177C7.35617 115.081 7.27874 113.383 7.17919 113.383Z" fill="#263238"/>
<path d="M3.50121 113.383C3.40165 113.383 3.32422 115.081 3.32422 117.177C3.32422 119.274 3.40165 120.972 3.50121 120.972C3.60076 120.972 3.6782 119.274 3.6782 117.177C3.6782 115.081 3.59523 113.383 3.50121 113.383Z" fill="#263238"/>
<g opacity="0.3">
<path opacity="0.3" d="M42.3224 113.262C29.42 115.773 16.1546 115.773 3.2522 113.262H42.3224Z" fill="black"/>
</g>
<path d="M2.59399 113.278C2.59399 113.372 11.6149 113.45 22.743 113.45C33.8712 113.45 42.892 113.372 42.892 113.278C42.892 113.184 33.8712 113.101 22.743 113.101C11.6149 113.101 2.59399 113.179 2.59399 113.278Z" fill="#263238"/>
<path d="M0.298744 128.803H40.6687V120.971H0.298744V128.803Z" fill="#EBB000"/>
<path d="M38.0692 121.126C37.9751 121.126 37.8977 122.824 37.8977 124.921C37.8977 127.017 37.9751 128.715 38.0692 128.715C38.1632 128.715 38.2462 127.017 38.2462 124.921C38.2462 122.824 38.1687 121.126 38.0692 121.126Z" fill="#263238"/>
<path d="M34.3303 121.126C34.2307 121.126 34.1533 122.824 34.1533 124.921C34.1533 127.017 34.2307 128.715 34.3303 128.715C34.4299 128.715 34.5018 127.017 34.5018 124.921C34.5018 122.824 34.4354 121.126 34.3303 121.126Z" fill="#263238"/>
<path d="M30.6301 121.126C30.5306 121.126 30.4531 122.824 30.4531 124.921C30.4531 127.017 30.5306 128.715 30.6301 128.715C30.7297 128.715 30.8071 127.017 30.8071 124.921C30.8071 122.824 30.7241 121.126 30.6301 121.126Z" fill="#263238"/>
<path d="M26.9521 121.126C26.8526 121.126 26.7751 122.824 26.7751 124.921C26.7751 127.017 26.8526 128.715 26.9521 128.715C27.0517 128.715 27.1236 127.017 27.1236 124.921C27.1236 122.824 27.0462 121.126 26.9521 121.126Z" fill="#263238"/>
<path d="M23.2685 121.126C23.1745 121.126 23.097 122.824 23.097 124.921C23.097 127.017 23.1745 128.715 23.2685 128.715C23.3625 128.715 23.4455 127.017 23.4455 124.921C23.4455 122.824 23.3736 121.126 23.2685 121.126Z" fill="#263238"/>
<path d="M19.5906 121.126C19.4965 121.126 19.4136 122.824 19.4136 124.921C19.4136 127.017 19.4965 128.715 19.5906 128.715C19.6846 128.715 19.7676 127.017 19.7676 124.921C19.7676 122.824 19.6901 121.126 19.5906 121.126Z" fill="#263238"/>
<path d="M15.9125 121.126C15.8129 121.126 15.7355 122.824 15.7355 124.921C15.7355 127.017 15.8129 128.715 15.9125 128.715C16.012 128.715 16.0895 127.017 16.0895 124.921C16.0895 122.824 16.0065 121.126 15.9125 121.126Z" fill="#263238"/>
<path d="M12.2345 121.126C12.1349 121.126 12.0575 122.824 12.0575 124.921C12.0575 127.017 12.1349 128.715 12.2345 128.715C12.334 128.715 12.4059 127.017 12.4059 124.921C12.4059 122.824 12.3119 121.126 12.2345 121.126Z" fill="#263238"/>
<path d="M8.55085 121.126C8.45683 121.126 8.37939 122.824 8.37939 124.921C8.37939 127.017 8.45683 128.715 8.55085 128.715C8.64488 128.715 8.72784 127.017 8.72784 124.921C8.72784 122.824 8.65041 121.126 8.55085 121.126Z" fill="#263238"/>
<path d="M4.87279 121.126C4.77876 121.126 4.6958 122.824 4.6958 124.921C4.6958 127.017 4.77876 128.715 4.87279 128.715C4.96681 128.715 5.04978 127.017 5.04978 124.921C5.04978 122.824 4.97235 121.126 4.87279 121.126Z" fill="#263238"/>
<path d="M1.19481 121.126C1.09525 121.126 1.01782 122.824 1.01782 124.921C1.01782 127.017 1.09525 128.715 1.19481 128.715C1.29437 128.715 1.3718 127.017 1.3718 124.921C1.3718 122.824 1.28884 121.126 1.19481 121.126Z" fill="#263238"/>
<g opacity="0.3">
<path opacity="0.3" d="M40.0161 120.983C27.0871 123.201 13.8749 123.201 0.945923 120.983H40.0161Z" fill="black"/>
</g>
<path d="M0.28772 120.999C0.28772 121.093 9.3086 121.171 20.4367 121.171C31.5649 121.171 40.5858 121.093 40.5858 120.999C40.5858 120.905 31.5649 120.822 20.4367 120.822C9.3086 120.822 0.28772 120.9 0.28772 120.999Z" fill="#263238"/>
<path d="M40.6686 128.803C40.6603 128.759 40.6603 128.714 40.6686 128.671C40.6686 128.566 40.6686 128.438 40.6686 128.272C40.6686 127.907 40.6686 127.399 40.6686 126.751C40.6686 125.407 40.6686 123.483 40.6299 121.082V120.994H40.7184H42.9308L42.8312 121.093C42.8312 118.803 42.8312 116.154 42.8312 113.256L42.9529 113.378H40.2317V113.25C40.2317 110.833 40.2317 108.206 40.2317 105.507V105.374H45.0933L44.9606 105.507C44.9606 102.609 44.9606 99.827 44.9606 97.2109L45.0878 97.3326H41.0724V97.2164C41.0724 94.3846 41.0724 91.8238 41.1 89.6225V89.5285H42.1786L42.0901 89.617C42.0901 87.0949 42.0901 85.0706 42.0901 83.6602C42.0901 82.9744 42.0901 82.4379 42.0901 82.0563C42.0901 81.8848 42.0901 81.7521 42.0901 81.6414C42.082 81.5957 42.082 81.5489 42.0901 81.5032C42.0901 81.5032 42.0901 81.553 42.0901 81.6414C42.0901 81.7299 42.0901 81.8848 42.0901 82.0563C42.0901 82.4379 42.0901 82.9744 42.1288 83.6602C42.1564 85.0706 42.1896 87.0949 42.2339 89.617V89.7055H41.1553L41.2494 89.6115C41.2494 91.8238 41.2494 94.3736 41.2494 97.2054L41.1332 97.0892H44.9661H45.0878V97.2164C45.0878 99.827 45.0878 102.609 45.0878 105.513V105.64H40.2981L40.4253 105.513C40.4253 108.234 40.4253 110.861 40.4253 113.256L40.3036 113.134H43.0193V113.25C43.0193 116.149 43.0193 118.781 43.0193 121.088V121.182H42.9252H40.7129L40.8014 121.099C40.8014 123.499 40.7682 125.424 40.7571 126.768C40.7571 127.415 40.7571 127.924 40.7571 128.289C40.7571 128.455 40.7571 128.582 40.7571 128.687C40.7324 128.729 40.7027 128.768 40.6686 128.803Z" fill="#263238"/>
<path d="M84.766 100.43L97.0501 127.559H102.979L103.831 125.485L104.882 127.559H108.77L108.322 111.718L108.128 102.366L84.766 100.43Z" fill="#7E57C2"/>
<g opacity="0.3">
<path opacity="0.3" d="M84.766 100.43L97.0501 127.559H102.979L103.831 125.485L104.882 127.559H108.77L108.322 111.718L108.128 102.366L84.766 100.43Z" fill="black"/>
</g>
<path d="M138.532 103.339L150.517 127.559H156.446L157.293 125.662L158.349 127.559H162.237L161.784 113.062L161.596 104.495L138.532 103.339Z" fill="#7E57C2"/>
<g opacity="0.3">
<path opacity="0.3" d="M138.532 103.339L150.517 127.559H156.446L157.293 125.662L158.349 127.559H162.237L161.784 113.062L161.596 104.495L138.532 103.339Z" fill="black"/>
</g>
<path d="M206.683 31.9519L206.794 31.9906L207.115 32.1289C207.513 32.3307 207.885 32.5815 208.221 32.8756C208.85 33.4145 209.365 34.0738 209.735 34.8147C210.106 35.5556 210.324 36.3631 210.378 37.1897C210.45 38.3452 210.158 39.4943 209.543 40.475C208.845 41.6042 207.813 42.4877 206.589 43.0026C205.918 43.3007 205.192 43.4547 204.457 43.4547C203.723 43.4547 202.996 43.3007 202.325 43.0026C201.606 42.6703 201.041 42.0772 200.743 41.3433C200.581 40.9655 200.515 40.553 200.553 40.1434C200.591 39.7338 200.73 39.3402 200.959 38.9983C201.206 38.673 201.521 38.4055 201.882 38.2144C202.243 38.0234 202.642 37.9134 203.049 37.8921C203.851 37.8497 204.639 38.1059 205.262 38.6111C205.836 39.0754 206.293 39.6671 206.599 40.3391C206.904 41.0112 207.048 41.7451 207.021 42.4827C206.979 43.8113 206.503 45.0895 205.666 46.122C205.294 46.591 204.848 46.9948 204.344 47.3167C203.875 47.6056 203.371 47.8341 202.845 47.997C201.936 48.2561 200.983 48.3258 200.046 48.2016C199.343 48.1154 198.656 47.9292 198.005 47.6486C197.594 47.4691 197.202 47.2506 196.833 46.9959C196.722 46.9129 196.628 46.8466 196.556 46.7857C196.484 46.7249 196.462 46.7138 196.468 46.7083C196.964 47.0401 197.49 47.3253 198.039 47.5601C198.685 47.8274 199.367 48.0006 200.063 48.0744C200.98 48.1833 201.91 48.1042 202.795 47.8421C203.304 47.6781 203.791 47.4514 204.244 47.1674C204.727 46.85 205.156 46.4579 205.516 46.0059C206.317 45.003 206.768 43.7657 206.799 42.4827C206.827 41.7837 206.692 41.0879 206.404 40.4504C206.116 39.813 205.683 39.2514 205.14 38.8102C204.568 38.3456 203.847 38.1057 203.11 38.1354C202.736 38.1552 202.371 38.2565 202.041 38.4323C201.71 38.6081 201.422 38.8542 201.197 39.1531C200.99 39.462 200.864 39.818 200.831 40.1882C200.799 40.5584 200.859 40.931 201.009 41.2714C201.281 41.9572 201.806 42.5131 202.474 42.8256C203.116 43.1089 203.811 43.2552 204.512 43.2552C205.214 43.2552 205.908 43.1089 206.551 42.8256C207.736 42.3342 208.74 41.4855 209.421 40.3976C210.019 39.4524 210.311 38.3456 210.256 37.2284C210.206 36.3065 209.947 35.4081 209.498 34.6012C209.163 33.9798 208.725 33.419 208.204 32.9419C207.742 32.5481 207.231 32.2153 206.683 31.9519Z" fill="#7E57C2"/>
<path d="M200.815 56.4979C202.602 96.7517 168.858 116.834 130.656 116.834C92.4539 116.834 61.5197 90.6788 61.5197 58.4171C61.5197 26.1554 92.4926 -0.00012207 130.683 -0.00012207C168.874 -0.00012207 199.388 24.2639 200.815 56.4979Z" fill="#7E57C2"/>
<g opacity="0.3">
<path opacity="0.3" d="M125.838 14.43C125.838 14.43 130.424 12.9753 134.715 17.8204C139.007 22.6655 144.975 30.9397 144.975 30.9397C144.422 33.6277 142.868 35.7239 139.826 36.9739L125.838 14.43Z" fill="black"/>
</g>
<path d="M85.1753 100.275C98.2552 100.275 108.859 92.1478 108.859 82.1225C108.859 72.0972 98.2552 63.9701 85.1753 63.9701C72.0954 63.9701 61.4921 72.0972 61.4921 82.1225C61.4921 92.1478 72.0954 100.275 85.1753 100.275Z" fill="#7E57C2"/>
<path d="M107.288 33.6001C107.288 33.6001 121.165 12.0683 127.525 14.4024C133.886 16.7364 139.848 36.9739 139.848 36.9739" fill="#7E57C2"/>
<path d="M91.569 28.6665L90.9163 22.8314C90.9163 22.8314 82.2273 19.2031 74.4454 17.4221C66.6634 15.6412 65.1313 17.4221 65.1313 17.4221L77.421 34.673L91.569 28.6665Z" fill="#7E57C2"/>
<g opacity="0.3">
<path opacity="0.3" d="M110.092 8.0087L114.699 10.7465C114.699 10.7465 137.011 4.84503 154.14 10.7465L147.851 5.39812C147.851 5.39812 127.077 0.929162 110.092 8.0087Z" fill="black"/>
</g>
<g opacity="0.3">
<path opacity="0.3" d="M85.1753 100.275C98.2552 100.275 108.859 92.1478 108.859 82.1225C108.859 72.0972 98.2552 63.9701 85.1753 63.9701C72.0954 63.9701 61.4921 72.0972 61.4921 82.1225C61.4921 92.1478 72.0954 100.275 85.1753 100.275Z" fill="black"/>
</g>
<path d="M79.1577 100.275C91.4098 100.275 101.342 92.1478 101.342 82.1225C101.342 72.0972 91.4098 63.9701 79.1577 63.9701C66.9056 63.9701 56.9733 72.0972 56.9733 82.1225C56.9733 92.1478 66.9056 100.275 79.1577 100.275Z" fill="#7E57C2"/>
<g opacity="0.3">
<path opacity="0.3" d="M70.6345 90.6346C70.0052 90.6346 69.4017 90.3846 68.9567 89.9396C68.5117 89.4946 68.2617 88.8911 68.2617 88.2618V75.9777C68.2617 75.3484 68.5117 74.7449 68.9567 74.2999C69.4017 73.855 70.0052 73.605 70.6345 73.605C71.2638 73.605 71.8673 73.855 72.3123 74.2999C72.7572 74.7449 73.0072 75.3484 73.0072 75.9777V88.2397C73.0101 88.5532 72.9509 88.8641 72.833 89.1545C72.7151 89.4449 72.5407 89.7091 72.3201 89.9318C72.0995 90.1545 71.837 90.3313 71.5476 90.4519C71.2583 90.5725 70.9479 90.6346 70.6345 90.6346Z" fill="black"/>
</g>
<g opacity="0.3">
<path opacity="0.3" d="M85.756 75.9777C85.756 74.6673 84.6937 73.605 83.3833 73.605C82.0728 73.605 81.0105 74.6673 81.0105 75.9777V88.2618C81.0105 89.5723 82.0728 90.6346 83.3833 90.6346C84.6937 90.6346 85.756 89.5723 85.756 88.2618V75.9777Z" fill="black"/>
</g>
<g opacity="0.3">
<path opacity="0.3" d="M90.2195 29.2361C92.2161 28.1299 93.2891 26.4264 92.5369 23.6499C92.5369 23.6499 82.2273 19.2252 74.4454 17.4221C66.6634 15.619 65.1313 17.4221 65.1313 17.4221L77.421 34.6729L90.2195 29.2361Z" fill="black"/>
</g>
<path d="M90.9163 29.7118C90.9163 29.7118 90.3632 29.3136 89.3676 28.6665C84.7715 25.5969 71.3591 16.8359 67.9576 16.7364C63.2895 16.6036 63.2784 20.608 63.2895 23.744C63.2895 25.9564 65.1036 45.1485 65.1036 45.1485" fill="#7E57C2"/>
<path d="M139.826 36.9738C139.802 36.9318 139.784 36.8873 139.771 36.8411L139.638 36.4428L139.129 34.9218C138.681 33.6 138.023 31.6918 137.099 29.391C136.051 26.6664 134.838 24.0085 133.465 21.432C132.659 19.9137 131.717 18.4716 130.65 17.1234C130.09 16.4132 129.441 15.7775 128.72 15.2319C128.015 14.6392 127.113 14.3332 126.192 14.3746C125.271 14.4841 124.384 14.7916 123.593 15.2761C122.815 15.7299 122.075 16.246 121.38 16.8192C120.053 17.912 118.8 19.0928 117.63 20.3535C115.645 22.4951 113.769 24.7362 112.011 27.068C110.501 29.0536 109.329 30.7018 108.532 31.8411L107.614 33.163L107.376 33.5059C107.352 33.5465 107.322 33.5836 107.288 33.6165C107.303 33.571 107.326 33.5281 107.354 33.4893L107.575 33.1354C107.769 32.8256 108.068 32.3721 108.455 31.7914C109.235 30.6299 110.379 28.9651 111.878 26.9684C113.615 24.619 115.474 22.3629 117.448 20.2097C118.619 18.934 119.877 17.7419 121.214 16.6422C121.926 16.0587 122.684 15.5351 123.482 15.077C124.301 14.5771 125.218 14.2584 126.17 14.1423C126.661 14.0929 127.156 14.1631 127.614 14.3469C128.055 14.5285 128.473 14.7624 128.858 15.0438C129.594 15.6029 130.256 16.2534 130.827 16.9796C131.902 18.34 132.848 19.7972 133.653 21.3324C135.023 23.9213 136.228 26.5944 137.26 29.3356C138.15 31.6697 138.792 33.5834 139.218 34.9163C139.428 35.58 139.583 36.0999 139.688 36.4539L139.798 36.8577C139.812 36.8952 139.821 36.9341 139.826 36.9738Z" fill="#263238"/>
<path d="M147.851 5.39807C147.851 5.39807 147.895 5.39807 147.967 5.4755L148.288 5.73546L149.499 6.74761L153.924 10.4976L154.217 10.7464L153.847 10.6469C151.17 9.89425 148.452 9.3014 145.705 8.87147C142.352 8.35434 138.966 8.07709 135.573 8.04184C128.582 7.9643 121.617 8.89571 114.893 10.8073H114.859L111.358 8.75532L110.435 8.20223L110.197 8.0529L110.12 7.99759L110.208 8.03631L110.451 8.16904L111.392 8.68895L114.931 10.6856H114.871C117.774 9.829 120.73 9.16022 123.72 8.68342C125.484 8.39028 127.387 8.18011 129.378 8.00865C131.369 7.83719 133.46 7.76529 135.611 7.80954C139.016 7.84124 142.414 8.12408 145.777 8.65576C148.531 9.09721 151.256 9.70674 153.935 10.481L153.852 10.6303L149.483 6.81951L148.299 5.77417L147.995 5.49762L147.851 5.39807Z" fill="#263238"/>
<path d="M92.3875 67.5487C92.3422 67.5281 92.2994 67.5021 92.2603 67.4713L91.8898 67.2279L91.2979 66.8297C91.0546 66.6803 90.7449 66.531 90.4517 66.3485C88.6128 65.3842 86.6348 64.7124 84.589 64.3574C83.177 64.1227 81.7501 63.9896 80.3191 63.9591C78.6767 63.9493 77.0361 64.0714 75.4132 64.3242C71.6788 64.8699 68.1163 66.254 64.993 68.3728C64.1876 68.9427 63.4208 69.5654 62.6977 70.2367C62.0041 70.8977 61.3608 71.6095 60.773 72.3661C59.6582 73.7968 58.7617 75.3848 58.1126 77.0784C57.0809 79.9845 56.8892 83.1224 57.5595 86.1325C57.8301 87.2805 58.2309 88.3939 58.7542 89.451C59.1676 90.2417 59.6546 90.9917 60.2088 91.691L60.8393 92.4377L61.3482 92.9354L61.6579 93.2507C61.7298 93.3226 61.763 93.3558 61.7575 93.3613L61.6413 93.2673L61.315 92.9742L60.7619 92.4819L60.1148 91.7463C59.5461 91.0581 59.0442 90.3173 58.6159 89.534C58.0723 88.4708 57.6547 87.3478 57.3715 86.1878C56.6856 83.142 56.8774 79.9642 57.9246 77.0231C58.2405 76.1817 58.6214 75.3662 59.0639 74.584C59.5173 73.7668 60.0313 72.9847 60.6015 72.2444C61.1972 71.4791 61.8499 70.7599 62.5539 70.0929C63.2814 69.4092 64.0558 68.7771 64.8714 68.2013C68.0199 66.0643 71.6136 64.6723 75.38 64.1306C77.0143 63.8821 78.6662 63.7674 80.3191 63.7877C81.7605 63.8226 83.1971 63.9669 84.6166 64.2191C86.6761 64.5864 88.6619 65.287 90.496 66.2932C90.8112 66.4812 91.0988 66.6361 91.3367 66.7909L91.8898 67.2113L92.2493 67.4768L92.3875 67.5487Z" fill="#263238"/>
<path d="M72.8744 75.2034C72.912 75.443 72.9286 75.6854 72.9242 75.9279C72.9242 76.4368 72.974 77.1005 73.0072 77.9024C73.0791 79.5617 73.2174 81.8736 73.2782 84.4289C73.2782 85.0649 73.2782 85.6899 73.2782 86.2928C73.2898 86.8781 73.2472 87.4632 73.151 88.0406C73.0852 88.5425 72.9055 89.0228 72.6256 89.4446C72.3457 89.8664 71.9729 90.2186 71.536 90.4742C71.2296 90.6282 70.8883 90.6995 70.5458 90.6811C70.2034 90.6626 69.8717 90.5551 69.5836 90.3691C69.4303 90.2668 69.2987 90.1352 69.1964 89.9819C69.1571 89.9304 69.1271 89.8723 69.1079 89.8104C69.2547 89.9993 69.4324 90.162 69.6334 90.2916C69.9111 90.4507 70.2245 90.5371 70.5445 90.5429C70.8645 90.5487 71.1808 90.4737 71.4641 90.3248C71.8684 90.0721 72.2107 89.7315 72.4653 89.3284C72.72 88.9253 72.8807 88.47 72.9353 87.9963C73.0211 87.4327 73.0581 86.8628 73.0459 86.2928C73.0459 85.6899 73.0459 85.0705 73.0459 84.4344C72.9851 81.8847 72.8745 79.5783 72.8468 77.908C72.8468 77.0728 72.8468 76.3925 72.8468 75.9279C72.8337 75.6861 72.843 75.4435 72.8744 75.2034Z" fill="#263238"/>
<path d="M85.4518 75.2034C85.4899 75.443 85.5084 75.6853 85.5071 75.9279C85.5071 76.4368 85.5569 77.1005 85.5901 77.9024C85.6564 79.5617 85.7947 81.8736 85.8611 84.4289C85.8611 85.0649 85.8611 85.6899 85.8611 86.2928C85.8681 86.8782 85.8237 87.463 85.7283 88.0406C85.6632 88.542 85.4843 89.022 85.2054 89.4437C84.9265 89.8655 84.5548 90.218 84.1188 90.4742C83.8116 90.6287 83.4693 90.7003 83.1259 90.6818C82.7825 90.6634 82.4499 90.5556 82.1609 90.3691C82.0076 90.2668 81.8761 90.1352 81.7738 89.9819C81.734 89.9314 81.7057 89.8729 81.6908 89.8104C81.8345 90.0002 82.0105 90.163 82.2107 90.2916C82.4884 90.4507 82.8018 90.5371 83.1218 90.5429C83.4418 90.5487 83.7581 90.4737 84.0414 90.3248C84.4458 90.0721 84.788 89.7315 85.0427 89.3284C85.2974 88.9253 85.458 88.47 85.5126 87.9963C85.6031 87.4332 85.642 86.863 85.6288 86.2928C85.6288 85.6899 85.6288 85.0705 85.6288 84.4344C85.5624 81.8847 85.4518 79.5783 85.4241 77.908C85.4241 77.0728 85.4241 76.3925 85.4241 75.9279C85.4134 75.686 85.4226 75.4437 85.4518 75.2034Z" fill="#263238"/>
<path d="M101.077 86.0715C101.052 86.1792 101.019 86.2846 100.977 86.3868C100.9 86.5859 100.817 86.8956 100.645 87.2662C100.192 88.3261 99.6358 89.3393 98.986 90.2916C98.0189 91.7114 96.8863 93.011 95.6121 94.1632C94.8606 94.8399 94.0682 95.4698 93.2394 96.0493C92.3442 96.6665 91.4072 97.2209 90.4352 97.7085C88.5651 98.6713 86.5802 99.3925 84.5282 99.8545C82.8516 100.207 81.1421 100.38 79.4288 100.369C77.9686 100.369 76.7905 100.275 75.9775 100.22L75.0428 100.148C74.9327 100.145 74.8233 100.13 74.7164 100.103C74.825 100.094 74.9342 100.094 75.0428 100.103L75.983 100.137C76.796 100.164 77.9741 100.22 79.4232 100.203C81.1231 100.197 82.8175 100.011 84.4785 99.6499C86.5063 99.1829 88.4682 98.4658 90.3191 97.5149C91.2765 97.0338 92.2004 96.4887 93.0845 95.8833C93.9057 95.3082 94.6941 94.6878 95.4462 94.025C96.7129 92.8925 97.8466 91.6195 98.8256 90.2308C99.4853 89.2943 100.059 88.3003 100.54 87.2607C100.728 86.8956 100.828 86.597 100.916 86.4034C100.961 86.2888 101.015 86.1779 101.077 86.0715Z" fill="#263238"/>
<path d="M72.598 74.6945C72.5048 74.5385 72.4014 74.3888 72.2883 74.2465C72.1207 74.0664 71.9191 73.9213 71.695 73.8197C71.4709 73.7181 71.2289 73.662 70.983 73.6547C70.6204 73.6519 70.2614 73.727 69.9303 73.8749C69.5992 74.0228 69.3037 74.24 69.0638 74.512C68.783 74.8279 68.5836 75.2076 68.4831 75.6182C68.3823 76.0738 68.3359 76.5398 68.3448 77.0064C68.3448 78.9644 68.3724 80.7398 68.3448 82.0229C68.3448 82.6258 68.3448 83.1291 68.3448 83.5439C68.3512 83.7291 68.3382 83.9145 68.3061 84.097C68.2688 83.915 68.2502 83.7297 68.2508 83.5439C68.2508 83.1347 68.2231 82.6258 68.201 82.0229C68.1678 80.7398 68.1346 78.9699 68.118 77.0064C68.1069 76.5193 68.1552 76.0327 68.2618 75.5573C68.3734 75.106 68.5958 74.6897 68.9089 74.3461C69.1716 74.0555 69.4952 73.8265 69.8566 73.6754C70.218 73.5243 70.6083 73.4549 70.9996 73.4722C71.2626 73.4863 71.5197 73.5556 71.7542 73.6757C71.9886 73.7957 72.1951 73.9639 72.3602 74.1691C72.4474 74.28 72.5182 74.403 72.5704 74.5341C72.598 74.6447 72.6091 74.6945 72.598 74.6945Z" fill="white"/>
<path d="M80.933 75.7454C80.9994 75.7454 81.0547 78.1458 81.0547 81.0993C81.0547 84.0528 80.9994 86.4587 80.933 86.4587C80.8667 86.4587 80.8169 84.0583 80.8169 81.0993C80.8169 78.1402 80.8722 75.7454 80.933 75.7454Z" fill="white"/>
<path d="M77.1168 65.4137C77.0233 65.4283 76.9282 65.4283 76.8347 65.4137C76.6522 65.4137 76.3867 65.4137 76.0383 65.4137C75.0582 65.4441 74.0819 65.5495 73.118 65.729C69.9225 66.2909 66.9238 67.6607 64.4068 69.7081C61.8899 71.7555 59.9383 74.4126 58.7377 77.4268C58.3705 78.335 58.0692 79.2684 57.8361 80.2199C57.7476 80.5573 57.7034 80.8228 57.6591 80.9997C57.645 81.093 57.619 81.1841 57.5817 81.2708C57.581 81.1778 57.5903 81.0851 57.6093 80.9942C57.6425 80.8117 57.6702 80.5407 57.7476 80.2033C57.944 79.2353 58.2235 78.286 58.5828 77.3659C59.7516 74.3 61.7064 71.5954 64.2509 69.5237C66.7953 67.452 69.84 66.0861 73.0792 65.563C74.0531 65.3978 75.0394 65.3164 76.0272 65.3197C76.3757 65.3197 76.6467 65.3197 76.8292 65.3473C76.9269 65.3602 77.0233 65.3825 77.1168 65.4137Z" fill="white"/>
<path d="M65.2198 42.2283C65.2011 42.3175 65.1733 42.4046 65.1368 42.4882C65.0594 42.6763 64.9654 42.9141 64.8547 43.2072C64.7441 43.5004 64.5727 43.8986 64.4178 44.3521C64.2629 44.8057 64.0583 45.3034 63.8647 45.8787C63.6711 46.4539 63.472 47.0733 63.3116 47.7536C63.1512 48.4339 62.941 49.164 62.7585 49.9328C62.3885 51.6108 62.1097 53.3075 61.9234 55.0157C61.7536 56.7248 61.6779 58.442 61.6966 60.1594C61.6966 60.9559 61.7298 61.7081 61.7906 62.4105C61.8515 63.1129 61.8957 63.7655 61.9621 64.3629C62.0284 64.9602 62.1059 65.4967 62.1667 65.9669C62.2276 66.437 62.2995 66.8463 62.3603 67.1726C62.4211 67.4989 62.4543 67.7257 62.4875 67.9358C62.503 68.0254 62.5122 68.116 62.5152 68.2069C62.4788 68.1237 62.4528 68.0364 62.4377 67.9469C62.3935 67.7478 62.3382 67.4989 62.2663 67.1892C62.1944 66.8794 62.1114 66.4591 62.0395 65.989C61.9676 65.5188 61.857 64.9823 61.7962 64.3795C61.7353 63.7766 61.6413 63.1295 61.5915 62.4216C61.5417 61.7136 61.5086 60.9614 61.4754 60.1649C61.445 58.4385 61.5152 56.7118 61.6855 54.9936C61.8748 53.2749 62.1629 51.5686 62.5483 49.883C62.7419 49.1142 62.9134 48.3786 63.1291 47.6983C63.3448 47.018 63.5273 46.393 63.7264 45.8233C63.9255 45.2537 64.1247 44.7504 64.2795 44.3024C64.4344 43.8544 64.6114 43.4783 64.7496 43.1962L65.076 42.4882C65.1139 42.3964 65.1621 42.3092 65.2198 42.2283Z" fill="white"/>
<path d="M65.8945 18.5505C65.8945 18.5505 65.712 18.7994 65.441 19.2751C65.065 19.955 64.8069 20.6937 64.6777 21.4598C64.4898 22.5987 64.3955 23.7512 64.3957 24.9055C64.3625 26.2108 64.3514 27.671 64.3957 29.1588C64.4676 32.1731 64.7109 34.8998 64.9488 36.8633C65.0649 37.8146 65.1645 38.6 65.2364 39.1863L65.3193 39.8223C65.3291 39.8957 65.3291 39.9701 65.3193 40.0436C65.2881 39.9752 65.2676 39.9025 65.2585 39.8279C65.2253 39.6564 65.1866 39.4518 65.1368 39.2029C65.0373 38.6498 64.9045 37.8644 64.7718 36.8854C64.4219 34.3178 64.2151 31.7328 64.1523 29.1422C64.1191 27.6267 64.1523 26.1887 64.18 24.8779C64.1865 23.7125 64.2976 22.55 64.5118 21.4045C64.66 20.6225 64.9466 19.8733 65.358 19.1921C65.4706 19.0085 65.5982 18.8346 65.7397 18.6722C65.8392 18.6114 65.889 18.5505 65.8945 18.5505Z" fill="white"/>
<path d="M110.197 4.30298C110.104 4.35419 110.006 4.395 109.904 4.42466L109.063 4.72332L105.938 5.79632C102.501 6.94322 99.1257 8.27063 95.8278 9.77303C92.5342 11.2821 89.4256 13.1658 86.5635 15.3869C85.4574 16.2497 84.6333 17.0019 84.0691 17.5384C83.7815 17.8039 83.5769 18.0196 83.422 18.1579C83.3511 18.2348 83.2733 18.3051 83.1897 18.368C83.2474 18.2802 83.3141 18.1986 83.3888 18.1247C83.5271 17.9753 83.7262 17.7486 84.0083 17.472C84.7828 16.6891 85.6008 15.9505 86.4585 15.2597C89.3043 12.9896 92.4174 11.0764 95.7282 9.56285C99.034 8.05483 102.427 6.74537 105.888 5.64145C107.21 5.20451 108.289 4.86713 109.03 4.64036L109.893 4.38594C109.992 4.35119 110.094 4.32347 110.197 4.30298Z" fill="white"/>
<path d="M126.038 15.5915C125.974 15.6507 125.905 15.7043 125.833 15.7519L125.23 16.1778C124.677 16.5428 123.941 17.0848 123.018 17.7817C122.094 18.4786 121.032 19.3304 119.887 20.326C118.742 21.3215 117.525 22.4719 116.303 23.733C115.081 24.994 113.997 26.2606 113.034 27.4387C112.072 28.6168 111.264 29.7174 110.606 30.6632C109.948 31.609 109.434 32.3833 109.091 32.9253L108.687 33.5448C108.645 33.6213 108.593 33.692 108.532 33.7549C108.532 33.7549 108.565 33.672 108.643 33.5227L109.013 32.8755C109.329 32.3225 109.826 31.526 110.468 30.5692C111.11 29.6123 111.917 28.5006 112.863 27.3004C113.809 26.1002 114.915 24.8392 116.132 23.5671C117.348 22.295 118.587 21.1611 119.743 20.16C120.899 19.1589 121.983 18.3182 122.918 17.6435C123.853 16.9687 124.622 16.4433 125.169 16.1059L125.8 15.7132C125.955 15.6247 126.032 15.5805 126.038 15.5915Z" fill="white"/>
<path d="M196.175 47.2502C196.402 47.6115 196.588 47.9974 196.728 48.4007C197.1 49.3499 197.412 50.3215 197.662 51.3099C197.914 52.3011 198.099 53.3082 198.215 54.3242C198.292 54.7418 198.316 55.1673 198.287 55.5908C198.179 55.182 198.1 54.7662 198.05 54.3464C197.917 53.5776 197.718 52.5212 197.425 51.3707C197.131 50.2203 196.805 49.1916 196.556 48.456C196.399 48.0643 196.271 47.6612 196.175 47.2502Z" fill="white"/>
<path d="M185.273 99.4177L185.052 99.5892L184.383 100.065L183.277 100.834L182.58 101.32L181.767 101.873C178.536 103.993 175.174 105.905 171.7 107.598C170.594 108.151 169.427 108.671 168.21 109.224L166.319 110.026L165.351 110.435L164.35 110.822L162.292 111.608L160.146 112.349C159.422 112.609 158.675 112.836 157.934 113.068C157.193 113.3 156.419 113.555 155.633 113.754C152.357 114.669 149.033 115.407 145.678 115.966C142.084 116.595 138.454 116.986 134.809 117.139C131.164 117.309 127.511 117.207 123.88 116.835L122.57 116.707C122.133 116.663 121.701 116.586 121.27 116.53L118.72 116.165L116.242 115.706L115.025 115.479L113.831 115.208C108.21 113.973 102.724 112.187 97.4537 109.877C93.8927 108.342 90.4679 106.508 87.2161 104.396C86.0435 103.677 85.2084 103.013 84.611 102.604L83.9473 102.117L83.7261 101.945L83.9639 102.095L84.6387 102.565C85.2415 102.963 86.0878 103.616 87.2658 104.318C90.5336 106.393 93.9627 108.202 97.5201 109.727C102.788 112.008 108.266 113.771 113.875 114.993L115.07 115.264L116.286 115.49L118.759 115.944L121.303 116.304C121.729 116.359 122.16 116.431 122.597 116.475L123.902 116.602C127.521 116.986 131.163 117.099 134.798 116.94C138.433 116.788 142.054 116.4 145.639 115.778C148.98 115.219 152.288 114.48 155.55 113.566C156.336 113.367 157.093 113.107 157.851 112.885C158.609 112.664 159.35 112.432 160.063 112.172L162.204 111.442L164.261 110.662L165.262 110.28L166.23 109.871L168.116 109.08C169.333 108.527 170.506 108.002 171.612 107.471C175.095 105.781 178.471 103.88 181.722 101.779L182.541 101.26L183.243 100.784L184.35 100.032L185.035 99.5726L185.273 99.4177Z" fill="#263238"/>
<path d="M165.683 104.29L174.831 127.681H181.081L182.447 125.645L184.051 127.681H186.258L187.082 90.6125L165.683 104.29Z" fill="#7E57C2"/>
<path d="M108.228 107.598L115.971 127.697H123.078L124.533 125.368L125.932 127.697H127.697C127.697 127.697 128.471 105.02 127.697 104.379C126.922 103.737 108.228 107.598 108.228 107.598Z" fill="#7E57C2"/>
<path d="M198.547 62.6649C198.555 62.7089 198.555 62.7537 198.547 62.7977C198.547 62.9027 198.547 63.0299 198.514 63.1903C198.481 63.5498 198.437 64.0532 198.376 64.6892C198.343 65.0155 198.304 65.3806 198.265 65.7954C198.227 66.2102 198.133 66.614 198.061 67.073C197.9 67.9912 197.768 69.042 197.469 70.1759C197.336 70.7289 197.198 71.3484 197.049 71.9679C196.899 72.5873 196.683 73.2179 196.495 73.8816C196.13 75.209 195.594 76.5806 195.057 78.0352C192.584 84.3049 188.962 90.0578 184.377 94.9985C183.271 96.1047 182.298 97.2108 181.252 98.0903C180.738 98.5493 180.262 99.0139 179.77 99.4177L178.338 100.568C177.442 101.326 176.546 101.901 175.793 102.443C175.412 102.709 175.063 102.968 174.726 103.184L173.797 103.737L172.508 104.512L172.165 104.711L172.049 104.772C172.049 104.772 172.082 104.738 172.154 104.689L172.48 104.473L173.747 103.66L174.665 103.079C174.997 102.858 175.34 102.592 175.716 102.327C176.463 101.774 177.348 101.193 178.232 100.43L179.648 99.2683C180.141 98.8646 180.611 98.3945 181.12 97.9354C182.154 97.0283 183.149 95.9498 184.217 94.8381C188.767 89.9069 192.372 84.1813 194.853 77.9468C195.406 76.4977 195.959 75.1371 196.307 73.8097C196.501 73.157 196.717 72.5265 196.861 71.9126C197.004 71.2986 197.159 70.6958 197.297 70.1316C197.602 69.0254 197.745 67.9524 197.922 67.0454C198 66.5863 198.088 66.1604 198.144 65.7677C198.199 65.375 198.232 65.0155 198.271 64.6616C198.348 64.0255 198.415 63.5554 198.459 63.1682C198.459 63.0078 198.498 62.8806 198.509 62.7811C198.518 62.7412 198.531 62.7023 198.547 62.6649Z" fill="white"/>
<g opacity="0.2">
<path opacity="0.2" d="M188.642 42.9363C186.568 37.7926 182.043 32.9364 176.8 30.807C175.805 30.4162 174.731 30.267 173.667 30.3715C172.603 30.476 171.578 30.8313 170.678 31.4083C169.778 31.9853 169.027 32.7675 168.488 33.6907C167.948 34.614 167.635 35.652 167.575 36.7196C167.577 36.7527 167.577 36.786 167.575 36.8191C167.414 40.1377 168.681 43.3069 170.29 46.2216C171.9 49.1364 173.78 51.8521 175.014 54.9107C177.044 60.0147 177.109 65.6904 175.196 70.8396C173.979 74.0752 171.955 77.5265 173.786 80.7565C174.402 81.7764 175.3 82.5966 176.372 83.1186C177.443 83.6405 178.642 83.8421 179.825 83.6989C184.477 83.2786 186.888 79.0806 189.09 75.2698C191.031 71.7509 192.165 67.8437 192.408 63.832C192.653 56.6782 191.369 49.5544 188.642 42.9363Z" fill="white"/>
</g>
<path d="M77.974 54.0975C77.974 54.7451 77.782 55.3782 77.4222 55.9166C77.0624 56.4551 76.551 56.8748 75.9527 57.1226C75.3544 57.3704 74.6961 57.4352 74.0609 57.3089C73.4258 57.1826 72.8424 56.8707 72.3844 56.4128C71.9265 55.9549 71.6147 55.3715 71.4883 54.7363C71.362 54.1012 71.4268 53.4428 71.6747 52.8445C71.9225 52.2462 72.3422 51.7348 72.8806 51.3751C73.4191 51.0153 74.0521 50.8232 74.6997 50.8232C75.1299 50.8225 75.556 50.9067 75.9536 51.071C76.3512 51.2353 76.7124 51.4764 77.0166 51.7806C77.3208 52.0848 77.562 52.4461 77.7262 52.8437C77.8905 53.2412 77.9747 53.6673 77.974 54.0975Z" fill="#263238"/>
<path d="M111.602 54.9437C111.603 55.5915 111.412 56.2251 111.053 56.7643C110.694 57.3035 110.183 57.724 109.584 57.9727C108.986 58.2213 108.328 58.287 107.692 58.1612C107.057 58.0355 106.473 57.7241 106.014 57.2664C105.556 56.8087 105.243 56.2253 105.117 55.59C104.99 54.9547 105.054 54.2961 105.302 53.6975C105.55 53.0989 105.969 52.5871 106.508 52.2271C107.047 51.8671 107.68 51.6749 108.328 51.6749C109.195 51.6749 110.027 52.0191 110.641 52.632C111.255 53.2448 111.6 54.0762 111.602 54.9437Z" fill="#263238"/>
<path d="M187.569 27.3225C187.487 27.2492 187.413 27.1677 187.347 27.0792L186.733 26.3435C186.473 26.0227 186.18 25.6301 185.76 25.1876C185.34 24.7451 184.947 24.2307 184.438 23.6942C183.929 23.1577 183.393 22.5493 182.779 21.9299C182.165 21.3104 181.501 20.6633 180.799 19.983C179.366 18.6501 177.74 17.2176 175.954 15.857C174.167 14.4964 172.386 13.2685 170.733 12.2177C169.897 11.7088 169.112 11.2166 168.349 10.7962C167.586 10.3759 166.878 9.97765 166.225 9.63473C165.572 9.29182 164.969 8.99868 164.438 8.7332C163.907 8.46771 163.454 8.25754 163.078 8.08608L162.215 7.68233C162.112 7.64112 162.014 7.58921 161.922 7.52747C162.03 7.55066 162.134 7.58785 162.232 7.63808L163.117 8.00311C163.498 8.15798 163.968 8.36262 164.499 8.61704C165.03 8.87146 165.644 9.13695 166.302 9.4854C166.961 9.83384 167.685 10.1933 168.443 10.6248C169.201 11.0562 170.008 11.5263 170.849 12.0351C172.508 13.0749 174.3 14.2862 176.103 15.6689C177.906 17.0517 179.516 18.4786 180.948 19.8282C181.651 20.514 182.325 21.1556 182.917 21.7971C183.509 22.4387 184.073 23.025 184.576 23.5781C185.08 24.1312 185.495 24.6511 185.876 25.1046C186.258 25.5582 186.567 25.9564 186.816 26.2882L187.369 27.046C187.448 27.1286 187.515 27.2217 187.569 27.3225Z" fill="white"/>
<path d="M153.194 12.6158C153.073 12.5945 152.954 12.5593 152.84 12.5107L151.839 12.1678C151.408 12.0129 150.877 11.8304 150.252 11.6479C149.627 11.4654 148.924 11.2165 148.128 11.0229L146.889 10.6966C146.452 10.5804 145.998 10.4975 145.528 10.3869C144.594 10.1656 143.576 9.99969 142.508 9.83377C137.865 9.08423 133.144 8.94848 128.466 9.43001C127.359 9.55722 126.364 9.66231 125.418 9.83377C124.942 9.9112 124.483 9.97203 124.041 10.0605L122.78 10.315C121.978 10.4643 121.259 10.6634 120.628 10.8183C119.998 10.9731 119.456 11.1169 119.013 11.2497L117.996 11.5317C117.878 11.571 117.758 11.6006 117.636 11.6202C117.747 11.5635 117.864 11.519 117.985 11.4875L118.991 11.1612C119.423 11.0118 119.959 10.8459 120.595 10.6855C121.231 10.5251 121.939 10.3149 122.747 10.1324L124.008 9.86141C124.445 9.76739 124.909 9.70103 125.385 9.61806C126.336 9.43554 127.365 9.32493 128.443 9.18665C130.79 8.94951 133.149 8.85715 135.506 8.91011C137.864 8.99192 140.213 9.22098 142.542 9.59593C143.615 9.78951 144.632 9.96097 145.573 10.1988C146.043 10.3094 146.502 10.4034 146.933 10.5196L148.178 10.8625C148.974 11.0672 149.671 11.3216 150.296 11.5207C150.921 11.7198 151.441 11.9134 151.872 12.0738L152.857 12.4554C153.05 12.5605 153.194 12.6103 153.194 12.6158Z" fill="white"/>
<path d="M118.09 67.9193C118.27 67.9833 118.438 68.0767 118.587 68.1959C119.022 68.5033 119.397 68.8876 119.693 69.3297C120.123 69.9924 120.376 70.754 120.429 71.542C120.472 72.5136 120.202 73.4734 119.66 74.2806C119.117 75.0878 118.33 75.7 117.415 76.0276C116.669 76.2808 115.871 76.3361 115.097 76.188C114.581 76.0944 114.086 75.907 113.637 75.6349C113.468 75.5447 113.318 75.4226 113.195 75.2754C113.792 75.6302 114.447 75.8755 115.131 75.9999C115.873 76.1183 116.634 76.048 117.343 75.7953C118.192 75.469 118.921 74.8888 119.428 74.1336C119.936 73.3784 120.199 72.485 120.18 71.5752C120.14 70.8295 119.92 70.1045 119.539 69.4624C119.148 68.8684 118.658 68.3464 118.09 67.9193Z" fill="#263238"/>
</svg>
